<svg xmlns="http://www.w3.org/2000/svg" xmlns:xlink="http://www.w3.org/1999/xlink" width="500" zoomAndPan="magnify" viewBox="0 0 375 374.999991" height="500" preserveAspectRatio="xMidYMid meet" version="1.2"><defs><clipPath id="8917c45c00"><path d="M 100.3125 0 L 275 0 L 275 375 L 100.3125 375 Z M 100.3125 0 "/></clipPath></defs><g id="c70269f638"><path style=" stroke:none;fill-rule:nonzero;fill:#848484;fill-opacity:1;" d="M 206.238281 138.679688 L 206.238281 121.738281 C 232.609375 116.710938 252.683594 92.527344 252.683594 63.476562 C 252.683594 30.796875 227.296875 4.214844 196.089844 4.214844 C 190.484375 4.214844 185.941406 8.96875 185.941406 14.839844 L 185.941406 102.097656 C 140.4375 107.402344 104.925781 147.914062 104.925781 196.960938 C 104.925781 246.003906 140.4375 286.515625 185.941406 291.820312 L 185.941406 320.5 C 184.675781 320.285156 183.382812 320.144531 182.054688 320.144531 C 168.703125 320.144531 157.875 331.480469 157.875 345.46875 C 157.875 359.449219 168.703125 370.789062 182.054688 370.789062 C 195.410156 370.789062 206.234375 359.453125 206.234375 345.46875 L 206.234375 291.605469 C 242.132812 286.402344 269.886719 254.140625 269.886719 215.140625 C 269.886719 176.140625 242.132812 143.886719 206.238281 138.679688 Z M 185.941406 137.859375 L 185.941406 138.871094 C 159.65625 143.894531 139.652344 168.003906 139.652344 196.960938 C 139.652344 202.828125 144.195312 207.585938 149.800781 207.585938 C 155.40625 207.585938 159.949219 202.828125 159.949219 196.960938 C 159.949219 179.777344 170.9375 165.234375 185.941406 160.628906 L 185.941406 270.417969 C 151.652344 265.246094 125.21875 234.273438 125.21875 196.960938 C 125.21875 159.644531 151.652344 128.671875 185.941406 123.503906 Z M 232.390625 63.480469 C 232.390625 80.753906 221.332031 95.375 206.238281 99.984375 L 206.238281 26.976562 C 221.332031 31.589844 232.390625 46.207031 232.390625 63.480469 Z M 206.238281 270.164062 L 206.238281 160.125 C 230.90625 165.101562 249.59375 187.878906 249.59375 215.144531 C 249.59375 242.40625 230.90625 265.183594 206.238281 270.164062 Z M 206.238281 270.164062 "/><g clip-rule="nonzero" clip-path="url(#8917c45c00)"><path style=" stroke:none;fill-rule:nonzero;fill:#272626;fill-opacity:1;" d="M 182.054688 375 C 166.398438 375 153.660156 361.75 153.660156 345.464844 C 153.660156 329.289062 166.21875 316.113281 181.726562 315.925781 L 181.726562 295.496094 C 135.28125 288.167969 100.710938 246.476562 100.710938 196.957031 C 100.710938 147.4375 135.28125 105.753906 181.730469 98.425781 L 181.730469 14.839844 C 181.730469 6.65625 188.171875 0 196.089844 0 C 229.621094 0 256.898438 28.476562 256.898438 63.476562 C 256.898438 92.902344 237.566406 118.265625 210.453125 125.117188 L 210.453125 135.121094 C 246.988281 142.265625 274.101562 176.011719 274.101562 215.144531 C 274.101562 254.273438 246.988281 288.015625 210.453125 295.164062 L 210.453125 345.464844 C 210.453125 361.75 197.714844 375 182.054688 375 Z M 182.054688 324.355469 C 171.046875 324.355469 162.089844 333.828125 162.089844 345.464844 C 162.089844 357.105469 171.046875 366.570312 182.054688 366.570312 C 193.066406 366.570312 202.023438 357.101562 202.023438 345.464844 L 202.023438 287.960938 L 205.632812 287.4375 C 239.859375 282.472656 265.671875 251.390625 265.671875 215.144531 C 265.671875 178.890625 239.859375 147.8125 205.632812 142.847656 L 202.023438 142.324219 L 202.023438 118.253906 L 205.445312 117.597656 C 230.375 112.847656 248.46875 90.085938 248.46875 63.476562 C 248.46875 33.121094 224.972656 8.429688 196.089844 8.429688 C 192.816406 8.429688 190.15625 11.304688 190.15625 14.839844 L 190.15625 105.851562 L 186.429688 106.285156 C 142.367188 111.421875 109.136719 150.402344 109.136719 196.960938 C 109.136719 243.515625 142.367188 282.5 186.429688 287.632812 L 190.15625 288.070312 L 190.15625 325.484375 L 185.242188 324.65625 C 184.046875 324.457031 183.007812 324.355469 182.054688 324.355469 Z M 190.15625 275.3125 L 185.316406 274.582031 C 148.652344 269.054688 121.003906 235.6875 121.003906 196.957031 C 121.003906 158.234375 148.652344 124.863281 185.316406 119.335938 L 190.15625 118.605469 L 190.15625 142.355469 L 186.734375 143.007812 C 161.898438 147.753906 143.871094 170.445312 143.871094 196.957031 C 143.871094 200.492188 146.53125 203.371094 149.800781 203.371094 C 153.074219 203.371094 155.734375 200.492188 155.734375 196.957031 C 155.734375 178.429688 167.648438 161.835938 184.707031 156.597656 L 190.15625 154.925781 Z M 181.730469 128.597656 C 151.59375 135.582031 129.433594 164.105469 129.433594 196.960938 C 129.433594 229.816406 151.59375 258.335938 181.730469 265.324219 L 181.730469 166.929688 C 171.15625 172.582031 164.164062 184.1875 164.164062 196.960938 C 164.164062 205.144531 157.722656 211.800781 149.800781 211.800781 C 141.882812 211.800781 135.441406 205.144531 135.441406 196.960938 C 135.441406 167.628906 154.707031 142.34375 181.730469 135.492188 Z M 202.023438 275.3125 L 202.023438 154.972656 L 207.070312 155.992188 C 234.152344 161.457031 253.808594 186.332031 253.808594 215.144531 C 253.808594 243.949219 234.152344 268.828125 207.070312 274.292969 Z M 210.453125 165.566406 L 210.453125 264.71875 C 230.96875 258.160156 245.378906 238.113281 245.378906 215.144531 C 245.378906 192.171875 230.96875 172.125 210.453125 165.566406 Z M 202.023438 105.675781 L 202.023438 21.285156 L 207.46875 22.949219 C 224.625 28.1875 236.605469 44.855469 236.605469 63.480469 C 236.605469 82.109375 224.625 98.777344 207.46875 104.015625 Z M 210.453125 33.261719 L 210.453125 93.699219 C 221.113281 88.035156 228.175781 76.351562 228.175781 63.476562 C 228.175781 50.609375 221.113281 38.925781 210.453125 33.261719 Z M 210.453125 33.261719 "/></g></g></svg>