<svg xmlns="http://www.w3.org/2000/svg" xmlns:xlink="http://www.w3.org/1999/xlink" width="1000" zoomAndPan="magnify" viewBox="0 0 750 225" height="300" preserveAspectRatio="xMidYMid meet" version="1.2"><defs><clipPath id="72698509cb"><path d="M 22.5 11.21875 L 155 11.21875 L 155 213.71875 L 22.5 213.71875 Z M 22.5 11.21875 "/></clipPath></defs><g id="a2d33b3e4f"><g clip-rule="nonzero" clip-path="url(#72698509cb)"><path style=" stroke:none;fill-rule:nonzero;fill:#ff0000;fill-opacity:1;" d="M 154.972656 175.449219 L 154.972656 99.003906 L 88.773438 60.78125 L 51.171875 82.515625 L 51.171875 11.21875 L 22.578125 11.21875 L 22.578125 175.496094 L 88.773438 213.71875 L 154.972656 175.496094 Z M 51.125 115.542969 L 88.726562 93.761719 L 126.375 115.542969 L 126.375 158.957031 L 88.726562 180.738281 L 51.125 158.957031 Z M 51.125 115.542969 "/></g><g style="fill:#ffffff;fill-opacity:1;"><g transform="translate(196.64488, 162.475004)"><path style="stroke:none" d="M 48.53125 -29.9375 C 51.707031 -28.894531 54.226562 -27.15625 56.09375 -24.71875 C 57.957031 -22.28125 58.890625 -19.25 58.890625 -15.625 C 58.890625 -10.632812 56.96875 -6.78125 53.125 -4.0625 C 49.289062 -1.351562 43.703125 0 36.359375 0 L 7.734375 0 L 7.734375 -57.578125 L 34.703125 -57.578125 C 41.503906 -57.578125 46.742188 -56.242188 50.421875 -53.578125 C 54.097656 -50.921875 55.9375 -47.265625 55.9375 -42.609375 C 55.9375 -39.753906 55.273438 -37.226562 53.953125 -35.03125 C 52.640625 -32.84375 50.832031 -31.144531 48.53125 -29.9375 Z M 18.421875 -49.1875 L 18.421875 -33.3125 L 33.5625 -33.3125 C 37.289062 -33.3125 40.15625 -33.984375 42.15625 -35.328125 C 44.15625 -36.671875 45.15625 -38.628906 45.15625 -41.203125 C 45.15625 -43.835938 44.15625 -45.828125 42.15625 -47.171875 C 40.15625 -48.515625 37.289062 -49.1875 33.5625 -49.1875 Z M 35.703125 -8.390625 C 43.972656 -8.390625 48.109375 -11.160156 48.109375 -16.703125 C 48.109375 -22.234375 43.972656 -25 35.703125 -25 L 18.421875 -25 L 18.421875 -8.390625 Z M 35.703125 -8.390625 "/></g></g><g style="fill:#ffffff;fill-opacity:1;"><g transform="translate(259.228605, 162.475004)"><path style="stroke:none" d="M 50.90625 -8.96875 L 50.90625 0 L 7.734375 0 L 7.734375 -57.578125 L 49.765625 -57.578125 L 49.765625 -48.609375 L 18.421875 -48.609375 L 18.421875 -33.640625 L 46.21875 -33.640625 L 46.21875 -24.84375 L 18.421875 -24.84375 L 18.421875 -8.96875 Z M 50.90625 -8.96875 "/></g></g><g style="fill:#ffffff;fill-opacity:1;"><g transform="translate(314.328583, 162.475004)"><path style="stroke:none" d="M 45.078125 -13.328125 L 16.28125 -13.328125 L 10.609375 0 L -0.40625 0 L 25.5 -57.578125 L 36.03125 -57.578125 L 62.015625 0 L 50.828125 0 Z M 41.53125 -21.71875 L 30.671875 -46.875 L 19.90625 -21.71875 Z M 41.53125 -21.71875 "/></g></g><g style="fill:#ffffff;fill-opacity:1;"><g transform="translate(375.925395, 162.475004)"><path style="stroke:none" d="M 19.40625 -48.53125 L 0.328125 -48.53125 L 0.328125 -57.578125 L 49.1875 -57.578125 L 49.1875 -48.53125 L 30.109375 -48.53125 L 30.109375 0 L 19.40625 0 Z M 19.40625 -48.53125 "/></g></g><g style="fill:#ff0000;fill-opacity:1;"><g transform="translate(425.466559, 162.475004)"><path style="stroke:none" d="M 48.53125 -29.9375 C 51.707031 -28.894531 54.226562 -27.15625 56.09375 -24.71875 C 57.957031 -22.28125 58.890625 -19.25 58.890625 -15.625 C 58.890625 -10.632812 56.96875 -6.78125 53.125 -4.0625 C 49.289062 -1.351562 43.703125 0 36.359375 0 L 7.734375 0 L 7.734375 -57.578125 L 34.703125 -57.578125 C 41.503906 -57.578125 46.742188 -56.242188 50.421875 -53.578125 C 54.097656 -50.921875 55.9375 -47.265625 55.9375 -42.609375 C 55.9375 -39.753906 55.273438 -37.226562 53.953125 -35.03125 C 52.640625 -32.84375 50.832031 -31.144531 48.53125 -29.9375 Z M 18.421875 -49.1875 L 18.421875 -33.3125 L 33.5625 -33.3125 C 37.289062 -33.3125 40.15625 -33.984375 42.15625 -35.328125 C 44.15625 -36.671875 45.15625 -38.628906 45.15625 -41.203125 C 45.15625 -43.835938 44.15625 -45.828125 42.15625 -47.171875 C 40.15625 -48.515625 37.289062 -49.1875 33.5625 -49.1875 Z M 35.703125 -8.390625 C 43.972656 -8.390625 48.109375 -11.160156 48.109375 -16.703125 C 48.109375 -22.234375 43.972656 -25 35.703125 -25 L 18.421875 -25 L 18.421875 -8.390625 Z M 35.703125 -8.390625 "/></g></g><g style="fill:#ff0000;fill-opacity:1;"><g transform="translate(488.050284, 162.475004)"><path style="stroke:none" d="M 7.734375 -57.578125 L 18.421875 -57.578125 L 18.421875 -9.046875 L 48.53125 -9.046875 L 48.53125 0 L 7.734375 0 Z M 7.734375 -57.578125 "/></g></g><g style="fill:#ff0000;fill-opacity:1;"><g transform="translate(537.31133, 162.475004)"><path style="stroke:none" d="M 34.625 0.828125 C 28.757812 0.828125 23.46875 -0.445312 18.75 -3 C 14.03125 -5.550781 10.328125 -9.085938 7.640625 -13.609375 C 4.960938 -18.128906 3.625 -23.1875 3.625 -28.78125 C 3.625 -34.375 4.960938 -39.429688 7.640625 -43.953125 C 10.328125 -48.484375 14.03125 -52.019531 18.75 -54.5625 C 23.46875 -57.113281 28.757812 -58.390625 34.625 -58.390625 C 40.488281 -58.390625 45.78125 -57.113281 50.5 -54.5625 C 55.21875 -52.019531 58.921875 -48.5 61.609375 -44 C 64.296875 -39.507812 65.640625 -34.4375 65.640625 -28.78125 C 65.640625 -23.132812 64.296875 -18.0625 61.609375 -13.5625 C 58.921875 -9.070312 55.21875 -5.550781 50.5 -3 C 45.78125 -0.445312 40.488281 0.828125 34.625 0.828125 Z M 34.625 -8.546875 C 38.46875 -8.546875 41.921875 -9.410156 44.984375 -11.140625 C 48.054688 -12.867188 50.46875 -15.28125 52.21875 -18.375 C 53.976562 -21.476562 54.859375 -24.945312 54.859375 -28.78125 C 54.859375 -32.625 53.976562 -36.09375 52.21875 -39.1875 C 50.46875 -42.289062 48.054688 -44.703125 44.984375 -46.421875 C 41.921875 -48.148438 38.46875 -49.015625 34.625 -49.015625 C 30.789062 -49.015625 27.335938 -48.148438 24.265625 -46.421875 C 21.191406 -44.703125 18.773438 -42.289062 17.015625 -39.1875 C 15.265625 -36.09375 14.390625 -32.625 14.390625 -28.78125 C 14.390625 -24.945312 15.265625 -21.476562 17.015625 -18.375 C 18.773438 -15.28125 21.191406 -12.867188 24.265625 -11.140625 C 27.335938 -9.410156 30.789062 -8.546875 34.625 -8.546875 Z M 34.625 -8.546875 "/></g></g><g style="fill:#ff0000;fill-opacity:1;"><g transform="translate(606.556395, 162.475004)"><path style="stroke:none" d="M 34.375 0.828125 C 28.5625 0.828125 23.3125 -0.445312 18.625 -3 C 13.9375 -5.550781 10.265625 -9.070312 7.609375 -13.5625 C 4.953125 -18.0625 3.625 -23.132812 3.625 -28.78125 C 3.625 -34.4375 4.960938 -39.507812 7.640625 -44 C 10.328125 -48.5 14.015625 -52.019531 18.703125 -54.5625 C 23.398438 -57.113281 28.65625 -58.390625 34.46875 -58.390625 C 39.175781 -58.390625 43.476562 -57.566406 47.375 -55.921875 C 51.269531 -54.285156 54.5625 -51.90625 57.25 -48.78125 L 50.34375 -42.28125 C 46.175781 -46.769531 41.046875 -49.015625 34.953125 -49.015625 C 31.003906 -49.015625 27.46875 -48.148438 24.34375 -46.421875 C 21.21875 -44.703125 18.773438 -42.304688 17.015625 -39.234375 C 15.265625 -36.160156 14.390625 -32.675781 14.390625 -28.78125 C 14.390625 -24.894531 15.265625 -21.414062 17.015625 -18.34375 C 18.773438 -15.269531 21.21875 -12.867188 24.34375 -11.140625 C 27.46875 -9.410156 31.003906 -8.546875 34.953125 -8.546875 C 41.046875 -8.546875 46.175781 -10.820312 50.34375 -15.375 L 57.25 -8.796875 C 54.5625 -5.671875 51.253906 -3.285156 47.328125 -1.640625 C 43.410156 0.00390625 39.09375 0.828125 34.375 0.828125 Z M 34.375 0.828125 "/></g></g><g style="fill:#ff0000;fill-opacity:1;"><g transform="translate(666.344004, 162.475004)"><path style="stroke:none" d="M 27.546875 -24.09375 L 18.421875 -14.71875 L 18.421875 0 L 7.734375 0 L 7.734375 -57.578125 L 18.421875 -57.578125 L 18.421875 -28.046875 L 46.875 -57.578125 L 58.890625 -57.578125 L 34.703125 -31.828125 L 60.375 0 L 47.875 0 Z M 27.546875 -24.09375 "/></g></g></g></svg>