<svg xmlns="http://www.w3.org/2000/svg" xmlns:xlink="http://www.w3.org/1999/xlink" width="1000" zoomAndPan="magnify" viewBox="0 0 750 749.999995" height="1000" preserveAspectRatio="xMidYMid meet" version="1.2"><defs><clipPath id="eb7f23a1a6"><path d="M 76.707031 76.707031 L 672.957031 76.707031 L 672.957031 672.957031 L 76.707031 672.957031 Z M 76.707031 76.707031 "/></clipPath></defs><g id="ff55d587ae"><rect x="0" width="750" y="0" height="749.999995" style="fill:#383737;fill-opacity:1;stroke:none;"/><g clip-rule="nonzero" clip-path="url(#eb7f23a1a6)"><path style=" stroke:none;fill-rule:nonzero;fill:#4c4b4b;fill-opacity:1;" d="M 374.78125 243.199219 C 302.210938 243.199219 243.199219 302.210938 243.199219 374.78125 C 243.199219 447.351562 302.210938 506.363281 374.78125 506.363281 C 447.351562 506.363281 506.363281 447.351562 506.363281 374.78125 C 506.363281 302.210938 447.351562 243.199219 374.78125 243.199219 Z M 374.832031 461.007812 C 327.285156 461.007812 288.554688 422.328125 288.554688 374.78125 C 288.554688 327.234375 327.234375 288.503906 374.832031 288.503906 C 422.429688 288.503906 461.058594 327.183594 461.058594 374.78125 C 461.058594 422.378906 422.378906 461.007812 374.832031 461.007812 Z M 374.832031 76.707031 C 210.429688 76.707031 76.707031 210.429688 76.707031 374.832031 C 76.707031 539.234375 210.429688 672.957031 374.832031 672.957031 C 539.234375 672.957031 672.957031 539.234375 672.957031 374.832031 C 672.957031 210.429688 539.234375 76.707031 374.832031 76.707031 Z M 155.953125 298.796875 C 147.695312 322.597656 143.210938 348.179688 143.210938 374.832031 C 143.210938 379.0625 139.796875 382.476562 135.566406 382.476562 C 131.335938 382.476562 127.921875 379.0625 127.921875 374.832031 C 127.921875 346.445312 132.714844 319.183594 141.53125 293.804688 C 142.90625 289.828125 147.289062 287.6875 151.261719 289.113281 C 155.238281 290.492188 157.378906 294.875 155.953125 298.847656 Z M 178.527344 251.8125 C 176.285156 255.378906 171.546875 256.449219 167.980469 254.207031 C 164.410156 251.964844 163.339844 247.222656 165.582031 243.65625 C 209.257812 174.144531 286.667969 127.921875 374.832031 127.921875 C 379.0625 127.921875 382.476562 131.335938 382.476562 135.566406 C 382.476562 139.796875 379.0625 143.210938 374.832031 143.210938 C 292.070312 143.210938 219.5 186.578125 178.527344 251.8125 Z M 374.78125 521.652344 C 293.804688 521.652344 227.910156 455.757812 227.910156 374.78125 C 227.910156 293.804688 293.804688 227.910156 374.78125 227.910156 C 455.757812 227.910156 521.652344 293.804688 521.652344 374.78125 C 521.652344 455.757812 455.757812 521.652344 374.78125 521.652344 Z M 445.769531 374.832031 C 445.769531 413.917969 413.96875 445.769531 374.832031 445.769531 C 335.695312 445.769531 303.84375 413.96875 303.84375 374.832031 C 303.84375 335.695312 335.695312 303.84375 374.832031 303.84375 C 413.96875 303.84375 445.769531 335.695312 445.769531 374.832031 Z M 445.769531 374.832031 "/></g></g></svg>