<svg xmlns="http://www.w3.org/2000/svg" xmlns:xlink="http://www.w3.org/1999/xlink" width="500" zoomAndPan="magnify" viewBox="0 0 375 374.999991" height="500" preserveAspectRatio="xMidYMid meet" version="1.2"><defs><clipPath id="87bf7930b2"><path d="M 60 61 L 315 61 L 315 314.652344 L 60 314.652344 Z M 60 61 "/></clipPath></defs><g id="b000b008ef"><g clip-rule="nonzero" clip-path="url(#87bf7930b2)"><path style=" stroke:none;fill-rule:nonzero;fill:#848484;fill-opacity:1;" d="M 314.242188 171.972656 L 314.242188 156.125 C 314.242188 143.550781 300.640625 132.761719 274.914062 124.929688 C 267.570312 122.695312 259.476562 120.773438 250.808594 119.1875 L 312.246094 70.46875 C 314.527344 68.660156 314.90625 65.335938 313.097656 63.050781 C 311.285156 60.765625 307.957031 60.382812 305.675781 62.195312 L 236.605469 116.96875 C 221.285156 114.941406 204.632812 113.871094 187.472656 113.871094 C 170.308594 113.871094 153.660156 114.941406 138.335938 116.96875 L 69.269531 62.195312 C 66.980469 60.382812 63.660156 60.765625 61.847656 63.050781 C 60.035156 65.335938 60.417969 68.660156 62.703125 70.472656 L 124.140625 119.1875 C 115.46875 120.773438 107.375 122.695312 100.027344 124.929688 C 74.300781 132.761719 60.703125 143.550781 60.703125 156.125 L 60.703125 171.972656 C 60.703125 176.648438 62.585938 181.078125 66.269531 185.199219 L 66.269531 251.203125 L 65.984375 251.203125 C 63.066406 251.203125 60.703125 253.570312 60.703125 256.488281 L 60.703125 272.332031 C 60.703125 284.90625 74.300781 295.703125 100.027344 303.53125 C 123.460938 310.65625 154.515625 314.589844 187.472656 314.589844 C 220.433594 314.589844 251.484375 310.65625 274.914062 303.53125 C 300.640625 295.703125 314.242188 284.90625 314.242188 272.332031 L 314.242188 256.488281 C 314.242188 253.570312 311.875 251.203125 308.964844 251.203125 L 308.671875 251.203125 L 308.671875 185.199219 C 312.359375 181.078125 314.242188 176.652344 314.242188 171.972656 Z M 187.472656 198.386719 C 206.027344 198.386719 223.96875 197.136719 240.289062 194.78125 L 240.289062 199.949219 C 224.09375 202.378906 206.121094 203.664062 187.472656 203.664062 C 168.820312 203.664062 150.851562 202.378906 134.652344 199.949219 L 134.652344 194.78125 C 150.976562 197.136719 168.921875 198.386719 187.472656 198.386719 Z M 274.914062 187.324219 C 284.28125 184.476562 292.035156 181.234375 298.117188 177.65625 L 298.117188 180.699219 C 293.242188 184.738281 284.871094 189.101562 271.839844 193.066406 C 265.417969 195.019531 258.375 196.71875 250.855469 198.15625 L 250.855469 193.058594 C 259.507812 191.476562 267.585938 189.554688 274.914062 187.324219 Z M 124.089844 198.15625 C 116.566406 196.71875 109.53125 195.019531 103.105469 193.066406 C 90.078125 189.101562 81.707031 184.734375 76.832031 180.695312 L 76.832031 177.65625 C 82.914062 181.234375 90.667969 184.476562 100.027344 187.324219 C 107.359375 189.554688 115.4375 191.476562 124.089844 193.058594 Z M 76.832031 193.503906 C 82.914062 197.082031 90.667969 200.324219 100.027344 203.167969 C 107.359375 205.398438 115.4375 207.316406 124.089844 208.902344 L 124.089844 282.058594 C 118.050781 280.761719 112.363281 279.273438 107.109375 277.601562 C 88.433594 271.644531 76.832031 263.554688 76.832031 256.488281 Z M 134.652344 210.628906 C 150.976562 212.980469 168.921875 214.234375 187.472656 214.234375 C 206.027344 214.234375 223.96875 212.980469 240.289062 210.628906 L 240.289062 284.074219 C 224.226562 286.75 206.203125 288.179688 187.472656 288.179688 C 168.734375 288.179688 150.722656 286.75 134.652344 284.074219 Z M 250.855469 208.902344 C 259.507812 207.316406 267.585938 205.398438 274.914062 203.167969 C 284.28125 200.324219 292.035156 197.082031 298.117188 193.503906 L 298.117188 256.488281 C 298.117188 263.554688 286.511719 271.644531 267.832031 277.601562 C 262.585938 279.273438 256.890625 280.761719 250.855469 282.058594 Z M 103.105469 135.035156 C 112.632812 132.136719 123.507812 129.792969 135.3125 128.050781 L 168.4375 154.324219 C 169.410156 155.09375 170.566406 155.46875 171.714844 155.46875 C 173.273438 155.46875 174.820312 154.78125 175.859375 153.46875 C 177.671875 151.183594 177.285156 147.859375 175.003906 146.046875 L 150.027344 126.242188 C 161.9375 125.054688 174.542969 124.433594 187.472656 124.433594 C 200.402344 124.433594 213.003906 125.054688 224.921875 126.242188 L 199.945312 146.046875 C 197.652344 147.859375 197.265625 151.183594 199.085938 153.46875 C 200.128906 154.78125 201.671875 155.46875 203.226562 155.46875 C 204.378906 155.46875 205.53125 155.09375 206.503906 154.324219 L 239.636719 128.050781 C 251.4375 129.792969 262.308594 132.136719 271.839844 135.035156 C 295.316406 142.179688 303.671875 150.613281 303.671875 156.128906 C 303.671875 161.640625 295.316406 170.074219 271.839844 177.21875 C 263.792969 179.667969 254.769531 181.722656 245.054688 183.351562 C 244.828125 183.375 244.621094 183.414062 244.402344 183.460938 C 227.15625 186.304688 207.714844 187.820312 187.472656 187.820312 C 167.230469 187.820312 147.789062 186.304688 130.539062 183.460938 C 130.328125 183.414062 130.117188 183.375 129.894531 183.351562 C 120.171875 181.722656 111.15625 179.667969 103.105469 177.21875 C 79.632812 170.074219 71.269531 161.640625 71.269531 156.125 C 71.269531 150.613281 79.632812 142.179688 103.105469 135.035156 Z M 71.269531 272.332031 L 71.269531 269.277344 C 76.351562 275.46875 86.101562 281.984375 103.898438 287.660156 C 110.105469 289.644531 116.875 291.375 124.089844 292.847656 L 124.089844 298.515625 C 116.566406 297.085938 109.53125 295.382812 103.105469 293.417969 C 79.632812 286.285156 71.269531 277.84375 71.269531 272.332031 Z M 134.652344 300.3125 L 134.652344 294.765625 C 150.871094 297.363281 168.855469 298.742188 187.472656 298.742188 C 206.089844 298.742188 224.070312 297.363281 240.289062 294.765625 L 240.289062 300.3125 C 224.09375 302.734375 206.121094 304.027344 187.472656 304.027344 C 168.820312 304.027344 150.851562 302.734375 134.652344 300.3125 Z M 271.839844 293.417969 C 265.417969 295.382812 258.378906 297.085938 250.855469 298.515625 L 250.855469 292.847656 C 258.066406 291.375 264.839844 289.644531 271.050781 287.660156 C 288.847656 281.984375 298.597656 275.46875 303.671875 269.277344 L 303.671875 272.332031 C 303.671875 277.84375 295.316406 286.285156 271.839844 293.417969 Z M 271.839844 293.417969 "/></g></g></svg>