<svg xmlns="http://www.w3.org/2000/svg" xmlns:xlink="http://www.w3.org/1999/xlink" width="1000" zoomAndPan="magnify" viewBox="0 0 750 749.999995" height="1000" preserveAspectRatio="xMidYMid meet" version="1.2"><g id="88b871cf6c"><path style=" stroke:none;fill-rule:evenodd;fill:#ffffff;fill-opacity:1;" d="M 374.890625 -0.144531 C 582.023438 -0.144531 749.929688 167.761719 749.929688 374.890625 C 749.929688 582.023438 582.019531 749.929688 374.890625 749.929688 C 167.761719 749.929688 -0.144531 582.023438 -0.144531 374.890625 C -0.144531 167.761719 167.761719 -0.144531 374.890625 -0.144531 Z M 421.832031 339.4375 L 421.832031 562.570312 C 421.832031 624.652344 327.953125 624.652344 327.953125 562.570312 L 327.953125 339.4375 C 327.953125 277.355469 421.832031 277.355469 421.832031 339.4375 Z M 374.890625 140.597656 C 403.851562 140.597656 427.355469 164.066406 427.355469 193.0625 C 427.355469 222.023438 403.851562 245.527344 374.890625 245.527344 C 345.933594 245.527344 322.429688 222.023438 322.429688 193.0625 C 322.429688 164.066406 345.933594 140.597656 374.890625 140.597656 Z M 374.890625 140.597656 "/></g></svg>