<svg xmlns="http://www.w3.org/2000/svg" xmlns:xlink="http://www.w3.org/1999/xlink" width="500" zoomAndPan="magnify" viewBox="0 0 375 374.999991" height="500" preserveAspectRatio="xMidYMid meet" version="1.2"><defs><clipPath id="27f01e1bec"><path d="M 0 273 L 375 273 L 375 320.109375 L 0 320.109375 Z M 0 273 "/></clipPath><clipPath id="b13dda0aa4"><path d="M 0 54.609375 L 375 54.609375 L 375 102 L 0 102 Z M 0 54.609375 "/></clipPath></defs><g id="e040873e28"><path style=" stroke:none;fill-rule:nonzero;fill:#039784;fill-opacity:1;" d="M 95.730469 73.089844 C 96.011719 73.375 96.265625 73.683594 96.488281 74.015625 C 96.710938 74.347656 96.898438 74.699219 97.050781 75.070312 C 97.207031 75.441406 97.320312 75.820312 97.398438 76.214844 C 97.476562 76.605469 97.515625 77.003906 97.515625 77.402344 C 97.515625 77.804688 97.476562 78.203125 97.398438 78.59375 C 97.320312 78.988281 97.207031 79.367188 97.050781 79.738281 C 96.898438 80.109375 96.710938 80.460938 96.488281 80.792969 C 96.265625 81.125 96.011719 81.433594 95.730469 81.714844 C 95.445312 82 95.140625 82.253906 94.804688 82.476562 C 94.472656 82.699219 94.121094 82.886719 93.75 83.039062 C 93.382812 83.191406 93 83.308594 92.609375 83.386719 C 92.214844 83.464844 91.816406 83.503906 91.417969 83.503906 C 91.015625 83.503906 90.621094 83.464844 90.226562 83.386719 C 89.835938 83.308594 89.453125 83.191406 89.082031 83.039062 C 88.714844 82.886719 88.363281 82.699219 88.03125 82.476562 C 87.695312 82.253906 87.386719 82 87.105469 81.71875 C 86.820312 81.433594 86.570312 81.125 86.347656 80.792969 C 86.125 80.460938 85.9375 80.109375 85.78125 79.738281 C 85.628906 79.367188 85.515625 78.988281 85.4375 78.59375 C 85.359375 78.203125 85.320312 77.804688 85.320312 77.40625 C 85.320312 77.003906 85.359375 76.605469 85.4375 76.214844 C 85.515625 75.820312 85.628906 75.441406 85.78125 75.070312 C 85.9375 74.699219 86.125 74.347656 86.347656 74.015625 C 86.570312 73.683594 86.820312 73.375 87.105469 73.089844 C 87.386719 72.808594 87.695312 72.554688 88.027344 72.332031 C 88.363281 72.109375 88.714844 71.921875 89.082031 71.769531 C 89.453125 71.617188 89.835938 71.5 90.226562 71.421875 C 90.621094 71.34375 91.015625 71.304688 91.417969 71.304688 C 91.816406 71.304688 92.214844 71.34375 92.605469 71.421875 C 93 71.5 93.382812 71.617188 93.75 71.769531 C 94.121094 71.921875 94.472656 72.109375 94.804688 72.332031 C 95.140625 72.554688 95.445312 72.808594 95.730469 73.089844 Z M 95.730469 73.089844 "/><path style=" stroke:none;fill-rule:nonzero;fill:#ffffff;fill-opacity:1;" d="M 351.191406 163.945312 L 23.414062 163.945312 C 10.480469 163.945312 0 174.429688 0 187.359375 C 0 200.289062 10.480469 210.773438 23.414062 210.773438 L 351.191406 210.773438 C 364.121094 210.773438 374.601562 200.289062 374.601562 187.359375 C 374.601562 174.429688 364.121094 163.945312 351.191406 163.945312 Z M 351.191406 163.945312 "/><g clip-rule="nonzero" clip-path="url(#27f01e1bec)"><path style=" stroke:none;fill-rule:nonzero;fill:#ffffff;fill-opacity:1;" d="M 351.191406 273.207031 L 23.414062 273.207031 C 10.480469 273.207031 0 283.6875 0 296.617188 C 0 309.550781 10.480469 320.03125 23.414062 320.03125 L 351.191406 320.03125 C 364.121094 320.03125 374.601562 309.550781 374.601562 296.617188 C 374.601562 283.6875 364.121094 273.207031 351.191406 273.207031 Z M 351.191406 273.207031 "/></g><g clip-rule="nonzero" clip-path="url(#b13dda0aa4)"><path style=" stroke:none;fill-rule:nonzero;fill:#ffffff;fill-opacity:1;" d="M 23.414062 101.511719 L 351.191406 101.511719 C 364.121094 101.511719 374.601562 91.03125 374.601562 78.101562 C 374.601562 65.167969 364.121094 54.6875 351.191406 54.6875 L 23.414062 54.6875 C 10.480469 54.6875 0 65.167969 0 78.101562 C 0 91.03125 10.480469 101.511719 23.414062 101.511719 Z M 23.414062 101.511719 "/></g></g></svg>