<svg xmlns="http://www.w3.org/2000/svg" xmlns:xlink="http://www.w3.org/1999/xlink" width="500" zoomAndPan="magnify" viewBox="0 0 375 374.999991" height="500" preserveAspectRatio="xMidYMid meet" version="1.2"><defs><clipPath id="dadfea1a69"><path d="M 60 51.804688 L 285 51.804688 L 285 334 L 60 334 Z M 60 51.804688 "/></clipPath></defs><g id="145d02cb2d"><g clip-rule="nonzero" clip-path="url(#dadfea1a69)"><path style=" stroke:none;fill-rule:nonzero;fill:#848484;fill-opacity:1;" d="M 283.414062 51.804688 L 116.277344 90.675781 L 116.277344 276.46875 C 113.664062 275.484375 110.980469 274.769531 108.226562 274.324219 C 105.46875 273.882812 102.699219 273.71875 99.910156 273.835938 C 97.121094 273.949219 94.371094 274.347656 91.664062 275.019531 C 88.953125 275.691406 86.339844 276.628906 83.820312 277.832031 C 82.808594 278.148438 81.816406 278.511719 80.84375 278.925781 C 79.867188 279.335938 78.914062 279.792969 77.984375 280.292969 C 77.050781 280.796875 76.144531 281.339844 75.265625 281.929688 C 74.386719 282.519531 73.535156 283.144531 72.714844 283.816406 C 71.894531 284.484375 71.109375 285.191406 70.355469 285.933594 C 69.601562 286.675781 68.886719 287.453125 68.207031 288.265625 C 67.527344 289.078125 66.890625 289.917969 66.289062 290.792969 C 65.691406 291.664062 65.132812 292.5625 64.621094 293.488281 C 64.105469 294.414062 63.636719 295.359375 63.210938 296.328125 C 62.789062 297.300781 62.410156 298.285156 62.082031 299.292969 C 61.75 300.296875 61.46875 301.316406 61.234375 302.347656 C 61.003906 303.382812 60.820312 304.421875 60.683594 305.472656 C 60.550781 306.519531 60.464844 307.574219 60.429688 308.632812 C 60.394531 309.691406 60.410156 310.746094 60.476562 311.804688 C 60.542969 312.859375 60.660156 313.910156 60.824219 314.957031 C 60.992188 316 61.207031 317.035156 61.46875 318.0625 C 62.050781 318.949219 62.671875 319.808594 63.335938 320.636719 C 64 321.464844 64.699219 322.257812 65.441406 323.019531 C 66.179688 323.777344 66.953125 324.503906 67.761719 325.191406 C 68.570312 325.875 69.410156 326.523438 70.28125 327.128906 C 71.152344 327.734375 72.050781 328.300781 72.976562 328.820312 C 73.898438 329.339844 74.847656 329.816406 75.816406 330.246094 C 76.785156 330.675781 77.773438 331.058594 78.78125 331.390625 C 79.789062 331.726562 80.808594 332.011719 81.84375 332.25 C 82.878906 332.488281 83.921875 332.675781 84.972656 332.8125 C 86.023438 332.949219 87.082031 333.035156 88.140625 333.074219 C 89.203125 333.109375 90.261719 333.09375 91.320312 333.027344 C 92.378906 332.964844 93.433594 332.847656 94.480469 332.683594 C 95.527344 332.515625 96.566406 332.300781 97.59375 332.035156 C 98.621094 331.769531 99.632812 331.453125 100.628906 331.09375 C 101.625 330.730469 102.605469 330.320312 103.5625 329.863281 C 104.519531 329.40625 105.453125 328.90625 106.363281 328.363281 C 107.839844 327.796875 109.273438 327.140625 110.664062 326.402344 C 112.058594 325.660156 113.402344 324.839844 114.699219 323.933594 C 115.992188 323.027344 117.226562 322.050781 118.402344 320.996094 C 119.574219 319.941406 120.679688 318.816406 121.71875 317.628906 C 122.757812 316.4375 123.71875 315.191406 124.605469 313.882812 C 125.488281 312.578125 126.292969 311.21875 127.011719 309.816406 C 127.734375 308.410156 128.367188 306.96875 128.910156 305.488281 C 129.457031 304.003906 129.910156 302.496094 130.269531 300.957031 C 130.46875 298.691406 130.46875 296.421875 130.269531 294.15625 L 130.269531 129.542969 L 269.035156 96.308594 L 269.035156 241.097656 C 266.421875 240.113281 263.738281 239.398438 260.984375 238.953125 C 258.226562 238.507812 255.457031 238.347656 252.667969 238.464844 C 249.878906 238.578125 247.128906 238.976562 244.417969 239.648438 C 241.710938 240.320312 239.097656 241.257812 236.578125 242.460938 C 235.585938 242.796875 234.613281 243.179688 233.660156 243.605469 C 232.703125 244.035156 231.769531 244.507812 230.859375 245.023438 C 229.949219 245.539062 229.066406 246.097656 228.210938 246.699219 C 227.351562 247.296875 226.523438 247.9375 225.726562 248.613281 C 224.929688 249.292969 224.167969 250.007812 223.4375 250.757812 C 222.707031 251.507812 222.015625 252.289062 221.359375 253.105469 C 220.703125 253.921875 220.085938 254.765625 219.511719 255.636719 C 218.933594 256.511719 218.402344 257.410156 217.910156 258.335938 C 217.417969 259.257812 216.972656 260.203125 216.570312 261.171875 C 216.167969 262.136719 215.8125 263.121094 215.503906 264.121094 C 215.195312 265.121094 214.933594 266.132812 214.722656 267.15625 C 214.507812 268.179688 214.34375 269.214844 214.226562 270.253906 C 214.113281 271.292969 214.046875 272.335938 214.027344 273.382812 C 214.011719 274.429688 214.042969 275.472656 214.125 276.519531 C 214.207031 277.5625 214.335938 278.597656 214.515625 279.628906 C 214.695312 280.660156 214.921875 281.679688 215.199219 282.691406 C 215.785156 283.574219 216.410156 284.425781 217.078125 285.25 C 217.742188 286.074219 218.445312 286.863281 219.1875 287.621094 C 219.929688 288.378906 220.707031 289.097656 221.515625 289.78125 C 222.324219 290.460938 223.164062 291.105469 224.035156 291.707031 C 224.90625 292.3125 225.804688 292.871094 226.730469 293.390625 C 227.652344 293.90625 228.601562 294.378906 229.570312 294.808594 C 230.539062 295.234375 231.527344 295.617188 232.53125 295.949219 C 233.539062 296.285156 234.554688 296.570312 235.589844 296.804688 C 236.621094 297.042969 237.664062 297.230469 238.714844 297.367188 C 239.765625 297.507812 240.820312 297.59375 241.878906 297.632812 C 242.9375 297.667969 243.996094 297.65625 245.050781 297.59375 C 246.109375 297.53125 247.160156 297.417969 248.207031 297.253906 C 249.253906 297.089844 250.292969 296.878906 251.316406 296.617188 C 252.34375 296.355469 253.355469 296.046875 254.355469 295.6875 C 255.351562 295.332031 256.328125 294.925781 257.289062 294.476562 C 258.246094 294.023438 259.183594 293.53125 260.09375 292.988281 C 261.785156 292.359375 263.425781 291.605469 265.007812 290.734375 C 266.59375 289.863281 268.105469 288.882812 269.546875 287.789062 C 270.984375 286.695312 272.339844 285.503906 273.605469 284.214844 C 274.871094 282.925781 276.039062 281.550781 277.101562 280.089844 C 278.167969 278.628906 279.121094 277.097656 279.964844 275.496094 C 280.804688 273.898438 281.527344 272.246094 282.125 270.539062 C 282.726562 268.835938 283.199219 267.09375 283.546875 265.320312 C 283.890625 263.546875 284.109375 261.757812 284.191406 259.949219 L 284.191406 93.589844 Z M 283.414062 51.804688 "/></g></g></svg>