<svg xmlns="http://www.w3.org/2000/svg" xmlns:xlink="http://www.w3.org/1999/xlink" width="1000" zoomAndPan="magnify" viewBox="0 0 750 749.999995" height="1000" preserveAspectRatio="xMidYMid meet" version="1.2"><g id="2300e9e821"><path style=" stroke:none;fill-rule:nonzero;fill:#ffffff;fill-opacity:1;" d="M 437.484375 274.660156 C 422.695312 274.660156 410.707031 286.648438 410.707031 301.4375 L 410.707031 490.675781 C 410.707031 505.464844 422.695312 517.457031 437.484375 517.457031 C 452.273438 517.457031 464.261719 505.464844 464.261719 490.675781 L 464.261719 301.4375 C 464.265625 286.648438 452.273438 274.660156 437.484375 274.660156 Z M 437.484375 274.660156 "/><path style=" stroke:none;fill-rule:nonzero;fill:#ffffff;fill-opacity:1;" d="M 375 0 C 167.894531 0 0 167.894531 0 375 C 0 582.105469 167.894531 750 375 750 C 582.105469 750 750 582.105469 750 375 C 750 167.894531 582.105469 0 375 0 Z M 535.675781 238.953125 L 535.675781 535.308594 C 535.675781 564.886719 511.695312 588.867188 482.117188 588.867188 L 267.882812 588.867188 C 238.304688 588.867188 214.328125 564.886719 214.328125 535.308594 L 214.328125 238.953125 C 194.605469 238.953125 178.621094 222.96875 178.621094 203.246094 C 178.621094 183.527344 194.605469 167.542969 214.328125 167.542969 L 287.269531 167.542969 C 292.003906 167.542969 296.546875 165.660156 299.894531 162.3125 L 325.140625 137.0625 C 328.492188 133.71875 333.03125 131.835938 337.765625 131.835938 L 412.242188 131.835938 C 416.976562 131.835938 421.515625 133.714844 424.863281 137.0625 L 450.113281 162.3125 C 453.460938 165.660156 458 167.542969 462.738281 167.542969 L 535.679688 167.542969 C 555.398438 167.542969 571.382812 183.527344 571.382812 203.246094 C 571.382812 222.96875 555.394531 238.953125 535.675781 238.953125 Z M 535.675781 238.953125 "/><path style=" stroke:none;fill-rule:nonzero;fill:#ffffff;fill-opacity:1;" d="M 312.515625 274.660156 C 297.726562 274.660156 285.738281 286.648438 285.738281 301.4375 L 285.738281 490.675781 C 285.738281 505.464844 297.726562 517.457031 312.515625 517.457031 C 327.304688 517.457031 339.292969 505.464844 339.292969 490.675781 L 339.292969 301.4375 C 339.292969 286.648438 327.304688 274.660156 312.515625 274.660156 Z M 312.515625 274.660156 "/></g></svg>