<svg xmlns="http://www.w3.org/2000/svg" xmlns:xlink="http://www.w3.org/1999/xlink" width="1000" zoomAndPan="magnify" viewBox="0 0 750 749.999995" height="1000" preserveAspectRatio="xMidYMid meet" version="1.2"><g id="1e9a5286eb"><path style=" stroke:none;fill-rule:nonzero;fill:#ffffff;fill-opacity:1;" d="M 598.328125 234.234375 L 588.121094 244.441406 L 505.6875 162.003906 L 515.894531 151.804688 C 526.140625 141.558594 542.742188 141.558594 552.980469 151.804688 L 598.328125 197.144531 C 608.570312 207.386719 608.570312 223.992188 598.328125 234.234375 Z M 283.542969 549.027344 L 201.109375 466.589844 L 497.355469 170.34375 L 579.789062 252.777344 Z M 146.898438 603.234375 L 189.652344 478.046875 L 272.089844 560.480469 Z M 375.066406 0.0273438 C 167.941406 0.0273438 0.0273438 167.941406 0.0273438 375.066406 C 0.0273438 582.195312 167.941406 750.101562 375.066406 750.101562 C 582.195312 750.101562 750.101562 582.195312 750.101562 375.066406 C 750.101562 167.941406 582.195312 0.0273438 375.066406 0.0273438 "/></g></svg>