<svg xmlns="http://www.w3.org/2000/svg" xmlns:xlink="http://www.w3.org/1999/xlink" width="1000" zoomAndPan="magnify" viewBox="0 0 750 749.999995" height="1000" preserveAspectRatio="xMidYMid meet" version="1.2"><g id="077d74d0ab"><path style=" stroke:none;fill-rule:nonzero;fill:#ff0000;fill-opacity:1;" d="M 751.144531 375.339844 C 751.144531 381.488281 750.992188 387.632812 750.691406 393.777344 C 750.390625 399.917969 749.9375 406.050781 749.335938 412.171875 C 748.730469 418.289062 747.980469 424.390625 747.078125 430.472656 C 746.175781 436.558594 745.121094 442.613281 743.921875 448.648438 C 742.722656 454.679688 741.375 460.675781 739.882812 466.640625 C 738.386719 472.609375 736.75 478.53125 734.964844 484.417969 C 733.179688 490.300781 731.25 496.140625 729.179688 501.929688 C 727.105469 507.71875 724.894531 513.453125 722.539062 519.136719 C 720.1875 524.816406 717.695312 530.4375 715.066406 535.996094 C 712.4375 541.554688 709.671875 547.046875 706.773438 552.472656 C 703.875 557.894531 700.84375 563.246094 697.683594 568.519531 C 694.519531 573.792969 691.230469 578.988281 687.816406 584.101562 C 684.398438 589.214844 680.859375 594.242188 677.195312 599.179688 C 673.53125 604.121094 669.75 608.964844 665.847656 613.71875 C 661.949219 618.472656 657.933594 623.128906 653.800781 627.6875 C 649.671875 632.242188 645.433594 636.695312 641.085938 641.042969 C 636.738281 645.390625 632.285156 649.628906 627.726562 653.761719 C 623.171875 657.890625 618.515625 661.90625 613.761719 665.808594 C 609.007812 669.707031 604.164062 673.492188 599.222656 677.152344 C 594.28125 680.816406 589.257812 684.355469 584.144531 687.773438 C 579.03125 691.191406 573.835938 694.480469 568.5625 697.640625 C 563.285156 700.800781 557.9375 703.832031 552.515625 706.730469 C 547.089844 709.628906 541.597656 712.394531 536.039062 715.023438 C 530.480469 717.652344 524.859375 720.144531 519.179688 722.496094 C 513.496094 724.851562 507.761719 727.0625 501.972656 729.136719 C 496.179688 731.207031 490.34375 733.136719 484.460938 734.921875 C 478.574219 736.707031 472.648438 738.347656 466.683594 739.839844 C 460.71875 741.335938 454.71875 742.683594 448.6875 743.882812 C 442.65625 745.082031 436.597656 746.132812 430.515625 747.035156 C 424.433594 747.9375 418.332031 748.691406 412.210938 749.292969 C 406.09375 749.894531 399.960938 750.347656 393.820312 750.648438 C 387.675781 750.953125 381.53125 751.101562 375.382812 751.101562 C 369.230469 751.101562 363.085938 750.953125 356.941406 750.648438 C 350.800781 750.347656 344.671875 749.894531 338.550781 749.292969 C 332.429688 748.6875 326.328125 747.9375 320.246094 747.035156 C 314.164062 746.132812 308.105469 745.082031 302.074219 743.882812 C 296.042969 742.679688 290.042969 741.335938 284.078125 739.839844 C 278.113281 738.34375 272.1875 736.707031 266.304688 734.921875 C 260.417969 733.136719 254.582031 731.207031 248.789062 729.136719 C 243 727.0625 237.265625 724.851562 231.582031 722.496094 C 225.902344 720.144531 220.28125 717.652344 214.722656 715.023438 C 209.164062 712.394531 203.671875 709.632812 198.246094 706.730469 C 192.824219 703.832031 187.476562 700.800781 182.199219 697.640625 C 176.925781 694.480469 171.730469 691.191406 166.617188 687.773438 C 161.503906 684.355469 156.480469 680.816406 151.539062 677.152344 C 146.601562 673.492188 141.753906 669.707031 137 665.808594 C 132.246094 661.90625 127.589844 657.890625 123.035156 653.761719 C 118.476562 649.628906 114.023438 645.390625 109.675781 641.042969 C 105.328125 636.695312 101.089844 632.242188 96.960938 627.6875 C 92.828125 623.128906 88.8125 618.476562 84.914062 613.722656 C 81.011719 608.96875 77.230469 604.121094 73.566406 599.179688 C 69.902344 594.242188 66.363281 589.214844 62.945312 584.101562 C 59.527344 578.988281 56.238281 573.792969 53.078125 568.519531 C 49.917969 563.246094 46.886719 557.894531 43.988281 552.472656 C 41.089844 547.046875 38.324219 541.554688 35.695312 535.996094 C 33.066406 530.4375 30.574219 524.816406 28.222656 519.136719 C 25.867188 513.453125 23.65625 507.71875 21.582031 501.929688 C 19.511719 496.140625 17.582031 490.300781 15.796875 484.417969 C 14.011719 478.53125 12.375 472.609375 10.878906 466.640625 C 9.386719 460.675781 8.039062 454.679688 6.839844 448.648438 C 5.640625 442.613281 4.585938 436.558594 3.683594 430.472656 C 2.785156 424.390625 2.03125 418.289062 1.429688 412.171875 C 0.824219 406.050781 0.375 399.917969 0.0703125 393.777344 C -0.230469 387.632812 -0.382812 381.488281 -0.382812 375.339844 C -0.382812 369.191406 -0.230469 363.042969 0.0703125 356.902344 C 0.375 350.757812 0.824219 344.628906 1.429688 338.507812 C 2.03125 332.386719 2.785156 326.285156 3.683594 320.203125 C 4.585938 314.121094 5.640625 308.0625 6.839844 302.03125 C 8.039062 296 9.386719 290 10.878906 284.035156 C 12.375 278.070312 14.011719 272.144531 15.796875 266.261719 C 17.582031 260.375 19.511719 254.539062 21.582031 248.746094 C 23.65625 242.957031 25.867188 237.222656 28.222656 231.539062 C 30.574219 225.859375 33.066406 220.238281 35.695312 214.679688 C 38.324219 209.121094 41.089844 203.628906 43.988281 198.207031 C 46.886719 192.78125 49.917969 187.433594 53.078125 182.15625 C 56.238281 176.882812 59.527344 171.6875 62.945312 166.574219 C 66.363281 161.460938 69.902344 156.4375 73.566406 151.496094 C 77.230469 146.558594 81.011719 141.710938 84.914062 136.957031 C 88.8125 132.203125 92.828125 127.546875 96.960938 122.992188 C 101.089844 118.4375 105.328125 113.984375 109.675781 109.632812 C 114.023438 105.285156 118.476562 101.046875 123.035156 96.917969 C 127.589844 92.785156 132.246094 88.769531 137 84.871094 C 141.753906 80.96875 146.601562 77.1875 151.539062 73.523438 C 156.480469 69.859375 161.503906 66.320312 166.617188 62.902344 C 171.730469 59.484375 176.925781 56.195312 182.199219 53.035156 C 187.476562 49.875 192.824219 46.84375 198.246094 43.945312 C 203.671875 41.046875 209.164062 38.28125 214.722656 35.652344 C 220.28125 33.023438 225.902344 30.53125 231.582031 28.179688 C 237.265625 25.824219 243 23.613281 248.789062 21.539062 C 254.582031 19.46875 260.417969 17.542969 266.304688 15.757812 C 272.1875 13.972656 278.113281 12.332031 284.078125 10.835938 C 290.042969 9.34375 296.042969 7.996094 302.074219 6.796875 C 308.105469 5.597656 314.160156 4.546875 320.246094 3.644531 C 326.328125 2.742188 332.429688 1.988281 338.550781 1.386719 C 344.671875 0.78125 350.800781 0.332031 356.941406 0.0273438 C 363.085938 -0.273438 369.230469 -0.421875 375.382812 -0.421875 C 381.53125 -0.421875 387.675781 -0.273438 393.820312 0.0273438 C 399.960938 0.332031 406.09375 0.78125 412.210938 1.386719 C 418.332031 1.988281 424.433594 2.742188 430.515625 3.644531 C 436.601562 4.546875 442.65625 5.597656 448.6875 6.796875 C 454.71875 7.996094 460.71875 9.34375 466.683594 10.835938 C 472.648438 12.332031 478.574219 13.972656 484.460938 15.757812 C 490.34375 17.542969 496.179688 19.46875 501.972656 21.539062 C 507.761719 23.613281 513.496094 25.824219 519.179688 28.179688 C 524.859375 30.53125 530.480469 33.023438 536.039062 35.652344 C 541.597656 38.28125 547.089844 41.046875 552.515625 43.945312 C 557.9375 46.84375 563.285156 49.875 568.5625 53.035156 C 573.835938 56.199219 579.03125 59.484375 584.144531 62.902344 C 589.257812 66.320312 594.28125 69.859375 599.222656 73.523438 C 604.164062 77.1875 609.007812 80.96875 613.761719 84.871094 C 618.515625 88.769531 623.171875 92.785156 627.726562 96.917969 C 632.285156 101.046875 636.738281 105.285156 641.085938 109.632812 C 645.433594 113.984375 649.671875 118.4375 653.800781 122.992188 C 657.933594 127.546875 661.949219 132.203125 665.851562 136.957031 C 669.75 141.710938 673.53125 146.558594 677.195312 151.496094 C 680.859375 156.4375 684.398438 161.460938 687.816406 166.574219 C 691.230469 171.6875 694.519531 176.882812 697.683594 182.15625 C 700.84375 187.433594 703.875 192.78125 706.773438 198.207031 C 709.671875 203.628906 712.4375 209.121094 715.066406 214.679688 C 717.695312 220.238281 720.1875 225.859375 722.539062 231.539062 C 724.894531 237.222656 727.105469 242.957031 729.179688 248.746094 C 731.25 254.539062 733.179688 260.375 734.964844 266.261719 C 736.75 272.144531 738.386719 278.070312 739.882812 284.035156 C 741.375 290 742.722656 296 743.921875 302.03125 C 745.121094 308.0625 746.175781 314.121094 747.078125 320.203125 C 747.980469 326.285156 748.730469 332.386719 749.335938 338.507812 C 749.9375 344.628906 750.390625 350.757812 750.691406 356.902344 C 750.992188 363.042969 751.144531 369.191406 751.144531 375.339844 Z M 751.144531 375.339844 "/><path style=" stroke:none;fill-rule:nonzero;fill:#ffffff;fill-opacity:1;" d="M 255.898438 576.003906 L 606.042969 375.34375 L 255.898438 174.679688 Z M 255.898438 576.003906 "/></g></svg>