<svg xmlns="http://www.w3.org/2000/svg" xmlns:xlink="http://www.w3.org/1999/xlink" width="500" zoomAndPan="magnify" viewBox="0 0 375 374.999991" height="500" preserveAspectRatio="xMidYMid meet" version="1.2"><defs><clipPath id="05c7226dd3"><path d="M 62.34375 0 L 312.84375 0 L 312.84375 375 L 62.34375 375 Z M 62.34375 0 "/></clipPath></defs><g id="5aba404315"><g clip-rule="nonzero" clip-path="url(#05c7226dd3)"><path style=" stroke:none;fill-rule:nonzero;fill:#ffffff;fill-opacity:1;" d="M 135.835938 218.40625 L 135.835938 216.894531 C 135.835938 189.464844 150.683594 171.089844 178.113281 155.484375 C 212.347656 135.351562 221.15625 124.527344 221.15625 102.882812 C 221.15625 82.5 204.789062 68.148438 182.152344 68.148438 C 162.019531 68.148438 148.417969 77.460938 140.628906 95.835938 C 133.324219 112.191406 118.976562 120.503906 101.351562 120.503906 C 77.691406 120.503906 62.597656 105.90625 62.84375 83.25 C 62.84375 72.429688 65.363281 62.605469 70.652344 53.046875 C 87.503906 21.339844 129.550781 -0.316406 186.671875 -0.316406 C 262.9375 -0.316406 313.019531 39.457031 313.019531 100.609375 C 313.019531 137.613281 295.667969 163.28125 258.664062 184.671875 C 225.855469 203.59375 218.335938 212.714844 213.347656 229.160156 C 213.09375 229.996094 212.84375 230.851562 212.605469 231.730469 C 206.8125 249.355469 194.992188 258.664062 175.617188 258.664062 C 151.433594 258.679688 135.835938 242.324219 135.835938 218.40625 Z M 129.292969 329.152344 C 129.292969 303.988281 150.4375 284.101562 176.855469 284.101562 C 203.03125 284.101562 224.417969 303.988281 224.417969 329.15625 C 224.417969 354.574219 203.03125 374.460938 176.855469 374.460938 C 150.4375 374.460938 129.292969 354.574219 129.292969 329.152344 Z M 129.292969 329.152344 "/></g></g></svg>