<svg xmlns="http://www.w3.org/2000/svg" xmlns:xlink="http://www.w3.org/1999/xlink" width="500" zoomAndPan="magnify" viewBox="0 0 375 374.999991" height="500" preserveAspectRatio="xMidYMid meet" version="1.0"><path fill="#ffffff" d="M 227.824219 184.238281 C 227.824219 182.777344 227.746094 181.320312 227.589844 179.867188 C 227.433594 178.414062 227.199219 176.976562 226.886719 175.546875 C 226.574219 174.121094 226.1875 172.714844 225.722656 171.328125 C 225.261719 169.945312 224.722656 168.585938 224.113281 167.261719 C 223.503906 165.933594 222.824219 164.640625 222.078125 163.386719 C 221.328125 162.132812 220.515625 160.921875 219.636719 159.753906 C 218.757812 158.589844 217.816406 157.472656 216.820312 156.40625 C 215.820312 155.339844 214.765625 154.332031 213.660156 153.378906 C 212.550781 152.425781 211.394531 151.535156 210.191406 150.710938 C 208.988281 149.882812 207.742188 149.121094 206.457031 148.425781 C 205.171875 147.734375 203.851562 147.109375 202.5 146.558594 C 201.148438 146.007812 199.769531 145.527344 198.363281 145.125 C 196.960938 144.722656 195.539062 144.394531 194.101562 144.144531 C 192.660156 143.894531 191.210938 143.722656 189.753906 143.628906 C 188.296875 143.535156 186.839844 143.519531 185.378906 143.582031 C 183.917969 143.644531 182.46875 143.785156 181.023438 144.003906 C 179.703125 144.207031 178.421875 144.574219 177.132812 144.902344 C 176.457031 145.074219 175.761719 145.164062 175.09375 145.371094 C 173.71875 145.832031 172.375 146.367188 171.058594 146.972656 C 170.519531 147.207031 169.953125 147.363281 169.425781 147.621094 C 168.589844 148.027344 167.808594 148.566406 166.996094 149.03125 C 166.027344 149.589844 165.027344 150.082031 164.097656 150.71875 L 164.082031 150.730469 C 163.457031 151.15625 162.847656 151.601562 162.246094 152.0625 C 161.648438 152.527344 161.0625 153.003906 160.488281 153.496094 C 159.917969 153.992188 159.359375 154.503906 158.8125 155.027344 C 158.269531 155.554688 157.742188 156.09375 157.226562 156.648438 C 156.714844 157.203125 156.214844 157.773438 155.734375 158.355469 C 155.25 158.9375 154.785156 159.535156 154.335938 160.144531 C 153.886719 160.753906 153.457031 161.375 153.042969 162.007812 C 152.628906 162.640625 152.234375 163.285156 151.855469 163.941406 C 151.476562 164.59375 151.117188 165.261719 150.777344 165.9375 C 150.4375 166.613281 150.117188 167.296875 149.8125 167.988281 C 149.511719 168.683594 149.226562 169.382812 148.964844 170.09375 C 148.703125 170.804688 148.457031 171.519531 148.234375 172.242188 C 148.011719 172.964844 147.808594 173.691406 147.628906 174.425781 C 147.445312 175.160156 147.285156 175.898438 147.140625 176.644531 C 147 177.386719 146.882812 178.132812 146.78125 178.882812 C 146.683594 179.632812 146.605469 180.386719 146.546875 181.140625 C 146.492188 181.894531 146.453125 182.648438 146.441406 183.40625 C 146.425781 184.160156 146.429688 184.917969 146.457031 185.675781 C 146.484375 186.429688 146.535156 187.183594 146.605469 187.9375 C 146.675781 188.691406 146.765625 189.441406 146.875 190.191406 C 146.988281 190.9375 147.121094 191.683594 147.273438 192.421875 C 147.425781 193.164062 147.601562 193.898438 147.796875 194.632812 C 147.988281 195.363281 148.203125 196.085938 148.441406 196.804688 C 148.675781 197.527344 148.929688 198.238281 149.203125 198.941406 C 149.480469 199.648438 149.773438 200.34375 150.085938 201.03125 C 150.402344 201.71875 150.734375 202.398438 151.085938 203.070312 C 151.4375 203.738281 151.808594 204.398438 152.199219 205.046875 C 152.585938 205.695312 152.992188 206.332031 153.417969 206.960938 C 153.839844 207.585938 154.28125 208.199219 154.742188 208.800781 C 155.199219 209.402344 155.675781 209.992188 156.167969 210.566406 C 156.660156 211.140625 157.167969 211.703125 157.691406 212.246094 C 158.210938 212.792969 158.75 213.324219 159.304688 213.84375 C 160.484375 214.949219 161.726562 215.980469 163.03125 216.933594 L 163.195312 217.042969 C 163.476562 217.296875 163.769531 217.53125 164.082031 217.742188 C 167.46875 220.082031 171.128906 221.867188 175.058594 223.09375 C 178.988281 224.316406 183.011719 224.929688 187.128906 224.929688 C 191.457031 224.824219 195.679688 224.089844 199.789062 222.726562 C 203.898438 221.359375 207.722656 219.425781 211.253906 216.921875 C 213.480469 215.28125 215.519531 213.433594 217.371094 211.382812 C 219.21875 209.328125 220.84375 207.105469 222.242188 204.722656 C 223.636719 202.335938 224.78125 199.835938 225.667969 197.21875 C 226.554688 194.597656 227.167969 191.917969 227.511719 189.175781 L 227.539062 189.023438 C 227.730469 187.433594 227.824219 185.839844 227.824219 184.238281 Z M 169.480469 212.304688 C 169.203125 211.757812 168.816406 211.3125 168.320312 210.960938 C 167.820312 210.609375 167.265625 210.398438 166.660156 210.324219 C 166.097656 209.882812 165.550781 209.425781 165.019531 208.949219 C 164.488281 208.476562 163.972656 207.984375 163.46875 207.476562 C 162.96875 206.964844 162.484375 206.441406 162.019531 205.902344 C 161.550781 205.363281 161.101562 204.808594 160.671875 204.238281 C 160.242188 203.671875 159.828125 203.089844 159.433594 202.496094 C 159.042969 201.898438 158.667969 201.292969 158.3125 200.671875 C 157.957031 200.054688 157.625 199.425781 157.308594 198.785156 C 156.996094 198.144531 156.703125 197.492188 156.429688 196.832031 C 156.160156 196.171875 155.90625 195.503906 155.679688 194.828125 C 155.449219 194.15625 155.242188 193.472656 155.058594 192.78125 C 154.871094 192.09375 154.707031 191.398438 154.570312 190.699219 C 154.429688 190 154.308594 189.296875 154.214844 188.589844 C 154.121094 187.882812 154.046875 187.171875 153.996094 186.460938 C 153.949219 185.75 153.921875 185.035156 153.917969 184.324219 C 153.914062 183.609375 153.933594 182.898438 153.976562 182.183594 C 154.019531 181.472656 154.082031 180.761719 154.171875 180.054688 C 154.257812 179.347656 154.371094 178.640625 154.503906 177.941406 C 154.636719 177.238281 154.792969 176.542969 154.96875 175.851562 C 155.148438 175.160156 155.347656 174.476562 155.570312 173.800781 C 155.792969 173.121094 156.035156 172.453125 156.300781 171.789062 C 156.566406 171.125 156.855469 170.472656 157.160156 169.828125 C 157.46875 169.1875 157.796875 168.550781 158.144531 167.929688 C 158.492188 167.308594 158.859375 166.695312 159.25 166.097656 C 159.636719 165.496094 160.042969 164.910156 160.46875 164.339844 C 160.894531 163.765625 161.335938 163.207031 161.796875 162.664062 C 162.257812 162.117188 162.738281 161.589844 163.234375 161.074219 C 163.726562 160.5625 164.238281 160.066406 164.765625 159.585938 C 165.292969 159.105469 165.835938 158.640625 166.394531 158.195312 C 166.949219 157.75 167.523438 157.320312 168.105469 156.914062 C 168.691406 156.503906 169.289062 156.113281 169.898438 155.742188 C 170.507812 155.375 171.128906 155.023438 171.761719 154.691406 C 172.394531 154.363281 173.035156 154.050781 173.6875 153.761719 C 174.339844 153.472656 175 153.207031 175.671875 152.960938 C 176.339844 152.710938 177.019531 152.488281 177.703125 152.285156 C 178.386719 152.082031 179.074219 151.902344 179.769531 151.742188 C 180.46875 151.582031 181.167969 151.449219 181.871094 151.335938 C 182.574219 151.21875 183.28125 151.128906 183.992188 151.0625 C 184.703125 150.992188 185.414062 150.949219 186.128906 150.925781 C 186.84375 150.90625 187.554688 150.90625 188.269531 150.929688 C 188.980469 150.953125 189.691406 151 190.402344 151.070312 C 191.113281 151.140625 191.820312 151.230469 192.523438 151.347656 C 193.230469 151.460938 193.929688 151.597656 194.625 151.757812 C 195.320312 151.917969 196.007812 152.101562 196.691406 152.304688 C 197.375 152.511719 198.050781 152.738281 198.722656 152.984375 C 199.390625 153.234375 200.050781 153.503906 200.703125 153.792969 C 201.351562 154.085938 201.996094 154.394531 202.625 154.726562 C 203.257812 155.058594 203.878906 155.410156 204.488281 155.785156 C 205.097656 156.15625 205.691406 156.546875 206.277344 156.957031 C 206.859375 157.367188 207.429688 157.796875 207.984375 158.242188 C 208.542969 158.691406 209.082031 159.152344 209.609375 159.636719 C 210.136719 160.117188 210.644531 160.617188 211.140625 161.132812 C 211.632812 161.644531 212.113281 162.175781 212.570312 162.722656 C 213.03125 163.265625 213.472656 163.828125 213.898438 164.398438 C 214.320312 164.972656 214.726562 165.5625 215.113281 166.160156 C 215.5 166.761719 215.867188 167.371094 216.210938 167.996094 C 216.558594 168.621094 216.886719 169.253906 217.191406 169.898438 C 217.496094 170.542969 217.78125 171.195312 218.046875 171.859375 C 218.308594 172.523438 218.550781 173.195312 218.773438 173.871094 C 218.992188 174.550781 219.191406 175.234375 219.371094 175.925781 C 219.546875 176.617188 219.699219 177.3125 219.832031 178.015625 C 219.964844 178.71875 220.074219 179.421875 220.160156 180.128906 C 220.246094 180.839844 220.308594 181.546875 220.347656 182.261719 C 220.390625 182.972656 220.40625 183.6875 220.402344 184.398438 C 220.398438 185.113281 220.367188 185.824219 220.316406 186.539062 C 220.265625 187.25 220.191406 187.957031 220.09375 188.664062 C 220 189.371094 219.878906 190.074219 219.738281 190.773438 C 219.59375 191.472656 219.429688 192.167969 219.242188 192.855469 C 219.058594 193.546875 218.847656 194.226562 218.617188 194.902344 C 218.386719 195.578125 218.132812 196.246094 217.859375 196.902344 C 217.585938 197.5625 217.292969 198.210938 216.976562 198.851562 C 216.660156 199.492188 216.324219 200.121094 215.96875 200.738281 C 215.613281 201.359375 215.238281 201.964844 214.84375 202.558594 C 214.449219 203.152344 214.035156 203.734375 213.601562 204.300781 C 213.167969 204.867188 212.71875 205.421875 212.25 205.960938 C 211.785156 206.5 211.296875 207.023438 210.796875 207.527344 C 210.296875 208.035156 209.777344 208.527344 209.246094 209 C 208.710938 209.476562 208.164062 209.929688 207.601562 210.371094 C 207.039062 210.808594 206.460938 211.230469 205.871094 211.628906 C 205.28125 212.03125 204.679688 212.414062 204.066406 212.777344 C 203.449219 213.140625 202.824219 213.484375 202.1875 213.804688 C 201.550781 214.128906 200.90625 214.429688 200.25 214.710938 C 199.59375 214.992188 198.929688 215.25 198.257812 215.488281 C 197.585938 215.726562 196.90625 215.945312 196.21875 216.136719 C 195.53125 216.332031 194.839844 216.503906 194.144531 216.65625 C 193.445312 216.804688 192.742188 216.933594 192.039062 217.035156 C 191.332031 217.140625 190.625 217.222656 189.914062 217.28125 C 189.203125 217.339844 188.488281 217.378906 187.777344 217.390625 C 187.0625 217.402344 186.347656 217.394531 185.636719 217.363281 C 184.925781 217.328125 184.214844 217.273438 183.503906 217.195312 C 182.792969 217.117188 182.089844 217.015625 181.386719 216.890625 C 180.683594 216.765625 179.984375 216.621094 179.292969 216.453125 C 178.597656 216.28125 177.910156 216.09375 177.230469 215.878906 C 176.550781 215.664062 175.875 215.429688 175.210938 215.175781 C 174.542969 214.917969 173.886719 214.640625 173.238281 214.339844 C 172.59375 214.042969 171.953125 213.722656 171.328125 213.382812 C 170.699219 213.042969 170.082031 212.683594 169.480469 212.304688 Z M 169.480469 212.304688 " fill-opacity="1" fill-rule="nonzero"/><path fill="#ffffff" d="M 326.277344 94.351562 C 326.089844 93.460938 325.632812 92.746094 324.90625 92.207031 C 320.964844 86.304688 316.660156 80.679688 312 75.328125 L 341.386719 35.167969 C 341.679688 34.769531 341.882812 34.332031 342 33.855469 C 342.117188 33.375 342.136719 32.894531 342.0625 32.40625 C 341.984375 31.921875 341.820312 31.46875 341.566406 31.046875 C 341.308594 30.625 340.984375 30.269531 340.585938 29.980469 C 340.1875 29.6875 339.75 29.484375 339.273438 29.367188 C 338.792969 29.25 338.3125 29.230469 337.824219 29.304688 C 337.339844 29.378906 336.886719 29.546875 336.464844 29.800781 C 336.042969 30.058594 335.6875 30.382812 335.398438 30.78125 L 306.902344 69.722656 C 304.46875 67.164062 301.957031 64.683594 299.363281 62.285156 C 296.773438 59.886719 294.105469 57.570312 291.367188 55.34375 C 288.628906 53.113281 285.820312 50.972656 282.945312 48.921875 C 280.070312 46.871094 277.132812 44.910156 274.136719 43.046875 C 271.136719 41.183594 268.082031 39.414062 264.96875 37.742188 C 261.855469 36.074219 258.695312 34.503906 255.484375 33.03125 C 252.273438 31.5625 249.019531 30.195312 245.71875 28.933594 C 242.421875 27.667969 239.085938 26.511719 235.714844 25.460938 C 232.34375 24.410156 228.941406 23.464844 225.511719 22.628906 C 222.078125 21.796875 218.625 21.070312 215.148438 20.453125 C 211.667969 19.835938 208.175781 19.332031 204.664062 18.9375 C 201.15625 18.542969 197.636719 18.261719 194.109375 18.089844 C 190.582031 17.921875 187.050781 17.863281 183.519531 17.914062 C 179.988281 17.96875 176.464844 18.136719 172.941406 18.414062 C 169.421875 18.691406 165.914062 19.078125 162.417969 19.578125 C 158.921875 20.078125 155.445312 20.691406 151.988281 21.410156 C 148.53125 22.132812 145.097656 22.960938 141.695312 23.902344 C 138.289062 24.839844 134.917969 25.886719 131.578125 27.039062 C 128.242188 28.191406 124.941406 29.449219 121.683594 30.8125 C 118.425781 32.175781 115.214844 33.640625 112.050781 35.207031 C 108.882812 36.773438 105.773438 38.441406 102.710938 40.203125 C 99.652344 41.96875 96.652344 43.828125 93.710938 45.78125 C 90.769531 47.738281 87.894531 49.785156 85.082031 51.921875 C 82.269531 54.058594 79.53125 56.285156 76.859375 58.59375 C 74.1875 60.90625 71.59375 63.300781 69.078125 65.777344 C 66.558594 68.253906 64.121094 70.808594 61.765625 73.4375 C 59.410156 76.070312 57.140625 78.773438 54.957031 81.550781 C 52.773438 84.324219 50.675781 87.167969 48.675781 90.074219 C 46.671875 92.984375 44.761719 95.953125 42.945312 98.980469 C 41.128906 102.011719 39.414062 105.09375 37.792969 108.234375 C 36.175781 111.371094 34.65625 114.558594 33.238281 117.792969 C 31.824219 121.03125 30.511719 124.304688 29.300781 127.625 C 28.09375 130.945312 26.992188 134.296875 25.996094 137.683594 C 25 141.074219 24.113281 144.492188 23.332031 147.933594 C 22.554688 151.378906 21.886719 154.847656 21.328125 158.332031 C 20.769531 161.820312 20.320312 165.324219 19.984375 168.839844 C 19.648438 172.355469 19.421875 175.875 19.3125 179.40625 C 19.199219 182.9375 19.199219 186.464844 19.308594 189.996094 C 19.421875 193.527344 19.644531 197.050781 19.980469 200.566406 C 20.316406 204.082031 20.761719 207.582031 21.320312 211.070312 C 21.878906 214.558594 22.546875 218.023438 23.324219 221.46875 C 24.101562 224.914062 24.988281 228.332031 25.984375 231.71875 C 26.976562 235.109375 28.078125 238.460938 29.289062 241.78125 C 30.496094 245.097656 31.808594 248.375 33.222656 251.613281 C 34.640625 254.847656 36.15625 258.035156 37.777344 261.175781 C 39.394531 264.3125 41.109375 267.398438 42.925781 270.425781 C 44.738281 273.457031 46.648438 276.425781 48.652344 279.335938 C 50.65625 282.246094 52.75 285.085938 54.933594 287.863281 C 57.117188 290.640625 59.382812 293.34375 61.738281 295.972656 C 64.09375 298.605469 66.53125 301.160156 69.050781 303.636719 C 71.566406 306.113281 74.160156 308.507812 76.828125 310.820312 C 79.5 313.132812 82.238281 315.359375 85.050781 317.496094 C 87.863281 319.636719 90.738281 321.683594 93.679688 323.636719 C 96.621094 325.59375 99.621094 327.453125 102.679688 329.21875 C 105.738281 330.984375 108.851562 332.648438 112.015625 334.21875 C 115.179688 335.785156 118.390625 337.25 121.648438 338.613281 C 124.90625 339.976562 128.203125 341.234375 131.542969 342.390625 C 134.878906 343.542969 138.25 344.589844 141.65625 345.53125 C 145.0625 346.46875 148.492188 347.300781 151.949219 348.023438 C 155.40625 348.746094 158.882812 349.355469 162.378906 349.859375 C 165.875 350.359375 169.382812 350.75 172.902344 351.027344 C 176.425781 351.304688 179.949219 351.472656 183.480469 351.527344 C 187.011719 351.582031 190.542969 351.523438 194.070312 351.351562 C 197.597656 351.183594 201.117188 350.902344 204.625 350.507812 C 208.136719 350.117188 211.628906 349.609375 215.109375 348.996094 C 218.585938 348.378906 222.039062 347.65625 225.472656 346.820312 C 228.902344 345.988281 232.304688 345.042969 235.679688 343.992188 C 239.050781 342.941406 242.386719 341.785156 245.683594 340.523438 C 248.980469 339.261719 252.238281 337.894531 255.449219 336.425781 C 258.660156 334.957031 261.820312 333.386719 264.933594 331.71875 C 268.046875 330.046875 271.101562 328.28125 274.101562 326.417969 C 277.101562 324.550781 280.039062 322.59375 282.914062 320.542969 C 285.789062 318.492188 288.597656 316.355469 291.335938 314.125 C 294.078125 311.894531 296.742188 309.582031 299.335938 307.183594 C 301.929688 304.785156 304.441406 302.308594 306.878906 299.75 C 309.3125 297.191406 311.664062 294.558594 313.933594 291.851562 C 316.199219 289.144531 318.378906 286.367188 320.472656 283.523438 C 322.5625 280.675781 324.5625 277.765625 326.46875 274.792969 C 328.375 271.820312 330.1875 268.792969 331.902344 265.703125 C 333.617188 262.617188 335.230469 259.476562 336.746094 256.285156 C 338.261719 253.097656 339.671875 249.863281 340.984375 246.582031 C 342.292969 243.300781 343.496094 239.984375 344.59375 236.625 C 345.695312 233.269531 346.6875 229.882812 347.570312 226.460938 C 348.453125 223.042969 349.226562 219.597656 349.890625 216.128906 C 350.558594 212.664062 351.113281 209.175781 351.554688 205.671875 C 352 202.167969 352.332031 198.652344 352.550781 195.128906 C 352.769531 191.605469 352.878906 188.074219 352.875 184.542969 C 352.871094 181.011719 352.757812 177.484375 352.527344 173.960938 C 352.300781 170.433594 351.960938 166.921875 351.511719 163.417969 C 351.058594 159.917969 350.496094 156.429688 349.824219 152.964844 C 349.152344 149.496094 348.371094 146.054688 347.480469 142.636719 C 346.589844 139.21875 345.589844 135.832031 344.484375 132.480469 C 343.378906 129.125 342.167969 125.808594 340.851562 122.53125 C 339.535156 119.253906 338.113281 116.023438 336.59375 112.835938 C 335.070312 109.648438 333.449219 106.511719 331.730469 103.429688 C 330.007812 100.34375 328.191406 97.320312 326.277344 94.351562 Z M 187.128906 342.554688 C 183.863281 342.554688 180.601562 342.457031 177.34375 342.253906 C 174.082031 342.054688 170.832031 341.753906 167.59375 341.351562 C 164.351562 340.953125 161.128906 340.449219 157.917969 339.851562 C 154.707031 339.25 151.519531 338.550781 148.355469 337.753906 C 145.1875 336.953125 142.050781 336.058594 138.9375 335.066406 C 135.828125 334.074219 132.75 332.988281 129.707031 331.804688 C 126.664062 330.621094 123.660156 329.347656 120.695312 327.976562 C 117.730469 326.609375 114.8125 325.152344 111.9375 323.601562 C 109.0625 322.054688 106.238281 320.417969 103.464844 318.691406 C 100.691406 316.96875 97.976562 315.160156 95.3125 313.269531 C 92.652344 311.375 90.050781 309.40625 87.511719 307.351562 C 84.972656 305.296875 82.5 303.167969 80.09375 300.964844 C 77.683594 298.757812 75.347656 296.480469 73.082031 294.128906 C 70.816406 291.777344 68.625 289.359375 66.507812 286.875 C 64.390625 284.386719 62.351562 281.839844 60.394531 279.226562 C 58.433594 276.613281 56.558594 273.945312 54.761719 271.214844 C 52.96875 268.488281 51.261719 265.707031 49.640625 262.871094 C 48.015625 260.039062 46.484375 257.15625 45.042969 254.226562 C 43.597656 251.300781 42.246094 248.328125 40.984375 245.316406 C 39.726562 242.304688 38.5625 239.253906 37.488281 236.171875 C 36.417969 233.085938 35.445312 229.972656 34.566406 226.828125 C 33.6875 223.683594 32.90625 220.511719 32.226562 217.320312 C 31.542969 214.125 30.960938 210.914062 30.476562 207.6875 C 29.992188 204.457031 29.609375 201.214844 29.324219 197.964844 C 29.042969 194.710938 28.859375 191.453125 28.777344 188.1875 C 28.699219 184.921875 28.71875 181.660156 28.835938 178.394531 C 28.957031 175.132812 29.179688 171.878906 29.5 168.628906 C 29.824219 165.378906 30.246094 162.140625 30.765625 158.917969 C 31.289062 155.695312 31.910156 152.492188 32.632812 149.308594 C 33.351562 146.121094 34.167969 142.960938 35.085938 139.828125 C 36 136.695312 37.011719 133.589844 38.121094 130.519531 C 39.230469 127.449219 40.429688 124.414062 41.726562 121.417969 C 43.023438 118.417969 44.410156 115.464844 45.886719 112.554688 C 47.367188 109.644531 48.933594 106.78125 50.589844 103.964844 C 52.246094 101.152344 53.984375 98.390625 55.8125 95.683594 C 57.636719 92.976562 59.546875 90.328125 61.535156 87.742188 C 63.527344 85.152344 65.59375 82.628906 67.742188 80.167969 C 69.886719 77.707031 72.109375 75.316406 74.402344 72.992188 C 76.699219 70.667969 79.0625 68.417969 81.496094 66.242188 C 83.929688 64.0625 86.425781 61.964844 88.992188 59.941406 C 91.554688 57.921875 94.179688 55.980469 96.863281 54.117188 C 99.546875 52.257812 102.285156 50.484375 105.078125 48.792969 C 107.871094 47.101562 110.714844 45.5 113.605469 43.984375 C 116.5 42.46875 119.4375 41.046875 122.417969 39.714844 C 125.398438 38.378906 128.417969 37.140625 131.476562 35.996094 C 134.53125 34.847656 137.621094 33.796875 140.746094 32.84375 C 143.867188 31.886719 147.015625 31.03125 150.191406 30.269531 C 153.367188 29.511719 156.5625 28.851562 159.78125 28.289062 C 162.996094 27.726562 166.226562 27.261719 169.472656 26.898438 C 172.71875 26.539062 175.96875 26.277344 179.230469 26.113281 C 182.492188 25.953125 185.753906 25.894531 189.019531 25.933594 C 192.285156 25.976562 195.546875 26.117188 198.800781 26.359375 C 202.058594 26.601562 205.304688 26.945312 208.539062 27.386719 C 211.773438 27.832031 214.992188 28.375 218.195312 29.015625 C 221.394531 29.660156 224.574219 30.398438 227.730469 31.238281 C 230.886719 32.078125 234.011719 33.015625 237.109375 34.046875 C 240.207031 35.078125 243.269531 36.207031 246.296875 37.429688 C 249.324219 38.648438 252.3125 39.964844 255.257812 41.371094 C 258.207031 42.777344 261.105469 44.273438 263.960938 45.863281 C 266.8125 47.449219 269.617188 49.121094 272.367188 50.882812 C 275.117188 52.640625 277.8125 54.484375 280.449219 56.410156 C 283.082031 58.335938 285.65625 60.34375 288.171875 62.429688 C 290.683594 64.515625 293.128906 66.675781 295.507812 68.914062 C 297.886719 71.148438 300.191406 73.457031 302.429688 75.835938 L 291.859375 90.285156 C 291.378906 90.9375 291.140625 91.667969 291.140625 92.476562 L 291.226562 127.550781 L 279.152344 127.550781 C 278.660156 127.550781 278.1875 127.644531 277.730469 127.832031 C 277.277344 128.019531 276.875 128.289062 276.527344 128.636719 C 276.179688 128.984375 275.910156 129.386719 275.722656 129.84375 C 275.535156 130.296875 275.441406 130.769531 275.441406 131.261719 L 275.441406 199.882812 C 275.441406 200.375 275.535156 200.847656 275.722656 201.304688 C 275.910156 201.757812 276.179688 202.160156 276.527344 202.507812 C 276.875 202.855469 277.277344 203.125 277.730469 203.3125 C 278.1875 203.503906 278.660156 203.597656 279.152344 203.597656 L 291.46875 203.597656 L 291.53125 223.742188 C 291.53125 224.234375 291.625 224.707031 291.8125 225.160156 C 292.003906 225.617188 292.269531 226.019531 292.617188 226.367188 C 292.96875 226.714844 293.367188 226.984375 293.824219 227.171875 C 294.277344 227.359375 294.75 227.453125 295.246094 227.453125 C 295.738281 227.453125 296.210938 227.359375 296.664062 227.171875 C 297.121094 226.984375 297.523438 226.714844 297.871094 226.367188 C 298.21875 226.019531 298.484375 225.617188 298.675781 225.160156 C 298.863281 224.707031 298.957031 224.234375 298.957031 223.742188 L 298.894531 203.597656 L 311.378906 203.597656 C 311.871094 203.597656 312.34375 203.503906 312.800781 203.3125 C 313.253906 203.125 313.65625 202.855469 314.003906 202.507812 C 314.355469 202.160156 314.621094 201.757812 314.808594 201.304688 C 315 200.847656 315.09375 200.375 315.09375 199.882812 L 315.09375 131.261719 C 315.09375 130.769531 315 130.296875 314.808594 129.84375 C 314.621094 129.386719 314.355469 128.984375 314.003906 128.636719 C 313.65625 128.289062 313.253906 128.019531 312.800781 127.832031 C 312.34375 127.644531 311.871094 127.550781 311.378906 127.550781 L 298.648438 127.550781 L 298.566406 93.6875 L 307.515625 81.453125 C 311.773438 86.449219 315.707031 91.6875 319.320312 97.167969 L 319.363281 97.226562 C 319.4375 97.386719 319.523438 97.539062 319.617188 97.6875 C 323.824219 104.078125 327.539062 110.738281 330.769531 117.671875 C 334 124.601562 336.710938 131.734375 338.898438 139.0625 C 341.085938 146.390625 342.726562 153.839844 343.824219 161.410156 C 344.921875 168.980469 345.464844 176.589844 345.449219 184.238281 C 345.445312 186.828125 345.378906 189.417969 345.25 192.003906 C 345.117188 194.589844 344.925781 197.171875 344.667969 199.75 C 344.414062 202.328125 344.09375 204.898438 343.710938 207.457031 C 343.328125 210.019531 342.882812 212.570312 342.375 215.109375 C 341.867188 217.652344 341.300781 220.175781 340.667969 222.6875 C 340.035156 225.199219 339.34375 227.695312 338.589844 230.175781 C 337.835938 232.652344 337.023438 235.109375 336.148438 237.546875 C 335.273438 239.988281 334.339844 242.402344 333.347656 244.792969 C 332.355469 247.1875 331.304688 249.554688 330.195312 251.894531 C 329.085938 254.234375 327.921875 256.546875 326.699219 258.832031 C 325.476562 261.117188 324.199219 263.367188 322.867188 265.589844 C 321.535156 267.808594 320.148438 269.996094 318.710938 272.152344 C 317.269531 274.304688 315.777344 276.421875 314.234375 278.5 C 312.691406 280.582031 311.097656 282.621094 309.457031 284.625 C 307.8125 286.625 306.121094 288.585938 304.378906 290.503906 C 302.640625 292.425781 300.855469 294.300781 299.023438 296.132812 C 297.191406 297.964844 295.316406 299.75 293.398438 301.488281 C 291.480469 303.226562 289.519531 304.917969 287.515625 306.5625 C 285.515625 308.207031 283.472656 309.800781 281.394531 311.34375 C 279.3125 312.886719 277.195312 314.378906 275.042969 315.816406 C 272.890625 317.257812 270.703125 318.644531 268.480469 319.976562 C 266.261719 321.308594 264.007812 322.585938 261.722656 323.808594 C 259.441406 325.027344 257.128906 326.195312 254.785156 327.300781 C 252.445312 328.410156 250.078125 329.460938 247.6875 330.453125 C 245.292969 331.445312 242.878906 332.378906 240.441406 333.253906 C 238.003906 334.128906 235.542969 334.941406 233.066406 335.695312 C 230.585938 336.449219 228.09375 337.140625 225.582031 337.773438 C 223.070312 338.40625 220.542969 338.972656 218.003906 339.480469 C 215.460938 339.988281 212.910156 340.433594 210.351562 340.816406 C 207.789062 341.199219 205.21875 341.519531 202.640625 341.773438 C 200.0625 342.03125 197.480469 342.222656 194.894531 342.355469 C 192.308594 342.484375 189.71875 342.550781 187.128906 342.554688 Z M 282.867188 196.171875 L 282.867188 134.976562 L 294.804688 134.976562 C 294.855469 134.980469 294.894531 135.003906 294.945312 135.003906 L 294.953125 135.003906 C 295.003906 135.003906 295.046875 134.980469 295.09375 134.976562 L 307.667969 134.976562 L 307.667969 196.171875 Z M 282.867188 196.171875 " fill-opacity="1" fill-rule="nonzero"/><path fill="#ffffff" d="M 166.84375 296.792969 C 164.175781 296.3125 161.527344 295.734375 158.898438 295.0625 C 156.273438 294.390625 153.671875 293.625 151.097656 292.769531 C 148.523438 291.910156 145.984375 290.964844 143.476562 289.925781 C 140.972656 288.890625 138.503906 287.765625 136.078125 286.550781 C 133.652344 285.339844 131.269531 284.042969 128.9375 282.660156 C 126.601562 281.28125 124.320312 279.816406 122.089844 278.273438 C 119.859375 276.730469 117.6875 275.109375 115.570312 273.410156 C 113.457031 271.714844 111.402344 269.941406 109.414062 268.097656 C 107.425781 266.253906 105.503906 264.34375 103.648438 262.363281 C 101.796875 260.382812 100.015625 258.335938 98.308594 256.230469 C 96.597656 254.125 94.96875 251.960938 93.414062 249.734375 C 91.859375 247.511719 90.382812 245.238281 88.992188 242.910156 C 87.597656 240.582031 86.289062 238.210938 85.066406 235.789062 C 83.839844 233.367188 82.703125 230.90625 81.65625 228.40625 C 80.605469 225.90625 79.644531 223.367188 78.777344 220.800781 C 77.90625 218.230469 77.128906 215.632812 76.445312 213.007812 C 76.320312 212.53125 76.109375 212.097656 75.8125 211.707031 C 75.515625 211.3125 75.15625 210.992188 74.730469 210.746094 C 74.308594 210.496094 73.851562 210.335938 73.363281 210.269531 C 72.878906 210.199219 72.394531 210.230469 71.917969 210.351562 C 71.441406 210.476562 71.007812 210.683594 70.617188 210.980469 C 70.222656 211.277344 69.902344 211.636719 69.652344 212.0625 C 69.402344 212.484375 69.242188 212.941406 69.171875 213.425781 C 69.101562 213.914062 69.128906 214.394531 69.253906 214.871094 C 69.980469 217.667969 70.808594 220.433594 71.734375 223.167969 C 72.660156 225.90625 73.683594 228.605469 74.800781 231.269531 C 75.917969 233.933594 77.128906 236.554688 78.433594 239.132812 C 79.738281 241.707031 81.132812 244.238281 82.617188 246.714844 C 84.097656 249.195312 85.667969 251.617188 87.324219 253.984375 C 88.980469 256.351562 90.71875 258.65625 92.539062 260.902344 C 94.355469 263.144531 96.253906 265.320312 98.226562 267.429688 C 100.203125 269.539062 102.246094 271.574219 104.367188 273.539062 C 106.484375 275.503906 108.671875 277.390625 110.921875 279.195312 C 113.175781 281.003906 115.488281 282.730469 117.863281 284.375 C 120.238281 286.019531 122.671875 287.578125 125.15625 289.050781 C 127.640625 290.519531 130.175781 291.902344 132.761719 293.195312 C 135.34375 294.484375 137.972656 295.683594 140.640625 296.789062 C 143.308594 297.894531 146.015625 298.902344 148.753906 299.8125 C 151.496094 300.726562 154.265625 301.542969 157.066406 302.257812 C 159.863281 302.972656 162.683594 303.589844 165.527344 304.105469 C 165.746094 304.144531 165.96875 304.164062 166.191406 304.164062 C 166.65625 304.160156 167.105469 304.078125 167.535156 303.910156 C 167.96875 303.738281 168.355469 303.5 168.695312 303.1875 C 169.039062 302.871094 169.3125 302.507812 169.515625 302.09375 C 169.722656 301.675781 169.84375 301.238281 169.886719 300.777344 C 169.925781 300.316406 169.882812 299.863281 169.753906 299.417969 C 169.625 298.972656 169.417969 298.5625 169.136719 298.195312 C 168.855469 297.828125 168.519531 297.523438 168.121094 297.28125 C 167.726562 297.039062 167.300781 296.878906 166.84375 296.792969 Z M 166.84375 296.792969 " fill-opacity="1" fill-rule="nonzero"/><path fill="#ffffff" d="M 165.4375 289.382812 C 165.6875 289.433594 165.9375 289.460938 166.191406 289.460938 C 166.652344 289.457031 167.097656 289.375 167.523438 289.210938 C 167.953125 289.042969 168.335938 288.804688 168.679688 288.496094 C 169.019531 288.1875 169.292969 287.828125 169.5 287.417969 C 169.707031 287.007812 169.832031 286.574219 169.878906 286.117188 C 169.925781 285.660156 169.886719 285.210938 169.765625 284.769531 C 169.644531 284.324219 169.449219 283.917969 169.175781 283.546875 C 168.902344 283.175781 168.574219 282.867188 168.1875 282.621094 C 167.800781 282.371094 167.382812 282.203125 166.933594 282.109375 C 164.738281 281.660156 162.558594 281.132812 160.398438 280.535156 C 158.238281 279.9375 156.101562 279.269531 153.988281 278.527344 C 151.871094 277.785156 149.785156 276.972656 147.722656 276.085938 C 145.664062 275.203125 143.636719 274.253906 141.640625 273.234375 C 139.644531 272.210938 137.683594 271.125 135.761719 269.972656 C 133.839844 268.820312 131.957031 267.605469 130.117188 266.328125 C 128.277344 265.046875 126.480469 263.707031 124.730469 262.308594 C 122.980469 260.90625 121.28125 259.449219 119.628906 257.933594 C 117.976562 256.417969 116.378906 254.847656 114.832031 253.226562 C 113.289062 251.601562 111.800781 249.929688 110.367188 248.203125 C 108.933594 246.480469 107.558594 244.710938 106.246094 242.894531 C 104.933594 241.078125 103.683594 239.21875 102.496094 237.320312 C 101.308594 235.417969 100.1875 233.480469 99.128906 231.503906 C 98.070312 229.527344 97.082031 227.515625 96.160156 225.472656 C 95.242188 223.429688 94.390625 221.355469 93.609375 219.257812 C 92.828125 217.15625 92.117188 215.03125 91.480469 212.882812 C 91.339844 212.410156 91.113281 211.984375 90.800781 211.601562 C 90.492188 211.21875 90.121094 210.910156 89.6875 210.675781 C 89.253906 210.441406 88.792969 210.296875 88.300781 210.246094 C 87.8125 210.195312 87.332031 210.242188 86.859375 210.382812 C 86.386719 210.523438 85.960938 210.746094 85.578125 211.058594 C 85.195312 211.367188 84.886719 211.738281 84.652344 212.171875 C 84.417969 212.605469 84.277344 213.066406 84.222656 213.554688 C 84.171875 214.046875 84.21875 214.527344 84.359375 215 C 85.042969 217.308594 85.804688 219.589844 86.644531 221.847656 C 87.484375 224.105469 88.398438 226.332031 89.390625 228.527344 C 90.378906 230.722656 91.441406 232.882812 92.578125 235.007812 C 93.714844 237.132812 94.921875 239.214844 96.195312 241.257812 C 97.472656 243.300781 98.816406 245.296875 100.226562 247.246094 C 101.640625 249.199219 103.113281 251.101562 104.65625 252.953125 C 106.195312 254.804688 107.792969 256.605469 109.457031 258.347656 C 111.117188 260.09375 112.835938 261.777344 114.609375 263.40625 C 116.382812 265.035156 118.210938 266.601562 120.09375 268.105469 C 121.972656 269.609375 123.902344 271.050781 125.878906 272.425781 C 127.855469 273.800781 129.878906 275.105469 131.945312 276.34375 C 134.011719 277.582031 136.117188 278.75 138.261719 279.847656 C 140.40625 280.941406 142.585938 281.964844 144.796875 282.914062 C 147.011719 283.863281 149.253906 284.734375 151.527344 285.53125 C 153.800781 286.332031 156.097656 287.050781 158.417969 287.691406 C 160.738281 288.335938 163.078125 288.898438 165.4375 289.382812 Z M 165.4375 289.382812 " fill-opacity="1" fill-rule="nonzero"/><path fill="#ffffff" d="M 211.785156 184.238281 C 211.785156 183.429688 211.746094 182.625 211.667969 181.820312 C 211.585938 181.015625 211.46875 180.21875 211.3125 179.425781 C 211.152344 178.636719 210.957031 177.851562 210.722656 177.078125 C 210.488281 176.308594 210.21875 175.546875 209.910156 174.800781 C 209.601562 174.054688 209.253906 173.324219 208.875 172.613281 C 208.496094 171.902344 208.078125 171.210938 207.632812 170.539062 C 207.183594 169.867188 206.703125 169.21875 206.191406 168.59375 C 205.675781 167.96875 205.136719 167.371094 204.566406 166.800781 C 203.996094 166.230469 203.398438 165.6875 202.773438 165.175781 C 202.148438 164.664062 201.5 164.183594 200.828125 163.734375 C 200.15625 163.285156 199.464844 162.871094 198.753906 162.492188 C 198.042969 162.109375 197.3125 161.765625 196.566406 161.457031 C 195.820312 161.148438 195.0625 160.875 194.289062 160.640625 C 193.515625 160.40625 192.734375 160.210938 191.941406 160.050781 C 191.148438 159.894531 190.351562 159.777344 189.546875 159.695312 C 188.746094 159.617188 187.9375 159.578125 187.132812 159.578125 C 186.324219 159.578125 185.519531 159.617188 184.714844 159.695312 C 183.910156 159.777344 183.113281 159.894531 182.320312 160.050781 C 181.527344 160.207031 180.746094 160.40625 179.972656 160.640625 C 179.199219 160.875 178.441406 161.144531 177.695312 161.453125 C 176.949219 161.761719 176.21875 162.109375 175.507812 162.488281 C 174.796875 162.867188 174.105469 163.285156 173.433594 163.730469 C 172.761719 164.179688 172.113281 164.660156 171.488281 165.171875 C 170.863281 165.6875 170.265625 166.226562 169.695312 166.796875 C 169.125 167.367188 168.582031 167.964844 168.070312 168.589844 C 167.558594 169.214844 167.078125 169.863281 166.628906 170.535156 C 166.179688 171.207031 165.765625 171.898438 165.386719 172.609375 C 165.003906 173.320312 164.660156 174.050781 164.351562 174.796875 C 164.042969 175.542969 163.769531 176.300781 163.535156 177.074219 C 163.300781 177.847656 163.105469 178.628906 162.945312 179.421875 C 162.789062 180.214844 162.671875 181.011719 162.59375 181.816406 C 162.511719 182.621094 162.472656 183.425781 162.472656 184.234375 C 162.472656 185.039062 162.511719 185.84375 162.589844 186.648438 C 162.671875 187.453125 162.789062 188.25 162.945312 189.042969 C 163.105469 189.835938 163.300781 190.617188 163.535156 191.390625 C 163.769531 192.164062 164.039062 192.921875 164.347656 193.667969 C 164.660156 194.414062 165.003906 195.144531 165.382812 195.855469 C 165.765625 196.566406 166.179688 197.257812 166.628906 197.929688 C 167.078125 198.601562 167.558594 199.25 168.070312 199.875 C 168.582031 200.5 169.121094 201.097656 169.695312 201.667969 C 170.265625 202.238281 170.863281 202.78125 171.488281 203.292969 C 172.109375 203.804688 172.757812 204.285156 173.429688 204.734375 C 174.101562 205.183594 174.792969 205.597656 175.503906 205.976562 C 176.21875 206.359375 176.945312 206.703125 177.691406 207.011719 C 178.4375 207.320312 179.199219 207.59375 179.972656 207.828125 C 180.742188 208.0625 181.527344 208.257812 182.320312 208.414062 C 183.109375 208.574219 183.910156 208.691406 184.710938 208.769531 C 185.515625 208.851562 186.320312 208.890625 187.128906 208.890625 C 187.9375 208.886719 188.742188 208.847656 189.542969 208.769531 C 190.347656 208.6875 191.144531 208.570312 191.9375 208.410156 C 192.726562 208.253906 193.511719 208.058594 194.28125 207.824219 C 195.054688 207.585938 195.8125 207.316406 196.558594 207.007812 C 197.304688 206.695312 198.035156 206.351562 198.746094 205.972656 C 199.457031 205.589844 200.148438 205.175781 200.820312 204.726562 C 201.492188 204.277344 202.136719 203.796875 202.761719 203.285156 C 203.386719 202.773438 203.984375 202.234375 204.554688 201.660156 C 205.125 201.089844 205.667969 200.492188 206.179688 199.871094 C 206.691406 199.246094 207.171875 198.597656 207.621094 197.925781 C 208.070312 197.257812 208.484375 196.566406 208.863281 195.855469 C 209.246094 195.140625 209.589844 194.414062 209.898438 193.667969 C 210.210938 192.921875 210.480469 192.164062 210.714844 191.390625 C 210.953125 190.617188 211.148438 189.835938 211.304688 189.046875 C 211.464844 188.253906 211.582031 187.457031 211.664062 186.652344 C 211.742188 185.851562 211.785156 185.042969 211.785156 184.238281 Z M 187.128906 201.464844 C 186.566406 201.464844 186 201.4375 185.441406 201.378906 C 184.878906 201.324219 184.320312 201.242188 183.769531 201.132812 C 183.214844 201.023438 182.667969 200.886719 182.128906 200.722656 C 181.589844 200.558594 181.058594 200.367188 180.535156 200.152344 C 180.015625 199.933594 179.507812 199.695312 179.007812 199.429688 C 178.511719 199.160156 178.027344 198.871094 177.558594 198.558594 C 177.089844 198.246094 176.636719 197.910156 176.203125 197.550781 C 175.765625 197.195312 175.347656 196.816406 174.949219 196.417969 C 174.550781 196.015625 174.171875 195.597656 173.8125 195.164062 C 173.457031 194.726562 173.121094 194.273438 172.808594 193.804688 C 172.496094 193.335938 172.203125 192.851562 171.9375 192.355469 C 171.671875 191.859375 171.433594 191.347656 171.214844 190.828125 C 171 190.304688 170.8125 189.773438 170.648438 189.234375 C 170.484375 188.695312 170.347656 188.148438 170.238281 187.59375 C 170.125 187.042969 170.042969 186.484375 169.988281 185.921875 C 169.933594 185.363281 169.90625 184.800781 169.90625 184.234375 C 169.90625 183.671875 169.933594 183.109375 169.988281 182.546875 C 170.042969 181.984375 170.128906 181.425781 170.238281 180.875 C 170.347656 180.320312 170.484375 179.773438 170.648438 179.234375 C 170.8125 178.695312 171.003906 178.164062 171.21875 177.644531 C 171.433594 177.121094 171.675781 176.613281 171.941406 176.113281 C 172.207031 175.617188 172.496094 175.132812 172.808594 174.664062 C 173.125 174.195312 173.460938 173.742188 173.816406 173.308594 C 174.175781 172.871094 174.554688 172.453125 174.953125 172.054688 C 175.351562 171.65625 175.769531 171.277344 176.207031 170.921875 C 176.640625 170.5625 177.09375 170.226562 177.5625 169.914062 C 178.03125 169.601562 178.515625 169.308594 179.011719 169.042969 C 179.511719 168.777344 180.019531 168.539062 180.542969 168.320312 C 181.0625 168.105469 181.59375 167.914062 182.132812 167.753906 C 182.671875 167.589844 183.21875 167.453125 183.773438 167.339844 C 184.328125 167.230469 184.882812 167.148438 185.445312 167.09375 C 186.007812 167.039062 186.570312 167.011719 187.132812 167.011719 C 187.699219 167.011719 188.261719 167.039062 188.820312 167.09375 C 189.382812 167.148438 189.941406 167.230469 190.492188 167.34375 C 191.046875 167.453125 191.59375 167.589844 192.132812 167.753906 C 192.671875 167.917969 193.203125 168.105469 193.726562 168.324219 C 194.246094 168.539062 194.757812 168.78125 195.253906 169.046875 C 195.75 169.3125 196.234375 169.601562 196.703125 169.914062 C 197.171875 170.226562 197.625 170.5625 198.0625 170.921875 C 198.496094 171.28125 198.914062 171.65625 199.3125 172.058594 C 199.710938 172.457031 200.089844 172.875 200.449219 173.308594 C 200.808594 173.746094 201.140625 174.199219 201.457031 174.667969 C 201.769531 175.136719 202.058594 175.621094 202.324219 176.117188 C 202.589844 176.613281 202.832031 177.125 203.046875 177.644531 C 203.261719 178.167969 203.453125 178.695312 203.617188 179.238281 C 203.78125 179.777344 203.917969 180.324219 204.027344 180.875 C 204.136719 181.429688 204.21875 181.988281 204.277344 182.550781 C 204.332031 183.109375 204.359375 183.671875 204.359375 184.238281 C 204.359375 184.800781 204.328125 185.363281 204.273438 185.925781 C 204.21875 186.488281 204.132812 187.042969 204.023438 187.597656 C 203.914062 188.148438 203.777344 188.695312 203.613281 189.234375 C 203.449219 189.777344 203.257812 190.304688 203.042969 190.828125 C 202.824219 191.347656 202.585938 191.855469 202.316406 192.355469 C 202.050781 192.851562 201.761719 193.335938 201.449219 193.804688 C 201.132812 194.273438 200.800781 194.726562 200.441406 195.160156 C 200.082031 195.597656 199.703125 196.015625 199.304688 196.414062 C 198.90625 196.8125 198.488281 197.191406 198.054688 197.546875 C 197.617188 197.90625 197.164062 198.242188 196.695312 198.554688 C 196.226562 198.867188 195.742188 199.160156 195.246094 199.425781 C 194.75 199.691406 194.238281 199.933594 193.71875 200.148438 C 193.199219 200.363281 192.667969 200.554688 192.128906 200.71875 C 191.589844 200.882812 191.042969 201.019531 190.488281 201.128906 C 189.933594 201.242188 189.378906 201.324219 188.816406 201.378906 C 188.253906 201.433594 187.691406 201.464844 187.128906 201.464844 Z M 187.128906 201.464844 " fill-opacity="1" fill-rule="nonzero"/></svg>