<svg xmlns="http://www.w3.org/2000/svg" xmlns:xlink="http://www.w3.org/1999/xlink" width="500" zoomAndPan="magnify" viewBox="0 0 375 374.999991" height="500" preserveAspectRatio="xMidYMid meet" version="1.2"><defs><clipPath id="39666371c3"><path d="M 179 161 L 196 161 L 196 312.796875 L 179 312.796875 Z M 179 161 "/></clipPath><clipPath id="2e3c0b19b5"><path d="M 179 62.296875 L 196 62.296875 L 196 124 L 179 124 Z M 179 62.296875 "/></clipPath><clipPath id="38055dd24b"><path d="M 80 293 L 98 293 L 98 312.796875 L 80 312.796875 Z M 80 293 "/></clipPath><clipPath id="8f2d41302a"><path d="M 80 62.296875 L 98 62.296875 L 98 256 L 80 256 Z M 80 62.296875 "/></clipPath><clipPath id="d322b37c37"><path d="M 58.058594 260 L 120 260 L 120 290 L 58.058594 290 Z M 58.058594 260 "/></clipPath><clipPath id="c3c4486a60"><path d="M 277 62.296875 L 295 62.296875 L 295 179 L 277 179 Z M 277 62.296875 "/></clipPath><clipPath id="e17e3ab0f0"><path d="M 255 182 L 316.808594 182 L 316.808594 213 L 255 213 Z M 255 182 "/></clipPath><clipPath id="135eb85bd9"><path d="M 277 216 L 295 216 L 295 312.796875 L 277 312.796875 Z M 277 216 "/></clipPath></defs><g id="5a741011eb"><g clip-rule="nonzero" clip-path="url(#39666371c3)"><path style=" stroke:none;fill-rule:nonzero;fill:#848484;fill-opacity:1;" d="M 179.132812 304.257812 C 179.132812 308.832031 182.855469 312.554688 187.433594 312.554688 C 192.011719 312.554688 195.734375 308.832031 195.734375 304.257812 L 195.734375 161.03125 L 179.136719 161.03125 L 179.136719 304.257812 Z M 179.132812 304.257812 "/></g><g clip-rule="nonzero" clip-path="url(#2e3c0b19b5)"><path style=" stroke:none;fill-rule:nonzero;fill:#848484;fill-opacity:1;" d="M 195.734375 70.597656 C 195.734375 66.019531 192.011719 62.296875 187.433594 62.296875 C 182.855469 62.296875 179.132812 66.019531 179.132812 70.597656 L 179.132812 123.074219 L 195.734375 123.074219 Z M 195.734375 70.597656 "/></g><path style=" stroke:none;fill-rule:nonzero;fill:#848484;fill-opacity:1;" d="M 211.65625 127.3125 L 163.210938 127.3125 C 159.617188 127.3125 156.691406 130.238281 156.691406 133.835938 L 156.691406 150.273438 C 156.691406 153.871094 159.617188 156.796875 163.210938 156.796875 L 211.65625 156.796875 C 215.253906 156.796875 218.179688 153.871094 218.179688 150.273438 L 218.179688 133.835938 C 218.179688 130.238281 215.253906 127.3125 211.65625 127.3125 Z M 211.65625 127.3125 "/><g clip-rule="nonzero" clip-path="url(#38055dd24b)"><path style=" stroke:none;fill-rule:nonzero;fill:#848484;fill-opacity:1;" d="M 80.605469 304.257812 C 80.605469 308.832031 84.328125 312.554688 88.90625 312.554688 C 93.484375 312.554688 97.207031 308.832031 97.207031 304.257812 L 97.207031 293.78125 L 80.609375 293.78125 L 80.609375 304.257812 Z M 80.605469 304.257812 "/></g><g clip-rule="nonzero" clip-path="url(#8f2d41302a)"><path style=" stroke:none;fill-rule:nonzero;fill:#848484;fill-opacity:1;" d="M 97.207031 70.597656 C 97.207031 66.019531 93.484375 62.296875 88.90625 62.296875 C 84.328125 62.296875 80.605469 66.019531 80.605469 70.597656 L 80.605469 255.820312 L 97.203125 255.820312 L 97.203125 70.597656 Z M 97.207031 70.597656 "/></g><g clip-rule="nonzero" clip-path="url(#d322b37c37)"><path style=" stroke:none;fill-rule:nonzero;fill:#848484;fill-opacity:1;" d="M 113.128906 260.0625 L 64.683594 260.0625 C 61.089844 260.0625 58.160156 262.988281 58.160156 266.582031 L 58.160156 283.023438 C 58.160156 286.617188 61.089844 289.542969 64.683594 289.542969 L 113.128906 289.542969 C 116.726562 289.542969 119.652344 286.617188 119.652344 283.023438 L 119.652344 266.582031 C 119.652344 262.988281 116.722656 260.0625 113.128906 260.0625 Z M 113.128906 260.0625 "/></g><g clip-rule="nonzero" clip-path="url(#c3c4486a60)"><path style=" stroke:none;fill-rule:nonzero;fill:#848484;fill-opacity:1;" d="M 294.261719 70.597656 C 294.261719 66.019531 290.539062 62.296875 285.960938 62.296875 C 281.382812 62.296875 277.660156 66.019531 277.660156 70.597656 L 277.660156 178.480469 L 294.261719 178.480469 Z M 294.261719 70.597656 "/></g><g clip-rule="nonzero" clip-path="url(#e17e3ab0f0)"><path style=" stroke:none;fill-rule:nonzero;fill:#848484;fill-opacity:1;" d="M 310.183594 182.71875 L 261.738281 182.71875 C 258.144531 182.71875 255.214844 185.644531 255.214844 189.242188 L 255.214844 205.683594 C 255.214844 209.277344 258.144531 212.203125 261.738281 212.203125 L 310.183594 212.203125 C 313.78125 212.203125 316.707031 209.277344 316.707031 205.683594 L 316.707031 189.242188 C 316.707031 185.644531 313.78125 182.71875 310.183594 182.71875 Z M 310.183594 182.71875 "/></g><g clip-rule="nonzero" clip-path="url(#135eb85bd9)"><path style=" stroke:none;fill-rule:nonzero;fill:#848484;fill-opacity:1;" d="M 277.664062 304.257812 C 277.664062 308.832031 281.386719 312.554688 285.964844 312.554688 C 290.542969 312.554688 294.265625 308.832031 294.265625 304.257812 L 294.265625 216.441406 L 277.664062 216.441406 Z M 277.664062 304.257812 "/></g></g></svg>