<svg xmlns="http://www.w3.org/2000/svg" xmlns:xlink="http://www.w3.org/1999/xlink" width="1350" zoomAndPan="magnify" viewBox="0 0 1012.5 809.999993" height="1080" preserveAspectRatio="xMidYMid meet" version="1.2"><defs><clipPath id="a77d656a75"><path d="M 1 47.003906 L 1012 47.003906 L 1012 703 L 1 703 Z M 1 47.003906 "/></clipPath><clipPath id="6b627ffa30"><path d="M 338 395 L 679 395 L 679 762.902344 L 338 762.902344 Z M 338 395 "/></clipPath></defs><g id="fe965a2198"><g clip-rule="nonzero" clip-path="url(#a77d656a75)"><path style=" stroke:none;fill-rule:nonzero;fill:#272727;fill-opacity:1;" d="M 1011.585938 517.144531 C 1011.585938 431.078125 953.339844 358.019531 872.363281 337.207031 C 872.363281 335.171875 872.476562 333.136719 872.476562 331.101562 C 872.476562 174.578125 745.132812 47.230469 588.605469 47.230469 C 485.351562 47.230469 391.59375 102.761719 341.492188 191.203125 C 321.585938 182.042969 299.988281 177.292969 277.707031 177.292969 C 197.183594 177.292969 130.910156 239.492188 124.347656 318.320312 C 50.949219 349.082031 1.300781 422.144531 1.300781 502.894531 C 1.300781 605.8125 81.257812 693.574219 183.382812 702.847656 L 423.9375 702.847656 L 423.9375 646.414062 L 187.230469 646.414062 C 114.621094 639.289062 57.847656 576.40625 57.847656 502.894531 C 57.847656 439.898438 100.03125 383.351562 160.425781 365.371094 L 181.914062 359.035156 L 180.558594 334.269531 C 180.445312 333.25 180.445312 332.121094 180.445312 331.101562 C 180.445312 277.492188 224.097656 233.839844 277.707031 233.839844 C 298.96875 233.839844 319.210938 240.625 336.289062 253.632812 L 365.128906 275.457031 L 379.265625 242.09375 C 415.117188 158.066406 497.226562 103.777344 588.492188 103.777344 C 713.804688 103.777344 815.816406 205.792969 815.816406 331.101562 C 815.816406 339.132812 815.25 347.726562 814.234375 357.226562 L 810.953125 385.613281 L 839.339844 388.554688 C 905.273438 395.453125 954.925781 450.644531 954.925781 517.03125 C 954.925781 588.28125 896.90625 646.300781 825.65625 646.300781 L 593.582031 646.300781 L 593.582031 702.847656 L 825.882812 702.847656 C 928.347656 702.960938 1011.585938 619.609375 1011.585938 517.144531 Z M 1011.585938 517.144531 "/></g><g clip-rule="nonzero" clip-path="url(#6b627ffa30)"><path style=" stroke:none;fill-rule:nonzero;fill:#272727;fill-opacity:1;" d="M 480.488281 702.847656 L 480.488281 734.964844 C 480.714844 750.347656 493.265625 762.789062 508.761719 762.789062 C 524.367188 762.789062 537.035156 750.121094 537.035156 734.515625 L 537.035156 491.921875 L 630.339844 585.226562 C 641.421875 596.3125 659.292969 596.3125 670.375 585.226562 C 681.457031 574.144531 681.457031 556.273438 670.375 545.191406 L 528.777344 403.710938 C 528.667969 403.597656 528.667969 403.597656 528.554688 403.484375 C 523.464844 398.507812 516.453125 395.339844 508.761719 395.339844 C 501.070312 395.339844 494.058594 398.394531 488.96875 403.484375 C 488.855469 403.597656 488.855469 403.597656 488.742188 403.710938 L 347.261719 545.191406 C 336.175781 556.273438 336.175781 574.144531 347.261719 585.226562 C 352.800781 590.769531 360.039062 593.484375 367.277344 593.484375 C 374.515625 593.484375 381.753906 590.769531 387.296875 585.226562 L 480.601562 491.921875 L 480.601562 608.636719 C 480.601562 608.75 480.601562 608.976562 480.601562 609.089844 L 480.601562 702.847656 Z M 480.488281 702.847656 "/></g></g></svg>