<svg xmlns="http://www.w3.org/2000/svg" xmlns:xlink="http://www.w3.org/1999/xlink" width="500" zoomAndPan="magnify" viewBox="0 0 375 374.999991" height="500" preserveAspectRatio="xMidYMid meet" version="1.2"><defs><clipPath id="fd6763fb9f"><path d="M 72 16 L 105 16 L 105 51.90625 L 72 51.90625 Z M 72 16 "/></clipPath><clipPath id="c2977a7e86"><path d="M 61.101562 0 L 306.351562 0 L 306.351562 375 L 61.101562 375 Z M 61.101562 0 "/></clipPath></defs><g id="e2d55a68f7"><g clip-rule="nonzero" clip-path="url(#fd6763fb9f)"><path style=" stroke:none;fill-rule:nonzero;fill:#000000;fill-opacity:1;" d="M 76.976562 32.710938 C 80.046875 35.835938 82.242188 38.960938 84.4375 42.976562 C 94.679688 23.335938 107.117188 14.40625 104.484375 17.53125 C 96.144531 28.394531 90.4375 39.40625 84.875 51.90625 C 81.65625 45.953125 77.5625 38.066406 72.585938 36.429688 C 71.121094 34.941406 74.632812 31.371094 76.976562 32.710938 Z M 76.976562 32.710938 "/></g><g clip-rule="nonzero" clip-path="url(#c2977a7e86)"><path style=" stroke:none;fill-rule:nonzero;fill:#ff0000;fill-opacity:1;" d="M 306.214844 303.882812 L 306.214844 162.4375 L 183.726562 91.710938 L 114.148438 131.925781 L 114.148438 0 L 61.238281 0 L 61.238281 303.972656 L 183.726562 374.695312 L 306.214844 303.972656 Z M 114.0625 193.035156 L 183.636719 152.734375 L 253.304688 193.035156 L 253.304688 273.371094 L 183.636719 313.671875 L 114.0625 273.371094 Z M 114.0625 193.035156 "/></g></g></svg>