<svg xmlns="http://www.w3.org/2000/svg" xmlns:xlink="http://www.w3.org/1999/xlink" width="500" zoomAndPan="magnify" viewBox="0 0 375 374.999991" height="500" preserveAspectRatio="xMidYMid meet" version="1.2"><defs><filter x="0%" y="0%" width="100%" filterUnits="objectBoundingBox" id="5feb224204" height="100%"><feColorMatrix values="0 0 0 0 1 0 0 0 0 1 0 0 0 0 1 0 0 0 1 0" type="matrix" in="SourceGraphic"/></filter><clipPath id="e4221868d6"><path d="M 0 364 L 10 364 L 10 373.5 L 0 373.5 Z M 0 364 "/></clipPath><clipPath id="11f3910df4"><path d="M 60 364 L 71 364 L 71 373.5 L 60 373.5 Z M 60 364 "/></clipPath><clipPath id="2635c03cd4"><path d="M 121 364 L 132 364 L 132 373.5 L 121 373.5 Z M 121 364 "/></clipPath><clipPath id="aecc9fd584"><path d="M 182 364 L 193 364 L 193 373.5 L 182 373.5 Z M 182 364 "/></clipPath><clipPath id="046d0a7a2a"><path d="M 243 364 L 254 364 L 254 373.5 L 243 373.5 Z M 243 364 "/></clipPath><clipPath id="3271bd9737"><path d="M 304 364 L 314 364 L 314 373.5 L 304 373.5 Z M 304 364 "/></clipPath><clipPath id="8a1cd11204"><path d="M 365 364 L 375 364 L 375 373.5 L 365 373.5 Z M 365 364 "/></clipPath><clipPath id="4e51a4dcdb"><rect x="0" width="375" y="0" height="374"/></clipPath></defs><g id="2189af86d7"><g mask="url(#dcdaf58dd5)" transform="matrix(1,0,0,1,0,0)"><g clip-path="url(#4e51a4dcdb)"><path style=" stroke:none;fill-rule:nonzero;fill:#ffffff;fill-opacity:1;" d="M 0.0585938 0.0078125 L 9.539062 0.0078125 L 9.539062 9.488281 L 0.0585938 9.488281 Z M 0.0585938 0.0078125 "/><path style=" stroke:none;fill-rule:nonzero;fill:#ffffff;fill-opacity:1;" d="M 0.0585938 60.679688 L 9.539062 60.679688 L 9.539062 70.160156 L 0.0585938 70.160156 Z M 0.0585938 60.679688 "/><path style=" stroke:none;fill-rule:nonzero;fill:#ffffff;fill-opacity:1;" d="M 0.0585938 121.347656 L 9.539062 121.347656 L 9.539062 130.828125 L 0.0585938 130.828125 Z M 0.0585938 121.347656 "/><path style=" stroke:none;fill-rule:nonzero;fill:#ffffff;fill-opacity:1;" d="M 0.0585938 182.019531 L 9.539062 182.019531 L 9.539062 191.503906 L 0.0585938 191.503906 Z M 0.0585938 182.019531 "/><path style=" stroke:none;fill-rule:nonzero;fill:#ffffff;fill-opacity:1;" d="M 0.0585938 242.691406 L 9.539062 242.691406 L 9.539062 252.171875 L 0.0585938 252.171875 Z M 0.0585938 242.691406 "/><path style=" stroke:none;fill-rule:nonzero;fill:#ffffff;fill-opacity:1;" d="M 0.0585938 303.363281 L 9.539062 303.363281 L 9.539062 312.84375 L 0.0585938 312.84375 Z M 0.0585938 303.363281 "/><g clip-rule="nonzero" clip-path="url(#e4221868d6)"><path style=" stroke:none;fill-rule:nonzero;fill:#ffffff;fill-opacity:1;" d="M 0.0585938 364.035156 L 9.539062 364.035156 L 9.539062 373.515625 L 0.0585938 373.515625 Z M 0.0585938 364.035156 "/></g><path style=" stroke:none;fill-rule:nonzero;fill:#ffffff;fill-opacity:1;" d="M 60.941406 0.0078125 L 70.421875 0.0078125 L 70.421875 9.488281 L 60.941406 9.488281 Z M 60.941406 0.0078125 "/><path style=" stroke:none;fill-rule:nonzero;fill:#ffffff;fill-opacity:1;" d="M 60.941406 60.679688 L 70.421875 60.679688 L 70.421875 70.160156 L 60.941406 70.160156 Z M 60.941406 60.679688 "/><path style=" stroke:none;fill-rule:nonzero;fill:#ffffff;fill-opacity:1;" d="M 60.941406 121.347656 L 70.421875 121.347656 L 70.421875 130.828125 L 60.941406 130.828125 Z M 60.941406 121.347656 "/><path style=" stroke:none;fill-rule:nonzero;fill:#ffffff;fill-opacity:1;" d="M 60.941406 182.019531 L 70.421875 182.019531 L 70.421875 191.503906 L 60.941406 191.503906 Z M 60.941406 182.019531 "/><path style=" stroke:none;fill-rule:nonzero;fill:#ffffff;fill-opacity:1;" d="M 60.941406 242.691406 L 70.421875 242.691406 L 70.421875 252.171875 L 60.941406 252.171875 Z M 60.941406 242.691406 "/><path style=" stroke:none;fill-rule:nonzero;fill:#ffffff;fill-opacity:1;" d="M 60.941406 303.363281 L 70.421875 303.363281 L 70.421875 312.84375 L 60.941406 312.84375 Z M 60.941406 303.363281 "/><g clip-rule="nonzero" clip-path="url(#11f3910df4)"><path style=" stroke:none;fill-rule:nonzero;fill:#ffffff;fill-opacity:1;" d="M 60.941406 364.035156 L 70.421875 364.035156 L 70.421875 373.515625 L 60.941406 373.515625 Z M 60.941406 364.035156 "/></g><path style=" stroke:none;fill-rule:nonzero;fill:#ffffff;fill-opacity:1;" d="M 121.824219 0.0078125 L 131.304688 0.0078125 L 131.304688 9.488281 L 121.824219 9.488281 Z M 121.824219 0.0078125 "/><path style=" stroke:none;fill-rule:nonzero;fill:#ffffff;fill-opacity:1;" d="M 121.824219 60.679688 L 131.304688 60.679688 L 131.304688 70.160156 L 121.824219 70.160156 Z M 121.824219 60.679688 "/><path style=" stroke:none;fill-rule:nonzero;fill:#ffffff;fill-opacity:1;" d="M 121.824219 121.347656 L 131.304688 121.347656 L 131.304688 130.828125 L 121.824219 130.828125 Z M 121.824219 121.347656 "/><path style=" stroke:none;fill-rule:nonzero;fill:#ffffff;fill-opacity:1;" d="M 121.824219 182.019531 L 131.304688 182.019531 L 131.304688 191.503906 L 121.824219 191.503906 Z M 121.824219 182.019531 "/><path style=" stroke:none;fill-rule:nonzero;fill:#ffffff;fill-opacity:1;" d="M 121.824219 242.691406 L 131.304688 242.691406 L 131.304688 252.171875 L 121.824219 252.171875 Z M 121.824219 242.691406 "/><path style=" stroke:none;fill-rule:nonzero;fill:#ffffff;fill-opacity:1;" d="M 121.824219 303.363281 L 131.304688 303.363281 L 131.304688 312.84375 L 121.824219 312.84375 Z M 121.824219 303.363281 "/><g clip-rule="nonzero" clip-path="url(#2635c03cd4)"><path style=" stroke:none;fill-rule:nonzero;fill:#ffffff;fill-opacity:1;" d="M 121.824219 364.035156 L 131.304688 364.035156 L 131.304688 373.515625 L 121.824219 373.515625 Z M 121.824219 364.035156 "/></g><path style=" stroke:none;fill-rule:nonzero;fill:#ffffff;fill-opacity:1;" d="M 182.710938 0.0078125 L 192.191406 0.0078125 L 192.191406 9.488281 L 182.710938 9.488281 Z M 182.710938 0.0078125 "/><path style=" stroke:none;fill-rule:nonzero;fill:#ffffff;fill-opacity:1;" d="M 182.710938 60.679688 L 192.191406 60.679688 L 192.191406 70.160156 L 182.710938 70.160156 Z M 182.710938 60.679688 "/><path style=" stroke:none;fill-rule:nonzero;fill:#ffffff;fill-opacity:1;" d="M 182.710938 121.347656 L 192.191406 121.347656 L 192.191406 130.828125 L 182.710938 130.828125 Z M 182.710938 121.347656 "/><path style=" stroke:none;fill-rule:nonzero;fill:#ffffff;fill-opacity:1;" d="M 182.710938 182.019531 L 192.191406 182.019531 L 192.191406 191.503906 L 182.710938 191.503906 Z M 182.710938 182.019531 "/><path style=" stroke:none;fill-rule:nonzero;fill:#ffffff;fill-opacity:1;" d="M 182.710938 242.691406 L 192.191406 242.691406 L 192.191406 252.171875 L 182.710938 252.171875 Z M 182.710938 242.691406 "/><path style=" stroke:none;fill-rule:nonzero;fill:#ffffff;fill-opacity:1;" d="M 182.710938 303.363281 L 192.191406 303.363281 L 192.191406 312.84375 L 182.710938 312.84375 Z M 182.710938 303.363281 "/><g clip-rule="nonzero" clip-path="url(#aecc9fd584)"><path style=" stroke:none;fill-rule:nonzero;fill:#ffffff;fill-opacity:1;" d="M 182.710938 364.035156 L 192.191406 364.035156 L 192.191406 373.515625 L 182.710938 373.515625 Z M 182.710938 364.035156 "/></g><path style=" stroke:none;fill-rule:nonzero;fill:#ffffff;fill-opacity:1;" d="M 243.589844 0.0078125 L 253.070312 0.0078125 L 253.070312 9.488281 L 243.589844 9.488281 Z M 243.589844 0.0078125 "/><path style=" stroke:none;fill-rule:nonzero;fill:#ffffff;fill-opacity:1;" d="M 243.589844 60.679688 L 253.070312 60.679688 L 253.070312 70.160156 L 243.589844 70.160156 Z M 243.589844 60.679688 "/><path style=" stroke:none;fill-rule:nonzero;fill:#ffffff;fill-opacity:1;" d="M 243.589844 121.347656 L 253.070312 121.347656 L 253.070312 130.828125 L 243.589844 130.828125 Z M 243.589844 121.347656 "/><path style=" stroke:none;fill-rule:nonzero;fill:#ffffff;fill-opacity:1;" d="M 243.589844 182.019531 L 253.070312 182.019531 L 253.070312 191.503906 L 243.589844 191.503906 Z M 243.589844 182.019531 "/><path style=" stroke:none;fill-rule:nonzero;fill:#ffffff;fill-opacity:1;" d="M 243.589844 242.691406 L 253.070312 242.691406 L 253.070312 252.171875 L 243.589844 252.171875 Z M 243.589844 242.691406 "/><path style=" stroke:none;fill-rule:nonzero;fill:#ffffff;fill-opacity:1;" d="M 243.589844 303.363281 L 253.070312 303.363281 L 253.070312 312.84375 L 243.589844 312.84375 Z M 243.589844 303.363281 "/><g clip-rule="nonzero" clip-path="url(#046d0a7a2a)"><path style=" stroke:none;fill-rule:nonzero;fill:#ffffff;fill-opacity:1;" d="M 243.589844 364.035156 L 253.070312 364.035156 L 253.070312 373.515625 L 243.589844 373.515625 Z M 243.589844 364.035156 "/></g><path style=" stroke:none;fill-rule:nonzero;fill:#ffffff;fill-opacity:1;" d="M 304.476562 0.0078125 L 313.957031 0.0078125 L 313.957031 9.488281 L 304.476562 9.488281 Z M 304.476562 0.0078125 "/><path style=" stroke:none;fill-rule:nonzero;fill:#ffffff;fill-opacity:1;" d="M 304.476562 60.679688 L 313.957031 60.679688 L 313.957031 70.160156 L 304.476562 70.160156 Z M 304.476562 60.679688 "/><path style=" stroke:none;fill-rule:nonzero;fill:#ffffff;fill-opacity:1;" d="M 304.476562 121.347656 L 313.957031 121.347656 L 313.957031 130.828125 L 304.476562 130.828125 Z M 304.476562 121.347656 "/><path style=" stroke:none;fill-rule:nonzero;fill:#ffffff;fill-opacity:1;" d="M 304.476562 182.019531 L 313.957031 182.019531 L 313.957031 191.503906 L 304.476562 191.503906 Z M 304.476562 182.019531 "/><path style=" stroke:none;fill-rule:nonzero;fill:#ffffff;fill-opacity:1;" d="M 304.476562 242.691406 L 313.957031 242.691406 L 313.957031 252.171875 L 304.476562 252.171875 Z M 304.476562 242.691406 "/><path style=" stroke:none;fill-rule:nonzero;fill:#ffffff;fill-opacity:1;" d="M 304.476562 303.363281 L 313.957031 303.363281 L 313.957031 312.84375 L 304.476562 312.84375 Z M 304.476562 303.363281 "/><g clip-rule="nonzero" clip-path="url(#3271bd9737)"><path style=" stroke:none;fill-rule:nonzero;fill:#ffffff;fill-opacity:1;" d="M 304.476562 364.035156 L 313.957031 364.035156 L 313.957031 373.515625 L 304.476562 373.515625 Z M 304.476562 364.035156 "/></g><path style=" stroke:none;fill-rule:nonzero;fill:#ffffff;fill-opacity:1;" d="M 365.359375 0.0078125 L 374.839844 0.0078125 L 374.839844 9.488281 L 365.359375 9.488281 Z M 365.359375 0.0078125 "/><path style=" stroke:none;fill-rule:nonzero;fill:#ffffff;fill-opacity:1;" d="M 365.359375 60.679688 L 374.839844 60.679688 L 374.839844 70.160156 L 365.359375 70.160156 Z M 365.359375 60.679688 "/><path style=" stroke:none;fill-rule:nonzero;fill:#ffffff;fill-opacity:1;" d="M 365.359375 121.347656 L 374.839844 121.347656 L 374.839844 130.828125 L 365.359375 130.828125 Z M 365.359375 121.347656 "/><path style=" stroke:none;fill-rule:nonzero;fill:#ffffff;fill-opacity:1;" d="M 365.359375 182.019531 L 374.839844 182.019531 L 374.839844 191.503906 L 365.359375 191.503906 Z M 365.359375 182.019531 "/><path style=" stroke:none;fill-rule:nonzero;fill:#ffffff;fill-opacity:1;" d="M 365.359375 242.691406 L 374.839844 242.691406 L 374.839844 252.171875 L 365.359375 252.171875 Z M 365.359375 242.691406 "/><path style=" stroke:none;fill-rule:nonzero;fill:#ffffff;fill-opacity:1;" d="M 365.359375 303.363281 L 374.839844 303.363281 L 374.839844 312.84375 L 365.359375 312.84375 Z M 365.359375 303.363281 "/><g clip-rule="nonzero" clip-path="url(#8a1cd11204)"><path style=" stroke:none;fill-rule:nonzero;fill:#ffffff;fill-opacity:1;" d="M 365.359375 364.035156 L 374.839844 364.035156 L 374.839844 373.515625 L 365.359375 373.515625 Z M 365.359375 364.035156 "/></g></g><mask id="dcdaf58dd5"><g filter="url(#5feb224204)"><rect x="0" width="375" y="0" height="374.999991" style="fill:#000000;fill-opacity:0.2;stroke:none;"/></g></mask></g></g></svg>