<svg xmlns="http://www.w3.org/2000/svg" xmlns:xlink="http://www.w3.org/1999/xlink" width="500" zoomAndPan="magnify" viewBox="0 0 375 374.999991" height="500" preserveAspectRatio="xMidYMid meet" version="1.2"><defs><filter x="0%" y="0%" width="100%" filterUnits="objectBoundingBox" id="d83b37db97" height="100%"><feColorMatrix values="0 0 0 0 1 0 0 0 0 1 0 0 0 0 1 0 0 0 1 0" type="matrix" in="SourceGraphic"/></filter><clipPath id="393e978922"><path d="M 0 0.296875 L 375 0.296875 L 375 106.71875 L 0 106.71875 Z M 0 0.296875 "/></clipPath><clipPath id="25684b63c6"><rect x="0" width="375" y="0" height="107"/></clipPath></defs><g id="b8fed5308a"><g mask="url(#fe754de37c)" transform="matrix(1,0,0,1,0,134)"><g clip-path="url(#25684b63c6)"><g clip-rule="nonzero" clip-path="url(#393e978922)"><path style=" stroke:none;fill-rule:evenodd;fill:#ffffff;fill-opacity:1;" d="M 29.207031 0.347656 L 55.492188 0.347656 L 26.285156 106.652344 L 0 106.652344 Z M 348.714844 0.347656 L 375 0.347656 L 345.792969 106.652344 L 319.507812 106.652344 Z M 303.152344 0.347656 L 329.4375 0.347656 L 300.234375 106.652344 L 273.949219 106.652344 Z M 257.59375 0.347656 L 283.878906 0.347656 L 254.671875 106.652344 L 228.386719 106.652344 Z M 211.449219 0.347656 L 238.316406 0.347656 L 209.113281 106.652344 L 182.828125 106.652344 Z M 165.886719 0.347656 L 192.171875 0.347656 L 163.550781 106.652344 L 136.683594 106.652344 Z M 120.328125 0.347656 L 146.613281 0.347656 L 117.40625 106.652344 L 91.121094 106.652344 Z M 74.765625 0.347656 L 101.050781 0.347656 L 71.847656 106.652344 L 45.5625 106.652344 Z M 74.765625 0.347656 "/></g></g><mask id="fe754de37c"><g filter="url(#d83b37db97)"><rect x="0" width="375" y="0" height="374.999991" style="fill:#000000;fill-opacity:0.2;stroke:none;"/></g></mask></g></g></svg>