<svg xmlns="http://www.w3.org/2000/svg" xmlns:xlink="http://www.w3.org/1999/xlink" width="500" zoomAndPan="magnify" viewBox="0 0 375 374.999991" height="500" preserveAspectRatio="xMidYMid meet" version="1.2"><defs><filter x="0%" y="0%" width="100%" filterUnits="objectBoundingBox" id="95fb9eabe2" height="100%"><feColorMatrix values="0 0 0 0 1 0 0 0 0 1 0 0 0 0 1 0 0 0 1 0" type="matrix" in="SourceGraphic"/></filter><clipPath id="2da28f2619"><path d="M 205 0.9375 L 375 0.9375 L 375 171 L 205 171 Z M 205 0.9375 "/></clipPath><clipPath id="621a30087d"><rect x="0" width="375" y="0" height="375"/></clipPath></defs><g id="304998982d"><g mask="url(#fe40128651)" transform="matrix(1,0,0,1,0,0)"><g clip-path="url(#621a30087d)"><path style=" stroke:none;fill-rule:nonzero;fill:#ffffff;fill-opacity:1;" d="M 169.300781 375 L 80.117188 375 L 80.117188 294.90625 L 0.0234375 294.90625 L 0.0234375 205.722656 L 169.300781 205.722656 Z M 89.207031 365.910156 L 160.207031 365.910156 L 160.207031 214.792969 L 9.113281 214.792969 L 9.113281 285.796875 L 89.207031 285.796875 Z M 89.207031 365.910156 "/><path style=" stroke:none;fill-rule:nonzero;fill:#ffffff;fill-opacity:1;" d="M 271.964844 272.433594 L 182.78125 272.433594 L 182.78125 192.34375 L 102.691406 192.34375 L 102.691406 103.136719 L 271.964844 103.136719 Z M 191.875 263.34375 L 262.875 263.34375 L 262.875 112.230469 L 111.761719 112.230469 L 111.761719 183.230469 L 191.851562 183.230469 L 191.851562 263.34375 Z M 191.875 263.34375 "/><g clip-rule="nonzero" clip-path="url(#2da28f2619)"><path style=" stroke:none;fill-rule:nonzero;fill:#ffffff;fill-opacity:1;" d="M 374.976562 170.214844 L 285.792969 170.214844 L 285.792969 90.121094 L 205.699219 90.121094 L 205.699219 0.9375 L 374.976562 0.9375 Z M 294.882812 161.121094 L 365.886719 161.121094 L 365.886719 10.027344 L 214.769531 10.027344 L 214.769531 81.03125 L 294.863281 81.03125 L 294.863281 161.121094 Z M 294.882812 161.121094 "/></g></g><mask id="fe40128651"><g filter="url(#95fb9eabe2)"><rect x="0" width="375" y="0" height="374.999991" style="fill:#000000;fill-opacity:0.19;stroke:none;"/></g></mask></g></g></svg>