<svg xmlns="http://www.w3.org/2000/svg" xmlns:xlink="http://www.w3.org/1999/xlink" width="1000" zoomAndPan="magnify" viewBox="0 0 750 749.999995" height="1000" preserveAspectRatio="xMidYMid meet" version="1.2"><defs><filter x="0%" y="0%" width="100%" filterUnits="objectBoundingBox" id="175c39070d" height="100%"><feColorMatrix values="0 0 0 0 1 0 0 0 0 1 0 0 0 0 1 0 0 0 1 0" type="matrix" in="SourceGraphic"/></filter><clipPath id="621a6952cd"><path d="M 1 366 L 21 366 L 21 386 L 1 386 Z M 1 366 "/></clipPath><clipPath id="7a660e0145"><path d="M 0.964844 375.699219 L 376.441406 0.226562 L 750.851562 374.640625 L 375.378906 750.113281 Z M 0.964844 375.699219 "/></clipPath><clipPath id="279307d4d9"><path d="M 0.964844 375.699219 L 376.441406 0.226562 L 750.851562 374.640625 L 375.378906 750.113281 Z M 0.964844 375.699219 "/></clipPath><clipPath id="cfb5b20c92"><path d="M 61 426 L 81 426 L 81 446 L 61 446 Z M 61 426 "/></clipPath><clipPath id="d95b5116bc"><path d="M 0.964844 375.699219 L 376.441406 0.226562 L 750.851562 374.640625 L 375.378906 750.113281 Z M 0.964844 375.699219 "/></clipPath><clipPath id="7f3613cb4e"><path d="M 0.964844 375.699219 L 376.441406 0.226562 L 750.851562 374.640625 L 375.378906 750.113281 Z M 0.964844 375.699219 "/></clipPath><clipPath id="1d4fb33184"><path d="M 122 487 L 142 487 L 142 507 L 122 507 Z M 122 487 "/></clipPath><clipPath id="2859a75214"><path d="M 0.964844 375.699219 L 376.441406 0.226562 L 750.851562 374.640625 L 375.378906 750.113281 Z M 0.964844 375.699219 "/></clipPath><clipPath id="87240612d8"><path d="M 0.964844 375.699219 L 376.441406 0.226562 L 750.851562 374.640625 L 375.378906 750.113281 Z M 0.964844 375.699219 "/></clipPath><clipPath id="2a3f7b3186"><path d="M 183 548 L 203 548 L 203 568 L 183 568 Z M 183 548 "/></clipPath><clipPath id="83d35295f1"><path d="M 0.964844 375.699219 L 376.441406 0.226562 L 750.851562 374.640625 L 375.378906 750.113281 Z M 0.964844 375.699219 "/></clipPath><clipPath id="539925c5b2"><path d="M 0.964844 375.699219 L 376.441406 0.226562 L 750.851562 374.640625 L 375.378906 750.113281 Z M 0.964844 375.699219 "/></clipPath><clipPath id="05db380f3f"><path d="M 244 609 L 264 609 L 264 629 L 244 629 Z M 244 609 "/></clipPath><clipPath id="95f9dba2aa"><path d="M 0.964844 375.699219 L 376.441406 0.226562 L 750.851562 374.640625 L 375.378906 750.113281 Z M 0.964844 375.699219 "/></clipPath><clipPath id="2af57b12e3"><path d="M 0.964844 375.699219 L 376.441406 0.226562 L 750.851562 374.640625 L 375.378906 750.113281 Z M 0.964844 375.699219 "/></clipPath><clipPath id="8c4009d02c"><path d="M 304 669 L 324 669 L 324 689 L 304 689 Z M 304 669 "/></clipPath><clipPath id="9fbd079b00"><path d="M 0.964844 375.699219 L 376.441406 0.226562 L 750.851562 374.640625 L 375.378906 750.113281 Z M 0.964844 375.699219 "/></clipPath><clipPath id="85e348c2c7"><path d="M 0.964844 375.699219 L 376.441406 0.226562 L 750.851562 374.640625 L 375.378906 750.113281 Z M 0.964844 375.699219 "/></clipPath><clipPath id="20849435e1"><path d="M 365 730 L 376 730 L 376 750 L 365 750 Z M 365 730 "/></clipPath><clipPath id="70ccb6fe18"><path d="M 0.964844 375.699219 L 376.441406 0.226562 L 750.851562 374.640625 L 375.378906 750.113281 Z M 0.964844 375.699219 "/></clipPath><clipPath id="b750b5df0d"><path d="M 0.964844 375.699219 L 376.441406 0.226562 L 750.851562 374.640625 L 375.378906 750.113281 Z M 0.964844 375.699219 "/></clipPath><clipPath id="ed6ffd2b68"><path d="M 62 305 L 81 305 L 81 325 L 62 325 Z M 62 305 "/></clipPath><clipPath id="f832793275"><path d="M 0.964844 375.699219 L 376.441406 0.226562 L 750.851562 374.640625 L 375.378906 750.113281 Z M 0.964844 375.699219 "/></clipPath><clipPath id="d07e4ce81d"><path d="M 0.964844 375.699219 L 376.441406 0.226562 L 750.851562 374.640625 L 375.378906 750.113281 Z M 0.964844 375.699219 "/></clipPath><clipPath id="b2aadf10f6"><path d="M 122 365 L 142 365 L 142 385 L 122 385 Z M 122 365 "/></clipPath><clipPath id="790899a1e2"><path d="M 0.964844 375.699219 L 376.441406 0.226562 L 750.851562 374.640625 L 375.378906 750.113281 Z M 0.964844 375.699219 "/></clipPath><clipPath id="587c32b22d"><path d="M 0.964844 375.699219 L 376.441406 0.226562 L 750.851562 374.640625 L 375.378906 750.113281 Z M 0.964844 375.699219 "/></clipPath><clipPath id="2f67e56581"><path d="M 183 426 L 203 426 L 203 446 L 183 446 Z M 183 426 "/></clipPath><clipPath id="fe138ff5f7"><path d="M 0.964844 375.699219 L 376.441406 0.226562 L 750.851562 374.640625 L 375.378906 750.113281 Z M 0.964844 375.699219 "/></clipPath><clipPath id="46b3321f71"><path d="M 0.964844 375.699219 L 376.441406 0.226562 L 750.851562 374.640625 L 375.378906 750.113281 Z M 0.964844 375.699219 "/></clipPath><clipPath id="fcd8a7a5e0"><path d="M 244 487 L 264 487 L 264 507 L 244 507 Z M 244 487 "/></clipPath><clipPath id="491f79c2d7"><path d="M 0.964844 375.699219 L 376.441406 0.226562 L 750.851562 374.640625 L 375.378906 750.113281 Z M 0.964844 375.699219 "/></clipPath><clipPath id="7b47149901"><path d="M 0.964844 375.699219 L 376.441406 0.226562 L 750.851562 374.640625 L 375.378906 750.113281 Z M 0.964844 375.699219 "/></clipPath><clipPath id="058e175e6f"><path d="M 305 548 L 325 548 L 325 568 L 305 568 Z M 305 548 "/></clipPath><clipPath id="fe7e443903"><path d="M 0.964844 375.699219 L 376.441406 0.226562 L 750.851562 374.640625 L 375.378906 750.113281 Z M 0.964844 375.699219 "/></clipPath><clipPath id="f302fa43c8"><path d="M 0.964844 375.699219 L 376.441406 0.226562 L 750.851562 374.640625 L 375.378906 750.113281 Z M 0.964844 375.699219 "/></clipPath><clipPath id="459d108725"><path d="M 365 608 L 376 608 L 376 628 L 365 628 Z M 365 608 "/></clipPath><clipPath id="2f14518d63"><path d="M 0.964844 375.699219 L 376.441406 0.226562 L 750.851562 374.640625 L 375.378906 750.113281 Z M 0.964844 375.699219 "/></clipPath><clipPath id="09e7258941"><path d="M 0.964844 375.699219 L 376.441406 0.226562 L 750.851562 374.640625 L 375.378906 750.113281 Z M 0.964844 375.699219 "/></clipPath><clipPath id="3d81a3fe06"><path d="M 122 244 L 142 244 L 142 264 L 122 264 Z M 122 244 "/></clipPath><clipPath id="d5e2513b83"><path d="M 0.964844 375.699219 L 376.441406 0.226562 L 750.851562 374.640625 L 375.378906 750.113281 Z M 0.964844 375.699219 "/></clipPath><clipPath id="99817e06d9"><path d="M 0.964844 375.699219 L 376.441406 0.226562 L 750.851562 374.640625 L 375.378906 750.113281 Z M 0.964844 375.699219 "/></clipPath><clipPath id="f930db70eb"><path d="M 183 304 L 203 304 L 203 324 L 183 324 Z M 183 304 "/></clipPath><clipPath id="0594bd0082"><path d="M 0.964844 375.699219 L 376.441406 0.226562 L 750.851562 374.640625 L 375.378906 750.113281 Z M 0.964844 375.699219 "/></clipPath><clipPath id="ad7b8cd94e"><path d="M 0.964844 375.699219 L 376.441406 0.226562 L 750.851562 374.640625 L 375.378906 750.113281 Z M 0.964844 375.699219 "/></clipPath><clipPath id="997274a3e0"><path d="M 244 365 L 264 365 L 264 385 L 244 385 Z M 244 365 "/></clipPath><clipPath id="4f1998ffa1"><path d="M 0.964844 375.699219 L 376.441406 0.226562 L 750.851562 374.640625 L 375.378906 750.113281 Z M 0.964844 375.699219 "/></clipPath><clipPath id="d9fa705073"><path d="M 0.964844 375.699219 L 376.441406 0.226562 L 750.851562 374.640625 L 375.378906 750.113281 Z M 0.964844 375.699219 "/></clipPath><clipPath id="fdb7b84b57"><path d="M 305 426 L 325 426 L 325 446 L 305 446 Z M 305 426 "/></clipPath><clipPath id="acd6d7ba45"><path d="M 0.964844 375.699219 L 376.441406 0.226562 L 750.851562 374.640625 L 375.378906 750.113281 Z M 0.964844 375.699219 "/></clipPath><clipPath id="c4689196a1"><path d="M 0.964844 375.699219 L 376.441406 0.226562 L 750.851562 374.640625 L 375.378906 750.113281 Z M 0.964844 375.699219 "/></clipPath><clipPath id="bc5e908d31"><path d="M 366 487 L 376 487 L 376 507 L 366 507 Z M 366 487 "/></clipPath><clipPath id="e8cb72fb9f"><path d="M 0.964844 375.699219 L 376.441406 0.226562 L 750.851562 374.640625 L 375.378906 750.113281 Z M 0.964844 375.699219 "/></clipPath><clipPath id="e2d11e7b29"><path d="M 0.964844 375.699219 L 376.441406 0.226562 L 750.851562 374.640625 L 375.378906 750.113281 Z M 0.964844 375.699219 "/></clipPath><clipPath id="8e95b176fa"><path d="M 183 183 L 203 183 L 203 203 L 183 203 Z M 183 183 "/></clipPath><clipPath id="8bb2a5e58a"><path d="M 0.964844 375.699219 L 376.441406 0.226562 L 750.851562 374.640625 L 375.378906 750.113281 Z M 0.964844 375.699219 "/></clipPath><clipPath id="1d09b75aba"><path d="M 0.964844 375.699219 L 376.441406 0.226562 L 750.851562 374.640625 L 375.378906 750.113281 Z M 0.964844 375.699219 "/></clipPath><clipPath id="2004b9ed07"><path d="M 244 243 L 264 243 L 264 263 L 244 263 Z M 244 243 "/></clipPath><clipPath id="f40ee5d302"><path d="M 0.964844 375.699219 L 376.441406 0.226562 L 750.851562 374.640625 L 375.378906 750.113281 Z M 0.964844 375.699219 "/></clipPath><clipPath id="a12c9e6b48"><path d="M 0.964844 375.699219 L 376.441406 0.226562 L 750.851562 374.640625 L 375.378906 750.113281 Z M 0.964844 375.699219 "/></clipPath><clipPath id="bd73e8254d"><path d="M 305 304 L 325 304 L 325 324 L 305 324 Z M 305 304 "/></clipPath><clipPath id="d4a91f0b2b"><path d="M 0.964844 375.699219 L 376.441406 0.226562 L 750.851562 374.640625 L 375.378906 750.113281 Z M 0.964844 375.699219 "/></clipPath><clipPath id="0b3174b3a3"><path d="M 0.964844 375.699219 L 376.441406 0.226562 L 750.851562 374.640625 L 375.378906 750.113281 Z M 0.964844 375.699219 "/></clipPath><clipPath id="b8fc603c3e"><path d="M 366 365 L 376 365 L 376 385 L 366 385 Z M 366 365 "/></clipPath><clipPath id="46f6de79e7"><path d="M 0.964844 375.699219 L 376.441406 0.226562 L 750.851562 374.640625 L 375.378906 750.113281 Z M 0.964844 375.699219 "/></clipPath><clipPath id="df9bd9bdc0"><path d="M 0.964844 375.699219 L 376.441406 0.226562 L 750.851562 374.640625 L 375.378906 750.113281 Z M 0.964844 375.699219 "/></clipPath><clipPath id="4eab23106e"><path d="M 244 122 L 264 122 L 264 142 L 244 142 Z M 244 122 "/></clipPath><clipPath id="70b71b5c4e"><path d="M 0.964844 375.699219 L 376.441406 0.226562 L 750.851562 374.640625 L 375.378906 750.113281 Z M 0.964844 375.699219 "/></clipPath><clipPath id="f9266dc527"><path d="M 0.964844 375.699219 L 376.441406 0.226562 L 750.851562 374.640625 L 375.378906 750.113281 Z M 0.964844 375.699219 "/></clipPath><clipPath id="e7d51110e5"><path d="M 305 183 L 325 183 L 325 203 L 305 203 Z M 305 183 "/></clipPath><clipPath id="59eb86e1be"><path d="M 0.964844 375.699219 L 376.441406 0.226562 L 750.851562 374.640625 L 375.378906 750.113281 Z M 0.964844 375.699219 "/></clipPath><clipPath id="b91891def3"><path d="M 0.964844 375.699219 L 376.441406 0.226562 L 750.851562 374.640625 L 375.378906 750.113281 Z M 0.964844 375.699219 "/></clipPath><clipPath id="b0ecd9f082"><path d="M 366 243 L 376 243 L 376 263 L 366 263 Z M 366 243 "/></clipPath><clipPath id="0a037136a2"><path d="M 0.964844 375.699219 L 376.441406 0.226562 L 750.851562 374.640625 L 375.378906 750.113281 Z M 0.964844 375.699219 "/></clipPath><clipPath id="c9a0f4d482"><path d="M 0.964844 375.699219 L 376.441406 0.226562 L 750.851562 374.640625 L 375.378906 750.113281 Z M 0.964844 375.699219 "/></clipPath><clipPath id="ab6289ed43"><path d="M 305 61 L 325 61 L 325 81 L 305 81 Z M 305 61 "/></clipPath><clipPath id="ae49f205cf"><path d="M 0.964844 375.699219 L 376.441406 0.226562 L 750.851562 374.640625 L 375.378906 750.113281 Z M 0.964844 375.699219 "/></clipPath><clipPath id="5b45ac2258"><path d="M 0.964844 375.699219 L 376.441406 0.226562 L 750.851562 374.640625 L 375.378906 750.113281 Z M 0.964844 375.699219 "/></clipPath><clipPath id="9ab0359b79"><path d="M 366 122 L 376 122 L 376 142 L 366 142 Z M 366 122 "/></clipPath><clipPath id="d74fbfe702"><path d="M 0.964844 375.699219 L 376.441406 0.226562 L 750.851562 374.640625 L 375.378906 750.113281 Z M 0.964844 375.699219 "/></clipPath><clipPath id="7cfcb321be"><path d="M 0.964844 375.699219 L 376.441406 0.226562 L 750.851562 374.640625 L 375.378906 750.113281 Z M 0.964844 375.699219 "/></clipPath><clipPath id="ad2be75b34"><path d="M 366 0 L 376 0 L 376 20 L 366 20 Z M 366 0 "/></clipPath><clipPath id="9acf044493"><path d="M 0.964844 375.699219 L 376.441406 0.226562 L 750.851562 374.640625 L 375.378906 750.113281 Z M 0.964844 375.699219 "/></clipPath><clipPath id="76f7a076fa"><path d="M 0.964844 375.699219 L 376.441406 0.226562 L 750.851562 374.640625 L 375.378906 750.113281 Z M 0.964844 375.699219 "/></clipPath><clipPath id="681b5f824a"><rect x="0" width="376" y="0" height="750"/></clipPath></defs><g id="415e1182da"><g mask="url(#cf355fbafa)" transform="matrix(1,0,0,1,374,-0.000000000000042435)"><g clip-path="url(#681b5f824a)"><g clip-rule="nonzero" clip-path="url(#621a6952cd)"><g clip-rule="nonzero" clip-path="url(#7a660e0145)"><g clip-rule="nonzero" clip-path="url(#279307d4d9)"><path style=" stroke:none;fill-rule:nonzero;fill:#ffffff;fill-opacity:1;" d="M 1.035156 375.648438 L 10.53125 366.152344 L 20.027344 375.648438 L 10.53125 385.144531 Z M 1.035156 375.648438 "/></g></g></g><g clip-rule="nonzero" clip-path="url(#cfb5b20c92)"><g clip-rule="nonzero" clip-path="url(#d95b5116bc)"><g clip-rule="nonzero" clip-path="url(#7f3613cb4e)"><path style=" stroke:none;fill-rule:nonzero;fill:#ffffff;fill-opacity:1;" d="M 61.796875 436.410156 L 71.292969 426.914062 L 80.789062 436.410156 L 71.292969 445.90625 Z M 61.796875 436.410156 "/></g></g></g><g clip-rule="nonzero" clip-path="url(#1d4fb33184)"><g clip-rule="nonzero" clip-path="url(#2859a75214)"><g clip-rule="nonzero" clip-path="url(#87240612d8)"><path style=" stroke:none;fill-rule:nonzero;fill:#ffffff;fill-opacity:1;" d="M 122.558594 497.171875 L 132.054688 487.675781 L 141.550781 497.171875 L 132.054688 506.667969 Z M 122.558594 497.171875 "/></g></g></g><g clip-rule="nonzero" clip-path="url(#2a3f7b3186)"><g clip-rule="nonzero" clip-path="url(#83d35295f1)"><g clip-rule="nonzero" clip-path="url(#539925c5b2)"><path style=" stroke:none;fill-rule:nonzero;fill:#ffffff;fill-opacity:1;" d="M 183.324219 557.9375 L 192.820312 548.441406 L 202.3125 557.9375 L 192.820312 567.433594 Z M 183.324219 557.9375 "/></g></g></g><g clip-rule="nonzero" clip-path="url(#05db380f3f)"><g clip-rule="nonzero" clip-path="url(#95f9dba2aa)"><g clip-rule="nonzero" clip-path="url(#2af57b12e3)"><path style=" stroke:none;fill-rule:nonzero;fill:#ffffff;fill-opacity:1;" d="M 244.085938 618.699219 L 253.582031 609.203125 L 263.074219 618.699219 L 253.582031 628.195312 Z M 244.085938 618.699219 "/></g></g></g><g clip-rule="nonzero" clip-path="url(#8c4009d02c)"><g clip-rule="nonzero" clip-path="url(#9fbd079b00)"><g clip-rule="nonzero" clip-path="url(#85e348c2c7)"><path style=" stroke:none;fill-rule:nonzero;fill:#ffffff;fill-opacity:1;" d="M 304.847656 679.460938 L 314.34375 669.964844 L 323.839844 679.460938 L 314.34375 688.957031 Z M 304.847656 679.460938 "/></g></g></g><g clip-rule="nonzero" clip-path="url(#20849435e1)"><g clip-rule="nonzero" clip-path="url(#70ccb6fe18)"><g clip-rule="nonzero" clip-path="url(#b750b5df0d)"><path style=" stroke:none;fill-rule:nonzero;fill:#ffffff;fill-opacity:1;" d="M 365.613281 740.226562 L 375.105469 730.730469 L 384.601562 740.226562 L 375.105469 749.71875 Z M 365.613281 740.226562 "/></g></g></g><g clip-rule="nonzero" clip-path="url(#ed6ffd2b68)"><g clip-rule="nonzero" clip-path="url(#f832793275)"><g clip-rule="nonzero" clip-path="url(#d07e4ce81d)"><path style=" stroke:none;fill-rule:nonzero;fill:#ffffff;fill-opacity:1;" d="M 62.007812 314.675781 L 71.503906 305.179688 L 81 314.675781 L 71.503906 324.167969 Z M 62.007812 314.675781 "/></g></g></g><g clip-rule="nonzero" clip-path="url(#b2aadf10f6)"><g clip-rule="nonzero" clip-path="url(#790899a1e2)"><g clip-rule="nonzero" clip-path="url(#587c32b22d)"><path style=" stroke:none;fill-rule:nonzero;fill:#ffffff;fill-opacity:1;" d="M 122.769531 375.4375 L 132.265625 365.941406 L 141.761719 375.4375 L 132.265625 384.929688 Z M 122.769531 375.4375 "/></g></g></g><g clip-rule="nonzero" clip-path="url(#2f67e56581)"><g clip-rule="nonzero" clip-path="url(#fe138ff5f7)"><g clip-rule="nonzero" clip-path="url(#46b3321f71)"><path style=" stroke:none;fill-rule:nonzero;fill:#ffffff;fill-opacity:1;" d="M 183.53125 436.199219 L 193.027344 426.703125 L 202.523438 436.199219 L 193.027344 445.695312 Z M 183.53125 436.199219 "/></g></g></g><g clip-rule="nonzero" clip-path="url(#fcd8a7a5e0)"><g clip-rule="nonzero" clip-path="url(#491f79c2d7)"><g clip-rule="nonzero" clip-path="url(#7b47149901)"><path style=" stroke:none;fill-rule:nonzero;fill:#ffffff;fill-opacity:1;" d="M 244.296875 496.960938 L 253.792969 487.46875 L 263.289062 496.960938 L 253.792969 506.457031 Z M 244.296875 496.960938 "/></g></g></g><g clip-rule="nonzero" clip-path="url(#058e175e6f)"><g clip-rule="nonzero" clip-path="url(#fe7e443903)"><g clip-rule="nonzero" clip-path="url(#f302fa43c8)"><path style=" stroke:none;fill-rule:nonzero;fill:#ffffff;fill-opacity:1;" d="M 305.058594 557.722656 L 314.554688 548.230469 L 324.050781 557.722656 L 314.554688 567.21875 Z M 305.058594 557.722656 "/></g></g></g><g clip-rule="nonzero" clip-path="url(#459d108725)"><g clip-rule="nonzero" clip-path="url(#2f14518d63)"><g clip-rule="nonzero" clip-path="url(#09e7258941)"><path style=" stroke:none;fill-rule:nonzero;fill:#ffffff;fill-opacity:1;" d="M 365.820312 618.488281 L 375.316406 608.992188 L 384.8125 618.488281 L 375.316406 627.980469 Z M 365.820312 618.488281 "/></g></g></g><g clip-rule="nonzero" clip-path="url(#3d81a3fe06)"><g clip-rule="nonzero" clip-path="url(#d5e2513b83)"><g clip-rule="nonzero" clip-path="url(#99817e06d9)"><path style=" stroke:none;fill-rule:nonzero;fill:#ffffff;fill-opacity:1;" d="M 122.984375 253.699219 L 132.480469 244.203125 L 141.976562 253.699219 L 132.480469 263.191406 Z M 122.984375 253.699219 "/></g></g></g><g clip-rule="nonzero" clip-path="url(#f930db70eb)"><g clip-rule="nonzero" clip-path="url(#0594bd0082)"><g clip-rule="nonzero" clip-path="url(#ad7b8cd94e)"><path style=" stroke:none;fill-rule:nonzero;fill:#ffffff;fill-opacity:1;" d="M 183.746094 314.460938 L 193.242188 304.964844 L 202.738281 314.460938 L 193.242188 323.957031 Z M 183.746094 314.460938 "/></g></g></g><g clip-rule="nonzero" clip-path="url(#997274a3e0)"><g clip-rule="nonzero" clip-path="url(#4f1998ffa1)"><g clip-rule="nonzero" clip-path="url(#d9fa705073)"><path style=" stroke:none;fill-rule:nonzero;fill:#ffffff;fill-opacity:1;" d="M 244.507812 375.222656 L 254.003906 365.726562 L 263.5 375.222656 L 254.003906 384.71875 Z M 244.507812 375.222656 "/></g></g></g><g clip-rule="nonzero" clip-path="url(#fdb7b84b57)"><g clip-rule="nonzero" clip-path="url(#acd6d7ba45)"><g clip-rule="nonzero" clip-path="url(#c4689196a1)"><path style=" stroke:none;fill-rule:nonzero;fill:#ffffff;fill-opacity:1;" d="M 305.273438 435.988281 L 314.769531 426.492188 L 324.265625 435.988281 L 314.769531 445.480469 Z M 305.273438 435.988281 "/></g></g></g><g clip-rule="nonzero" clip-path="url(#bc5e908d31)"><g clip-rule="nonzero" clip-path="url(#e8cb72fb9f)"><g clip-rule="nonzero" clip-path="url(#e2d11e7b29)"><path style=" stroke:none;fill-rule:nonzero;fill:#ffffff;fill-opacity:1;" d="M 366.035156 496.75 L 375.53125 487.253906 L 385.027344 496.75 L 375.53125 506.242188 Z M 366.035156 496.75 "/></g></g></g><g clip-rule="nonzero" clip-path="url(#8e95b176fa)"><g clip-rule="nonzero" clip-path="url(#8bb2a5e58a)"><g clip-rule="nonzero" clip-path="url(#1d09b75aba)"><path style=" stroke:none;fill-rule:nonzero;fill:#ffffff;fill-opacity:1;" d="M 183.960938 192.722656 L 193.457031 183.226562 L 202.953125 192.722656 L 193.457031 202.21875 Z M 183.960938 192.722656 "/></g></g></g><g clip-rule="nonzero" clip-path="url(#2004b9ed07)"><g clip-rule="nonzero" clip-path="url(#f40ee5d302)"><g clip-rule="nonzero" clip-path="url(#a12c9e6b48)"><path style=" stroke:none;fill-rule:nonzero;fill:#ffffff;fill-opacity:1;" d="M 244.722656 253.484375 L 254.21875 243.988281 L 263.714844 253.484375 L 254.21875 262.980469 Z M 244.722656 253.484375 "/></g></g></g><g clip-rule="nonzero" clip-path="url(#bd73e8254d)"><g clip-rule="nonzero" clip-path="url(#d4a91f0b2b)"><g clip-rule="nonzero" clip-path="url(#0b3174b3a3)"><path style=" stroke:none;fill-rule:nonzero;fill:#ffffff;fill-opacity:1;" d="M 305.484375 314.246094 L 314.980469 304.75 L 324.476562 314.246094 L 314.980469 323.742188 Z M 305.484375 314.246094 "/></g></g></g><g clip-rule="nonzero" clip-path="url(#b8fc603c3e)"><g clip-rule="nonzero" clip-path="url(#46f6de79e7)"><g clip-rule="nonzero" clip-path="url(#df9bd9bdc0)"><path style=" stroke:none;fill-rule:nonzero;fill:#ffffff;fill-opacity:1;" d="M 366.25 375.011719 L 375.746094 365.515625 L 385.238281 375.011719 L 375.746094 384.503906 Z M 366.25 375.011719 "/></g></g></g><g clip-rule="nonzero" clip-path="url(#4eab23106e)"><g clip-rule="nonzero" clip-path="url(#70b71b5c4e)"><g clip-rule="nonzero" clip-path="url(#f9266dc527)"><path style=" stroke:none;fill-rule:nonzero;fill:#ffffff;fill-opacity:1;" d="M 244.933594 131.746094 L 254.429688 122.253906 L 263.925781 131.746094 L 254.429688 141.242188 Z M 244.933594 131.746094 "/></g></g></g><g clip-rule="nonzero" clip-path="url(#e7d51110e5)"><g clip-rule="nonzero" clip-path="url(#59eb86e1be)"><g clip-rule="nonzero" clip-path="url(#b91891def3)"><path style=" stroke:none;fill-rule:nonzero;fill:#ffffff;fill-opacity:1;" d="M 305.695312 192.511719 L 315.191406 183.015625 L 324.6875 192.511719 L 315.191406 202.003906 Z M 305.695312 192.511719 "/></g></g></g><g clip-rule="nonzero" clip-path="url(#b0ecd9f082)"><g clip-rule="nonzero" clip-path="url(#0a037136a2)"><g clip-rule="nonzero" clip-path="url(#c9a0f4d482)"><path style=" stroke:none;fill-rule:nonzero;fill:#ffffff;fill-opacity:1;" d="M 366.460938 253.273438 L 375.953125 243.777344 L 385.449219 253.273438 L 375.953125 262.765625 Z M 366.460938 253.273438 "/></g></g></g><g clip-rule="nonzero" clip-path="url(#ab6289ed43)"><g clip-rule="nonzero" clip-path="url(#ae49f205cf)"><g clip-rule="nonzero" clip-path="url(#5b45ac2258)"><path style=" stroke:none;fill-rule:nonzero;fill:#ffffff;fill-opacity:1;" d="M 305.910156 70.773438 L 315.40625 61.277344 L 324.902344 70.773438 L 315.40625 80.265625 Z M 305.910156 70.773438 "/></g></g></g><g clip-rule="nonzero" clip-path="url(#9ab0359b79)"><g clip-rule="nonzero" clip-path="url(#d74fbfe702)"><g clip-rule="nonzero" clip-path="url(#7cfcb321be)"><path style=" stroke:none;fill-rule:nonzero;fill:#ffffff;fill-opacity:1;" d="M 366.671875 131.535156 L 376.167969 122.039062 L 385.664062 131.535156 L 376.167969 141.03125 Z M 366.671875 131.535156 "/></g></g></g><g clip-rule="nonzero" clip-path="url(#ad2be75b34)"><g clip-rule="nonzero" clip-path="url(#9acf044493)"><g clip-rule="nonzero" clip-path="url(#76f7a076fa)"><path style=" stroke:none;fill-rule:nonzero;fill:#ffffff;fill-opacity:1;" d="M 366.886719 9.796875 L 376.382812 0.300781 L 385.878906 9.796875 L 376.382812 19.292969 Z M 366.886719 9.796875 "/></g></g></g></g><mask id="cf355fbafa"><g filter="url(#175c39070d)"><rect x="0" width="750" y="0" height="749.999995" style="fill:#000000;fill-opacity:0.2;stroke:none;"/></g></mask></g></g></svg>