<svg xmlns="http://www.w3.org/2000/svg" xmlns:xlink="http://www.w3.org/1999/xlink" width="500" zoomAndPan="magnify" viewBox="0 0 375 374.999991" height="500" preserveAspectRatio="xMidYMid meet" version="1.2"><defs><filter x="0%" y="0%" width="100%" filterUnits="objectBoundingBox" id="d676f3f049" height="100%"><feColorMatrix values="0 0 0 0 1 0 0 0 0 1 0 0 0 0 1 0 0 0 1 0" type="matrix" in="SourceGraphic"/></filter><clipPath id="0002449a5d"><path d="M 0.28125 0.703125 L 10 0.703125 L 10 11 L 0.28125 11 Z M 0.28125 0.703125 "/></clipPath><clipPath id="fa6381972d"><path d="M 0.28125 61 L 10 61 L 10 71 L 0.28125 71 Z M 0.28125 61 "/></clipPath><clipPath id="8b925088f1"><path d="M 0.28125 122 L 10 122 L 10 132 L 0.28125 132 Z M 0.28125 122 "/></clipPath><clipPath id="ebb5eaa2df"><path d="M 0.28125 182 L 10 182 L 10 193 L 0.28125 193 Z M 0.28125 182 "/></clipPath><clipPath id="29b56e739f"><path d="M 0.28125 243 L 10 243 L 10 253 L 0.28125 253 Z M 0.28125 243 "/></clipPath><clipPath id="d981018e1c"><path d="M 0.28125 304 L 10 304 L 10 314 L 0.28125 314 Z M 0.28125 304 "/></clipPath><clipPath id="68dcb0bd02"><path d="M 0.28125 364 L 10 364 L 10 374.203125 L 0.28125 374.203125 Z M 0.28125 364 "/></clipPath><clipPath id="8694904bca"><path d="M 61 0.703125 L 71 0.703125 L 71 11 L 61 11 Z M 61 0.703125 "/></clipPath><clipPath id="862bf85109"><path d="M 61 364 L 71 364 L 71 374.203125 L 61 374.203125 Z M 61 364 "/></clipPath><clipPath id="8c67ae57ff"><path d="M 122 0.703125 L 132 0.703125 L 132 11 L 122 11 Z M 122 0.703125 "/></clipPath><clipPath id="60efb1e7d8"><path d="M 122 364 L 132 364 L 132 374.203125 L 122 374.203125 Z M 122 364 "/></clipPath><clipPath id="a8a1e52eb7"><path d="M 182 0.703125 L 192.519531 0.703125 L 192.519531 11 L 182 11 Z M 182 0.703125 "/></clipPath><clipPath id="a6d30e4f07"><path d="M 182 61 L 192.519531 61 L 192.519531 71 L 182 71 Z M 182 61 "/></clipPath><clipPath id="d5c08ebe3d"><path d="M 182 122 L 192.519531 122 L 192.519531 132 L 182 132 Z M 182 122 "/></clipPath><clipPath id="3785fd7318"><path d="M 182 182 L 192.519531 182 L 192.519531 193 L 182 193 Z M 182 182 "/></clipPath><clipPath id="31551b3c2b"><path d="M 182 243 L 192.519531 243 L 192.519531 253 L 182 253 Z M 182 243 "/></clipPath><clipPath id="daa614a88a"><path d="M 182 304 L 192.519531 304 L 192.519531 314 L 182 314 Z M 182 304 "/></clipPath><clipPath id="e3ec868090"><path d="M 182 364 L 192.519531 364 L 192.519531 374.203125 L 182 374.203125 Z M 182 364 "/></clipPath><clipPath id="6ad1269faa"><rect x="0" width="193" y="0" height="375"/></clipPath></defs><g id="657e28becc"><g mask="url(#4326922f6e)" transform="matrix(1,0,0,1,173,0)"><g clip-path="url(#6ad1269faa)"><g clip-rule="nonzero" clip-path="url(#0002449a5d)"><path style=" stroke:none;fill-rule:nonzero;fill:#ffffff;fill-opacity:1;" d="M 0.34375 0.710938 L 9.824219 0.710938 L 9.824219 10.191406 L 0.34375 10.191406 Z M 0.34375 0.710938 "/></g><g clip-rule="nonzero" clip-path="url(#fa6381972d)"><path style=" stroke:none;fill-rule:nonzero;fill:#ffffff;fill-opacity:1;" d="M 0.34375 61.382812 L 9.824219 61.382812 L 9.824219 70.863281 L 0.34375 70.863281 Z M 0.34375 61.382812 "/></g><g clip-rule="nonzero" clip-path="url(#8b925088f1)"><path style=" stroke:none;fill-rule:nonzero;fill:#ffffff;fill-opacity:1;" d="M 0.34375 122.050781 L 9.824219 122.050781 L 9.824219 131.53125 L 0.34375 131.53125 Z M 0.34375 122.050781 "/></g><g clip-rule="nonzero" clip-path="url(#ebb5eaa2df)"><path style=" stroke:none;fill-rule:nonzero;fill:#ffffff;fill-opacity:1;" d="M 0.34375 182.722656 L 9.824219 182.722656 L 9.824219 192.207031 L 0.34375 192.207031 Z M 0.34375 182.722656 "/></g><g clip-rule="nonzero" clip-path="url(#29b56e739f)"><path style=" stroke:none;fill-rule:nonzero;fill:#ffffff;fill-opacity:1;" d="M 0.34375 243.394531 L 9.824219 243.394531 L 9.824219 252.875 L 0.34375 252.875 Z M 0.34375 243.394531 "/></g><g clip-rule="nonzero" clip-path="url(#d981018e1c)"><path style=" stroke:none;fill-rule:nonzero;fill:#ffffff;fill-opacity:1;" d="M 0.34375 304.066406 L 9.824219 304.066406 L 9.824219 313.546875 L 0.34375 313.546875 Z M 0.34375 304.066406 "/></g><g clip-rule="nonzero" clip-path="url(#68dcb0bd02)"><path style=" stroke:none;fill-rule:nonzero;fill:#ffffff;fill-opacity:1;" d="M 0.34375 364.738281 L 9.824219 364.738281 L 9.824219 374.21875 L 0.34375 374.21875 Z M 0.34375 364.738281 "/></g><g clip-rule="nonzero" clip-path="url(#8694904bca)"><path style=" stroke:none;fill-rule:nonzero;fill:#ffffff;fill-opacity:1;" d="M 61.222656 0.710938 L 70.703125 0.710938 L 70.703125 10.191406 L 61.222656 10.191406 Z M 61.222656 0.710938 "/></g><path style=" stroke:none;fill-rule:nonzero;fill:#ffffff;fill-opacity:1;" d="M 61.222656 61.382812 L 70.703125 61.382812 L 70.703125 70.863281 L 61.222656 70.863281 Z M 61.222656 61.382812 "/><path style=" stroke:none;fill-rule:nonzero;fill:#ffffff;fill-opacity:1;" d="M 61.222656 122.050781 L 70.703125 122.050781 L 70.703125 131.53125 L 61.222656 131.53125 Z M 61.222656 122.050781 "/><path style=" stroke:none;fill-rule:nonzero;fill:#ffffff;fill-opacity:1;" d="M 61.222656 182.722656 L 70.703125 182.722656 L 70.703125 192.207031 L 61.222656 192.207031 Z M 61.222656 182.722656 "/><path style=" stroke:none;fill-rule:nonzero;fill:#ffffff;fill-opacity:1;" d="M 61.222656 243.394531 L 70.703125 243.394531 L 70.703125 252.875 L 61.222656 252.875 Z M 61.222656 243.394531 "/><path style=" stroke:none;fill-rule:nonzero;fill:#ffffff;fill-opacity:1;" d="M 61.222656 304.066406 L 70.703125 304.066406 L 70.703125 313.546875 L 61.222656 313.546875 Z M 61.222656 304.066406 "/><g clip-rule="nonzero" clip-path="url(#862bf85109)"><path style=" stroke:none;fill-rule:nonzero;fill:#ffffff;fill-opacity:1;" d="M 61.222656 364.738281 L 70.703125 364.738281 L 70.703125 374.21875 L 61.222656 374.21875 Z M 61.222656 364.738281 "/></g><g clip-rule="nonzero" clip-path="url(#8c67ae57ff)"><path style=" stroke:none;fill-rule:nonzero;fill:#ffffff;fill-opacity:1;" d="M 122.109375 0.710938 L 131.589844 0.710938 L 131.589844 10.191406 L 122.109375 10.191406 Z M 122.109375 0.710938 "/></g><path style=" stroke:none;fill-rule:nonzero;fill:#ffffff;fill-opacity:1;" d="M 122.109375 61.382812 L 131.589844 61.382812 L 131.589844 70.863281 L 122.109375 70.863281 Z M 122.109375 61.382812 "/><path style=" stroke:none;fill-rule:nonzero;fill:#ffffff;fill-opacity:1;" d="M 122.109375 122.050781 L 131.589844 122.050781 L 131.589844 131.53125 L 122.109375 131.53125 Z M 122.109375 122.050781 "/><path style=" stroke:none;fill-rule:nonzero;fill:#ffffff;fill-opacity:1;" d="M 122.109375 182.722656 L 131.589844 182.722656 L 131.589844 192.207031 L 122.109375 192.207031 Z M 122.109375 182.722656 "/><path style=" stroke:none;fill-rule:nonzero;fill:#ffffff;fill-opacity:1;" d="M 122.109375 243.394531 L 131.589844 243.394531 L 131.589844 252.875 L 122.109375 252.875 Z M 122.109375 243.394531 "/><path style=" stroke:none;fill-rule:nonzero;fill:#ffffff;fill-opacity:1;" d="M 122.109375 304.066406 L 131.589844 304.066406 L 131.589844 313.546875 L 122.109375 313.546875 Z M 122.109375 304.066406 "/><g clip-rule="nonzero" clip-path="url(#60efb1e7d8)"><path style=" stroke:none;fill-rule:nonzero;fill:#ffffff;fill-opacity:1;" d="M 122.109375 364.738281 L 131.589844 364.738281 L 131.589844 374.21875 L 122.109375 374.21875 Z M 122.109375 364.738281 "/></g><g clip-rule="nonzero" clip-path="url(#a8a1e52eb7)"><path style=" stroke:none;fill-rule:nonzero;fill:#ffffff;fill-opacity:1;" d="M 182.992188 0.710938 L 192.472656 0.710938 L 192.472656 10.191406 L 182.992188 10.191406 Z M 182.992188 0.710938 "/></g><g clip-rule="nonzero" clip-path="url(#a6d30e4f07)"><path style=" stroke:none;fill-rule:nonzero;fill:#ffffff;fill-opacity:1;" d="M 182.992188 61.382812 L 192.472656 61.382812 L 192.472656 70.863281 L 182.992188 70.863281 Z M 182.992188 61.382812 "/></g><g clip-rule="nonzero" clip-path="url(#d5c08ebe3d)"><path style=" stroke:none;fill-rule:nonzero;fill:#ffffff;fill-opacity:1;" d="M 182.992188 122.050781 L 192.472656 122.050781 L 192.472656 131.53125 L 182.992188 131.53125 Z M 182.992188 122.050781 "/></g><g clip-rule="nonzero" clip-path="url(#3785fd7318)"><path style=" stroke:none;fill-rule:nonzero;fill:#ffffff;fill-opacity:1;" d="M 182.992188 182.722656 L 192.472656 182.722656 L 192.472656 192.207031 L 182.992188 192.207031 Z M 182.992188 182.722656 "/></g><g clip-rule="nonzero" clip-path="url(#31551b3c2b)"><path style=" stroke:none;fill-rule:nonzero;fill:#ffffff;fill-opacity:1;" d="M 182.992188 243.394531 L 192.472656 243.394531 L 192.472656 252.875 L 182.992188 252.875 Z M 182.992188 243.394531 "/></g><g clip-rule="nonzero" clip-path="url(#daa614a88a)"><path style=" stroke:none;fill-rule:nonzero;fill:#ffffff;fill-opacity:1;" d="M 182.992188 304.066406 L 192.472656 304.066406 L 192.472656 313.546875 L 182.992188 313.546875 Z M 182.992188 304.066406 "/></g><g clip-rule="nonzero" clip-path="url(#e3ec868090)"><path style=" stroke:none;fill-rule:nonzero;fill:#ffffff;fill-opacity:1;" d="M 182.992188 364.738281 L 192.472656 364.738281 L 192.472656 374.21875 L 182.992188 374.21875 Z M 182.992188 364.738281 "/></g></g><mask id="4326922f6e"><g filter="url(#d676f3f049)"><rect x="0" width="375" y="0" height="374.999991" style="fill:#000000;fill-opacity:0.2;stroke:none;"/></g></mask></g></g></svg>