<svg xmlns="http://www.w3.org/2000/svg" xmlns:xlink="http://www.w3.org/1999/xlink" width="1000" zoomAndPan="magnify" viewBox="0 0 750 749.999995" height="1000" preserveAspectRatio="xMidYMid meet" version="1.2"><defs><filter x="0%" y="0%" width="100%" filterUnits="objectBoundingBox" id="b27ff9c03c" height="100%"><feColorMatrix values="0 0 0 0 1 0 0 0 0 1 0 0 0 0 1 0 0 0 1 0" type="matrix" in="SourceGraphic"/></filter><clipPath id="0a7701e4f9"><rect x="0" width="750" y="0" height="750"/></clipPath></defs><g id="3dc616aeca"><g mask="url(#7db860301d)" transform="matrix(1,0,0,1,0,-0.000000000000042435)"><g clip-path="url(#0a7701e4f9)"><path style=" stroke:none;fill-rule:nonzero;fill:#ffffff;fill-opacity:1;" d="M 420.84375 347.128906 C 420.960938 356.957031 413.015625 365.0625 403.164062 365.171875 C 393.335938 365.289062 385.238281 357.339844 385.121094 347.488281 C 385.011719 337.671875 392.949219 329.5625 402.800781 329.445312 C 412.628906 329.335938 420.726562 337.285156 420.84375 347.128906 "/><path style=" stroke:none;fill-rule:nonzero;fill:#ffffff;fill-opacity:1;" d="M 345.28125 329.78125 C 355.140625 329.722656 362.820312 337.226562 362.945312 347.035156 C 363.066406 357.132812 355.335938 364.910156 345.257812 364.84375 C 335.429688 364.777344 327.875 357.148438 327.886719 347.304688 C 327.886719 337.453125 335.445312 329.839844 345.28125 329.78125 "/><path style=" stroke:none;fill-rule:nonzero;fill:#ffffff;fill-opacity:1;" d="M 420.550781 403.714844 C 420.558594 413.570312 412.972656 421.230469 403.136719 421.296875 C 393.058594 421.375 385.285156 413.550781 385.414062 403.449219 C 385.539062 393.644531 393.25 386.101562 403.113281 386.160156 C 412.957031 386.21875 420.550781 393.863281 420.550781 403.714844 "/><path style=" stroke:none;fill-rule:nonzero;fill:#ffffff;fill-opacity:1;" d="M 345.347656 421.105469 C 335.5625 421.078125 327.945312 413.332031 328.035156 403.523438 C 328.128906 393.761719 335.933594 386.203125 345.761719 386.351562 C 355.277344 386.503906 362.753906 394.097656 362.789062 403.648438 C 362.820312 413.441406 355.140625 421.128906 345.347656 421.105469 "/><path style=" stroke:none;fill-rule:nonzero;fill:#ffffff;fill-opacity:1;" d="M 419.914062 290.363281 C 419.460938 299.5625 411.503906 307.023438 402.5 306.679688 C 393.109375 306.324219 385.4375 297.992188 386.074219 288.835938 C 386.730469 279.589844 394.785156 272.296875 403.75 272.824219 C 412.980469 273.378906 420.347656 281.375 419.914062 290.363281 "/><path style=" stroke:none;fill-rule:nonzero;fill:#ffffff;fill-opacity:1;" d="M 476.332031 347.898438 C 475.914062 357.089844 467.964844 364.566406 458.953125 364.246094 C 449.570312 363.929688 441.875 355.597656 442.496094 346.441406 C 443.117188 337.191406 451.15625 329.882812 460.128906 330.394531 C 469.351562 330.914062 476.746094 338.902344 476.332031 347.898438 "/><path style=" stroke:none;fill-rule:nonzero;fill:#ffffff;fill-opacity:1;" d="M 459.230469 420.464844 C 449.957031 420.367188 442.460938 412.652344 442.65625 403.421875 C 442.855469 394.132812 450.644531 386.695312 459.859375 386.992188 C 468.929688 387.277344 476.15625 394.71875 476.140625 403.75 C 476.132812 413.023438 468.488281 420.574219 459.230469 420.464844 "/><path style=" stroke:none;fill-rule:nonzero;fill:#ffffff;fill-opacity:1;" d="M 345.367188 273.144531 C 354.75 273.117188 362.140625 280.59375 362.007812 289.984375 C 361.882812 299.132812 354.613281 306.316406 345.457031 306.34375 C 336.074219 306.367188 328.683594 298.882812 328.808594 289.5 C 328.941406 280.351562 336.210938 273.167969 345.367188 273.144531 "/><path style=" stroke:none;fill-rule:nonzero;fill:#ffffff;fill-opacity:1;" d="M 402.816406 444.988281 C 412.042969 444.921875 419.226562 451.953125 419.292969 461.136719 C 419.367188 470.359375 412.328125 477.542969 403.144531 477.609375 C 393.921875 477.675781 386.738281 470.644531 386.671875 461.460938 C 386.605469 452.238281 393.636719 445.054688 402.816406 444.988281 "/><path style=" stroke:none;fill-rule:nonzero;fill:#ffffff;fill-opacity:1;" d="M 305.183594 403.925781 C 305.09375 413.023438 297.671875 420.148438 288.507812 419.921875 C 279.671875 419.703125 272.714844 412.445312 272.800781 403.53125 C 272.890625 394.433594 280.308594 387.316406 289.472656 387.535156 C 298.3125 387.753906 305.269531 395.011719 305.183594 403.925781 "/><path style=" stroke:none;fill-rule:nonzero;fill:#ffffff;fill-opacity:1;" d="M 345.683594 477.492188 C 336.539062 477.617188 329.210938 470.410156 329.21875 461.285156 C 329.226562 452.390625 336.277344 445.230469 345.140625 445.105469 C 354.285156 444.980469 361.613281 452.1875 361.605469 461.3125 C 361.597656 470.207031 354.546875 477.367188 345.683594 477.492188 "/><path style=" stroke:none;fill-rule:nonzero;fill:#ffffff;fill-opacity:1;" d="M 289.019531 363.585938 C 279.816406 363.601562 272.664062 356.417969 272.714844 347.203125 C 272.765625 337.996094 280 330.921875 289.246094 331.03125 C 298.195312 331.140625 305.191406 338.183594 305.269531 347.136719 C 305.34375 356.367188 298.234375 363.578125 289.019531 363.585938 "/><path style=" stroke:none;fill-rule:nonzero;fill:#ffffff;fill-opacity:1;" d="M 459.558594 273.628906 C 468.351562 273.707031 475.519531 280.949219 475.519531 289.75 C 475.511719 298.773438 468 306.089844 458.960938 305.855469 C 450.183594 305.628906 443.132812 298.253906 443.285156 289.449219 C 443.4375 280.644531 450.738281 273.546875 459.558594 273.628906 "/><path style=" stroke:none;fill-rule:nonzero;fill:#ffffff;fill-opacity:1;" d="M 475.21875 461.226562 C 475.265625 469.71875 467.992188 477.0625 459.472656 477.113281 C 450.980469 477.164062 443.636719 469.886719 443.585938 461.371094 C 443.535156 452.878906 450.8125 445.535156 459.332031 445.484375 C 467.824219 445.433594 475.167969 452.710938 475.21875 461.226562 "/><path style=" stroke:none;fill-rule:nonzero;fill:#ffffff;fill-opacity:1;" d="M 304.746094 289.53125 C 304.890625 297.992188 297.730469 305.351562 289.207031 305.503906 C 280.738281 305.644531 273.378906 298.488281 273.234375 289.953125 C 273.085938 281.492188 280.25 274.132812 288.777344 273.984375 C 297.246094 273.839844 304.605469 281 304.746094 289.53125 "/><path style=" stroke:none;fill-rule:nonzero;fill:#ffffff;fill-opacity:1;" d="M 289.734375 446.078125 C 298.253906 446.40625 304.539062 453.332031 304.210938 462.042969 C 303.882812 470.558594 296.953125 476.84375 288.25 476.519531 C 279.730469 476.191406 273.445312 469.265625 273.773438 460.554688 C 274.101562 452.039062 281.03125 445.753906 289.734375 446.078125 "/><path style=" stroke:none;fill-rule:nonzero;fill:#ffffff;fill-opacity:1;" d="M 517.152344 332.082031 C 525.746094 332.15625 532.292969 338.863281 532.207031 347.496094 C 532.132812 356.082031 525.425781 362.628906 516.792969 362.542969 C 508.199219 362.46875 501.660156 355.761719 501.734375 347.128906 C 501.820312 338.542969 508.523438 331.996094 517.152344 332.082031 "/><path style=" stroke:none;fill-rule:nonzero;fill:#ffffff;fill-opacity:1;" d="M 418.21875 233.144531 C 418.300781 241.78125 411.753906 248.480469 403.164062 248.5625 C 394.527344 248.636719 387.828125 242.09375 387.746094 233.507812 C 387.671875 224.871094 394.214844 218.167969 402.800781 218.089844 C 411.4375 218.007812 418.140625 224.554688 418.21875 233.144531 "/><path style=" stroke:none;fill-rule:nonzero;fill:#ffffff;fill-opacity:1;" d="M 532.164062 403.574219 C 532.234375 412.25 525.644531 418.914062 516.984375 418.921875 C 508.324219 418.921875 501.726562 412.277344 501.785156 403.597656 C 501.835938 395.191406 508.289062 388.667969 516.675781 388.542969 C 525.367188 388.410156 532.089844 394.9375 532.164062 403.574219 "/><path style=" stroke:none;fill-rule:nonzero;fill:#ffffff;fill-opacity:1;" d="M 345.464844 218.207031 C 354.027344 218.226562 360.621094 224.929688 360.53125 233.523438 C 360.445312 242.058594 353.683594 248.597656 345.070312 248.445312 C 336.78125 248.300781 330.328125 241.75 330.292969 233.414062 C 330.25 224.847656 336.898438 218.175781 345.464844 218.207031 "/><path style=" stroke:none;fill-rule:nonzero;fill:#ffffff;fill-opacity:1;" d="M 516.765625 274.898438 C 524.839844 274.769531 531.871094 281.738281 531.8125 289.828125 C 531.761719 297.707031 525.074219 304.453125 517.175781 304.582031 C 509.105469 304.714844 502.082031 297.75 502.128906 289.660156 C 502.179688 281.777344 508.878906 275.03125 516.765625 274.898438 "/><path style=" stroke:none;fill-rule:nonzero;fill:#ffffff;fill-opacity:1;" d="M 246.222656 403.582031 C 246.320312 411.4375 239.617188 418.34375 231.710938 418.535156 C 223.65625 418.730469 216.523438 411.664062 216.613281 403.589844 C 216.707031 395.683594 223.539062 388.929688 231.417969 388.929688 C 239.296875 388.929688 246.128906 395.683594 246.222656 403.582031 "/><path style=" stroke:none;fill-rule:nonzero;fill:#ffffff;fill-opacity:1;" d="M 231.308594 362.148438 C 223.203125 362.082031 216.320312 354.957031 216.582031 346.910156 C 216.832031 339.011719 223.679688 332.398438 231.535156 332.46875 C 239.640625 332.542969 246.523438 339.660156 246.261719 347.707031 C 246.003906 355.613281 239.164062 362.226562 231.308594 362.148438 "/><path style=" stroke:none;fill-rule:nonzero;fill:#ffffff;fill-opacity:1;" d="M 474.242188 233.539062 C 474.101562 241.648438 466.917969 248.488281 458.894531 248.160156 C 450.988281 247.839844 444.425781 240.941406 444.5625 233.105469 C 444.703125 224.996094 451.886719 218.15625 459.910156 218.484375 C 467.816406 218.804688 474.386719 225.703125 474.242188 233.539062 "/><path style=" stroke:none;fill-rule:nonzero;fill:#ffffff;fill-opacity:1;" d="M 360.253906 517.789062 C 360.203125 525.898438 353.113281 532.796875 345.054688 532.558594 C 337.148438 532.324219 330.519531 525.503906 330.570312 517.648438 C 330.613281 509.53125 337.710938 502.640625 345.769531 502.878906 C 353.675781 503.105469 360.296875 509.925781 360.253906 517.789062 "/><path style=" stroke:none;fill-rule:nonzero;fill:#ffffff;fill-opacity:1;" d="M 417.914062 517.648438 C 417.957031 525.878906 411.144531 532.6875 402.910156 532.644531 C 394.679688 532.609375 387.929688 525.730469 388.046875 517.503906 C 388.164062 509.5 394.761719 502.902344 402.769531 502.785156 C 410.992188 502.660156 417.875 509.40625 417.914062 517.648438 "/><path style=" stroke:none;fill-rule:nonzero;fill:#ffffff;fill-opacity:1;" d="M 289.0625 218.804688 C 297.011719 218.855469 303.648438 225.617188 303.515625 233.539062 C 303.371094 241.503906 296.53125 248.074219 288.636719 247.839844 C 280.878906 247.613281 274.519531 241.128906 274.46875 233.398438 C 274.425781 225.460938 281.125 218.761719 289.0625 218.804688 "/><path style=" stroke:none;fill-rule:nonzero;fill:#ffffff;fill-opacity:1;" d="M 516.742188 475.820312 C 508.769531 475.660156 502.207031 468.8125 502.449219 460.917969 C 502.710938 452.9375 509.609375 446.449219 517.496094 446.785156 C 525.265625 447.128906 531.554688 453.683594 531.496094 461.394531 C 531.425781 469.34375 524.65625 475.972656 516.742188 475.820312 "/><path style=" stroke:none;fill-rule:nonzero;fill:#ffffff;fill-opacity:1;" d="M 473.679688 517.78125 C 473.640625 525.710938 467.414062 531.949219 459.480469 531.988281 C 451.324219 532.03125 444.9375 525.527344 445.132812 517.363281 C 445.316406 509.449219 451.675781 503.339844 459.617188 503.441406 C 467.539062 503.546875 473.714844 509.851562 473.679688 517.78125 "/><path style=" stroke:none;fill-rule:nonzero;fill:#ffffff;fill-opacity:1;" d="M 245.558594 289.851562 C 245.507812 297.847656 239.332031 303.933594 231.308594 303.882812 C 223.3125 303.832031 217.226562 297.648438 217.277344 289.632812 C 217.328125 281.636719 223.511719 275.542969 231.535156 275.601562 C 239.53125 275.652344 245.617188 281.835938 245.558594 289.851562 "/><path style=" stroke:none;fill-rule:nonzero;fill:#ffffff;fill-opacity:1;" d="M 289.046875 503.75 C 297.027344 503.785156 303.113281 510.035156 302.953125 518.058594 C 302.808594 525.789062 296.714844 531.703125 288.9375 531.679688 C 280.957031 531.652344 274.871094 525.394531 275.023438 517.378906 C 275.175781 509.648438 281.265625 503.726562 289.046875 503.75 "/><path style=" stroke:none;fill-rule:nonzero;fill:#ffffff;fill-opacity:1;" d="M 245.324219 461.085938 C 245.425781 468.839844 239.464844 475.039062 231.769531 475.199219 C 223.796875 475.375 217.476562 469.175781 217.511719 461.226562 C 217.554688 453.5 223.628906 447.421875 231.351562 447.398438 C 239.089844 447.363281 245.230469 453.378906 245.324219 461.085938 "/><path style=" stroke:none;fill-rule:nonzero;fill:#ffffff;fill-opacity:1;" d="M 516.800781 247.050781 C 509.273438 246.941406 502.960938 240.328125 503.246094 232.859375 C 503.523438 225.550781 509.875 219.492188 517.144531 219.59375 C 524.671875 219.703125 530.992188 226.316406 530.707031 233.785156 C 530.429688 241.09375 524.074219 247.160156 516.800781 247.050781 "/><path style=" stroke:none;fill-rule:nonzero;fill:#ffffff;fill-opacity:1;" d="M 573.589844 333.617188 C 580.914062 333.742188 587.117188 340.054688 587.082031 347.363281 C 587.050781 354.898438 580.394531 361.3125 572.910156 361 C 565.566406 360.699219 559.492188 354.246094 559.699219 346.976562 C 559.910156 339.632812 566.296875 333.5 573.589844 333.617188 "/><path style=" stroke:none;fill-rule:nonzero;fill:#ffffff;fill-opacity:1;" d="M 416.671875 175.820312 C 416.632812 183.136719 410.386719 189.398438 403.0625 189.449219 C 395.535156 189.5 389.0625 182.902344 389.289062 175.410156 C 389.507812 168.066406 395.902344 161.929688 403.1875 162.066406 C 410.515625 162.191406 416.714844 168.511719 416.671875 175.820312 "/><path style=" stroke:none;fill-rule:nonzero;fill:#ffffff;fill-opacity:1;" d="M 345.367188 189.3125 C 338.066406 189.28125 331.820312 182.996094 331.855469 175.710938 C 331.886719 168.410156 338.171875 162.164062 345.457031 162.199219 C 352.757812 162.234375 359.003906 168.519531 358.96875 175.804688 C 358.9375 183.105469 352.648438 189.339844 345.367188 189.3125 "/><path style=" stroke:none;fill-rule:nonzero;fill:#ffffff;fill-opacity:1;" d="M 586.992188 403.523438 C 587.125 410.773438 580.890625 417.195312 573.597656 417.328125 C 566.355469 417.460938 559.925781 411.226562 559.792969 403.933594 C 559.660156 396.691406 565.894531 390.273438 573.1875 390.128906 C 580.429688 389.996094 586.855469 396.230469 586.992188 403.523438 "/><path style=" stroke:none;fill-rule:nonzero;fill:#ffffff;fill-opacity:1;" d="M 530.320312 518 C 530.144531 525.410156 523.75 531.410156 516.40625 531.050781 C 509.1875 530.695312 503.449219 524.585938 503.625 517.4375 C 503.800781 510.027344 510.203125 504.019531 517.539062 504.378906 C 524.753906 504.742188 530.496094 510.851562 530.320312 518 "/><path style=" stroke:none;fill-rule:nonzero;fill:#ffffff;fill-opacity:1;" d="M 244.566406 233.558594 C 244.449219 240.851562 238.636719 246.523438 231.324219 246.472656 C 223.804688 246.421875 217.988281 240.328125 218.277344 232.800781 C 218.550781 225.527344 224.492188 219.972656 231.796875 220.171875 C 239.078125 220.375 244.703125 226.257812 244.566406 233.558594 "/><path style=" stroke:none;fill-rule:nonzero;fill:#ffffff;fill-opacity:1;" d="M 586.472656 289.917969 C 586.378906 297.269531 580.597656 302.902344 573.21875 302.816406 C 565.859375 302.734375 560.230469 296.941406 560.320312 289.566406 C 560.40625 282.214844 566.1875 276.585938 573.574219 276.667969 C 580.925781 276.75 586.554688 282.535156 586.472656 289.917969 "/><path style=" stroke:none;fill-rule:nonzero;fill:#ffffff;fill-opacity:1;" d="M 459.632812 188.695312 C 452.207031 188.800781 446.5 183.230469 446.457031 175.835938 C 446.421875 168.425781 452.054688 162.785156 459.464844 162.8125 C 466.632812 162.835938 472.179688 168.257812 472.347656 175.382812 C 472.515625 182.820312 466.992188 188.59375 459.632812 188.695312 "/><path style=" stroke:none;fill-rule:nonzero;fill:#ffffff;fill-opacity:1;" d="M 288.84375 188.535156 C 281.71875 188.464844 276.207031 182.878906 276.214844 175.746094 C 276.214844 168.402344 282.046875 162.761719 289.425781 162.972656 C 296.5 163.171875 301.910156 168.894531 301.769531 176.046875 C 301.632812 183.136719 295.96875 188.601562 288.84375 188.535156 "/><path style=" stroke:none;fill-rule:nonzero;fill:#ffffff;fill-opacity:1;" d="M 187.804688 347.445312 C 187.738281 354.613281 182.191406 360.109375 175.003906 360.109375 C 167.613281 360.117188 162.007812 354.328125 162.199219 346.882812 C 162.382812 339.777344 168.082031 334.390625 175.28125 334.507812 C 182.417969 334.632812 187.863281 340.261719 187.804688 347.445312 "/><path style=" stroke:none;fill-rule:nonzero;fill:#ffffff;fill-opacity:1;" d="M 573.238281 474.101562 C 566.078125 474.035156 560.589844 468.46875 560.589844 461.285156 C 560.597656 453.894531 566.398438 448.296875 573.839844 448.496094 C 580.949219 448.691406 586.328125 454.394531 586.195312 461.597656 C 586.058594 468.722656 580.421875 474.167969 573.238281 474.101562 "/><path style=" stroke:none;fill-rule:nonzero;fill:#ffffff;fill-opacity:1;" d="M 345.222656 562.488281 C 352.40625 562.402344 358.0625 567.824219 358.214844 574.949219 C 358.375 582.382812 352.726562 588.132812 345.316406 588.089844 C 338.148438 588.050781 332.636719 582.511719 332.609375 575.335938 C 332.585938 568.152344 338.066406 562.570312 345.222656 562.488281 "/><path style=" stroke:none;fill-rule:nonzero;fill:#ffffff;fill-opacity:1;" d="M 415.875 575.007812 C 416.003906 582.476562 410.414062 588.183594 402.976562 588.175781 C 395.761719 588.175781 390.214844 582.738281 390.097656 575.5625 C 389.960938 568.101562 395.558594 562.394531 402.996094 562.394531 C 410.203125 562.402344 415.75 567.832031 415.875 575.007812 "/><path style=" stroke:none;fill-rule:nonzero;fill:#ffffff;fill-opacity:1;" d="M 162.242188 402.894531 C 162.628906 395.871094 168.535156 390.632812 175.703125 390.960938 C 182.960938 391.289062 188.308594 397.457031 187.746094 404.859375 C 187.226562 411.839844 181.191406 416.949219 174.015625 416.480469 C 167.015625 416.035156 161.839844 410.0625 162.242188 402.894531 "/><path style=" stroke:none;fill-rule:nonzero;fill:#ffffff;fill-opacity:1;" d="M 244.125 517.773438 C 244.097656 524.824219 238.425781 530.445312 231.367188 530.421875 C 224.308594 530.386719 218.6875 524.722656 218.71875 517.664062 C 218.746094 510.605469 224.417969 504.984375 231.476562 505.015625 C 238.535156 505.042969 244.148438 510.714844 244.125 517.773438 "/><path style=" stroke:none;fill-rule:nonzero;fill:#ffffff;fill-opacity:1;" d="M 471.984375 575.007812 C 472.152344 581.929688 466.339844 587.871094 459.398438 587.863281 C 452.675781 587.863281 446.984375 582.292969 446.816406 575.570312 C 446.648438 568.644531 452.464844 562.695312 459.40625 562.703125 C 466.128906 562.703125 471.816406 568.277344 471.984375 575.007812 "/><path style=" stroke:none;fill-rule:nonzero;fill:#ffffff;fill-opacity:1;" d="M 175.222656 277.238281 C 181.929688 277.382812 187.644531 283.316406 187.511719 289.96875 C 187.359375 296.675781 181.433594 302.390625 174.777344 302.246094 C 168.074219 302.105469 162.351562 296.171875 162.492188 289.515625 C 162.644531 282.8125 168.570312 277.097656 175.222656 277.238281 "/><path style=" stroke:none;fill-rule:nonzero;fill:#ffffff;fill-opacity:1;" d="M 288.710938 562.957031 C 295.367188 562.761719 301.332031 568.597656 301.324219 575.292969 C 301.324219 581.773438 295.785156 587.4375 289.273438 587.621094 C 282.609375 587.804688 276.652344 581.972656 276.660156 575.285156 C 276.660156 568.796875 282.199219 563.132812 288.710938 562.957031 "/><path style=" stroke:none;fill-rule:nonzero;fill:#ffffff;fill-opacity:1;" d="M 187.332031 461.335938 C 187.316406 468.035156 181.332031 473.847656 174.679688 473.628906 C 168.167969 473.421875 162.644531 467.738281 162.660156 461.261719 C 162.6875 454.5625 168.667969 448.75 175.324219 448.964844 C 181.835938 449.175781 187.359375 454.859375 187.332031 461.335938 "/><path style=" stroke:none;fill-rule:nonzero;fill:#ffffff;fill-opacity:1;" d="M 529.027344 175.609375 C 529.109375 182.273438 523.78125 187.71875 517.117188 187.804688 C 510.457031 187.886719 505.007812 182.566406 504.925781 175.902344 C 504.839844 169.242188 510.160156 163.785156 516.824219 163.703125 C 523.488281 163.625 528.941406 168.945312 529.027344 175.609375 "/><path style=" stroke:none;fill-rule:nonzero;fill:#ffffff;fill-opacity:1;" d="M 585.449219 233.179688 C 585.523438 239.84375 580.203125 245.289062 573.539062 245.375 C 566.875 245.457031 561.421875 240.136719 561.34375 233.464844 C 561.261719 226.808594 566.582031 221.355469 573.246094 221.273438 C 579.910156 221.1875 585.363281 226.515625 585.449219 233.179688 "/><path style=" stroke:none;fill-rule:nonzero;fill:#ffffff;fill-opacity:1;" d="M 528.515625 575.445312 C 528.429688 581.898438 523.136719 586.984375 516.675781 586.832031 C 510.230469 586.671875 505.195312 581.308594 505.429688 574.839844 C 505.65625 568.628906 510.75 563.738281 516.984375 563.746094 C 523.453125 563.753906 528.597656 568.972656 528.515625 575.445312 "/><path style=" stroke:none;fill-rule:nonzero;fill:#ffffff;fill-opacity:1;" d="M 231.148438 164.214844 C 237.621094 164.070312 242.898438 169.164062 242.964844 175.625 C 243.03125 182.097656 237.871094 187.308594 231.402344 187.300781 C 225.164062 187.292969 220.089844 182.382812 219.878906 176.171875 C 219.660156 169.703125 224.703125 164.355469 231.148438 164.214844 "/><path style=" stroke:none;fill-rule:nonzero;fill:#ffffff;fill-opacity:1;" d="M 175.183594 221.816406 C 181.609375 221.917969 186.773438 227.363281 186.511719 233.792969 C 186.257812 239.996094 181.039062 244.929688 174.820312 244.835938 C 168.394531 244.734375 163.230469 239.28125 163.492188 232.851562 C 163.734375 226.652344 168.964844 221.714844 175.183594 221.816406 "/><path style=" stroke:none;fill-rule:nonzero;fill:#ffffff;fill-opacity:1;" d="M 642.503906 347.085938 C 642.632812 353.546875 637.511719 358.808594 631.050781 358.851562 C 624.570312 358.902344 619.394531 353.722656 619.417969 347.253906 C 619.453125 341.019531 624.371094 335.957031 630.597656 335.765625 C 637.066406 335.570312 642.386719 340.632812 642.503906 347.085938 "/><path style=" stroke:none;fill-rule:nonzero;fill:#ffffff;fill-opacity:1;" d="M 414.492188 119.300781 C 414.515625 125.734375 409.179688 130.980469 402.734375 130.847656 C 396.53125 130.710938 391.496094 125.585938 391.472656 119.382812 C 391.445312 112.9375 396.785156 107.691406 403.230469 107.828125 C 409.429688 107.960938 414.464844 113.089844 414.492188 119.300781 "/><path style=" stroke:none;fill-rule:nonzero;fill:#ffffff;fill-opacity:1;" d="M 573.632812 506.058594 C 580.160156 506.167969 585.09375 511.246094 585.054688 517.816406 C 585.003906 524.585938 579.699219 529.621094 572.867188 529.371094 C 566.371094 529.136719 561.554688 523.925781 561.730469 517.335938 C 561.90625 510.824219 567.050781 505.949219 573.632812 506.058594 "/><path style=" stroke:none;fill-rule:nonzero;fill:#ffffff;fill-opacity:1;" d="M 356.855469 119.558594 C 356.730469 125.695312 351.449219 130.828125 345.332031 130.78125 C 338.980469 130.730469 333.660156 125.132812 333.96875 118.828125 C 334.269531 112.695312 339.691406 107.675781 345.777344 107.894531 C 351.902344 108.113281 356.988281 113.464844 356.855469 119.558594 "/><path style=" stroke:none;fill-rule:nonzero;fill:#ffffff;fill-opacity:1;" d="M 642.414062 403.859375 C 642.335938 409.992188 637.109375 415.164062 630.984375 415.171875 C 624.628906 415.179688 619.269531 409.632812 619.519531 403.3125 C 619.761719 397.1875 625.140625 392.125 631.234375 392.285156 C 637.371094 392.445312 642.488281 397.75 642.414062 403.859375 "/><path style=" stroke:none;fill-rule:nonzero;fill:#ffffff;fill-opacity:1;" d="M 231.402344 586.363281 C 225.476562 586.34375 220.425781 581.351562 220.347656 575.410156 C 220.265625 569.277344 225.601562 564.023438 231.726562 564.214844 C 237.6875 564.398438 242.585938 569.519531 242.496094 575.445312 C 242.394531 581.386719 237.324219 586.371094 231.402344 586.363281 "/><path style=" stroke:none;fill-rule:nonzero;fill:#ffffff;fill-opacity:1;" d="M 470.476562 119.257812 C 470.527344 125.191406 465.582031 130.265625 459.625 130.410156 C 453.480469 130.554688 448.195312 125.273438 448.328125 119.132812 C 448.453125 113.179688 453.539062 108.222656 459.464844 108.261719 C 465.40625 108.304688 470.425781 113.316406 470.476562 119.257812 "/><path style=" stroke:none;fill-rule:nonzero;fill:#ffffff;fill-opacity:1;" d="M 186.074219 517.855469 C 185.984375 523.800781 180.921875 528.792969 174.996094 528.792969 C 168.847656 528.792969 163.652344 523.394531 163.929688 517.285156 C 164.195312 511.328125 169.382812 506.46875 175.28125 506.644531 C 181.25 506.820312 186.160156 511.933594 186.074219 517.855469 "/><path style=" stroke:none;fill-rule:nonzero;fill:#ffffff;fill-opacity:1;" d="M 631.109375 300.8125 C 625.183594 300.90625 620.074219 295.996094 619.886719 290.035156 C 619.703125 283.910156 624.957031 278.582031 631.101562 278.664062 C 637.042969 278.757812 642.035156 283.808594 642.035156 289.734375 C 642.042969 295.660156 637.050781 300.71875 631.109375 300.8125 "/><path style=" stroke:none;fill-rule:nonzero;fill:#ffffff;fill-opacity:1;" d="M 641.726562 461.234375 C 641.757812 467.394531 637.042969 472.09375 630.890625 472.0625 C 624.738281 472.019531 620.089844 467.246094 620.207031 461.078125 C 620.316406 455.160156 624.839844 450.644531 630.757812 450.535156 C 636.917969 450.433594 641.691406 455.085938 641.726562 461.234375 "/><path style=" stroke:none;fill-rule:nonzero;fill:#ffffff;fill-opacity:1;" d="M 413.667969 631.863281 C 413.59375 638.050781 408.761719 642.613281 402.542969 642.386719 C 396.601562 642.179688 392.21875 637.539062 392.292969 631.546875 C 392.371094 625.359375 397.203125 620.796875 403.429688 621.023438 C 409.363281 621.230469 413.746094 625.871094 413.667969 631.863281 "/><path style=" stroke:none;fill-rule:nonzero;fill:#ffffff;fill-opacity:1;" d="M 299.679688 119.492188 C 299.605469 125.675781 294.769531 130.242188 288.550781 130.023438 C 282.609375 129.8125 278.21875 125.171875 278.296875 119.179688 C 278.378906 112.996094 283.214844 108.429688 289.433594 108.648438 C 295.375 108.859375 299.753906 113.5 299.679688 119.492188 "/><path style=" stroke:none;fill-rule:nonzero;fill:#ffffff;fill-opacity:1;" d="M 355.972656 631.695312 C 355.972656 637.664062 351.507812 642.195312 345.558594 642.261719 C 339.375 642.335938 334.714844 637.628906 334.851562 631.429688 C 334.976562 625.503906 339.574219 621.082031 345.542969 621.140625 C 351.492188 621.207031 355.972656 625.738281 355.972656 631.695312 "/><path style=" stroke:none;fill-rule:nonzero;fill:#ffffff;fill-opacity:1;" d="M 117.605469 357.871094 C 111.628906 357.953125 107.011719 353.546875 106.871094 347.632812 C 106.710938 341.421875 111.351562 336.695312 117.535156 336.746094 C 123.488281 336.796875 127.976562 341.320312 127.992188 347.277344 C 128 353.246094 123.554688 357.792969 117.605469 357.871094 "/><path style=" stroke:none;fill-rule:nonzero;fill:#ffffff;fill-opacity:1;" d="M 583.894531 175.953125 C 583.800781 181.871094 579.152344 186.34375 573.195312 186.25 C 567.269531 186.160156 562.796875 181.519531 562.898438 175.558594 C 562.988281 169.636719 567.632812 165.160156 573.589844 165.253906 C 579.515625 165.347656 583.988281 169.996094 583.894531 175.953125 "/><path style=" stroke:none;fill-rule:nonzero;fill:#ffffff;fill-opacity:1;" d="M 127.925781 403.449219 C 128.058594 409.40625 123.613281 414.097656 117.703125 414.230469 C 111.753906 414.355469 107.0625 409.910156 106.929688 404.011719 C 106.792969 398.050781 111.25 393.359375 117.152344 393.234375 C 123.101562 393.101562 127.800781 397.546875 127.925781 403.449219 "/><path style=" stroke:none;fill-rule:nonzero;fill:#ffffff;fill-opacity:1;" d="M 127.515625 461.226562 C 127.566406 466.65625 122.628906 471.523438 117.21875 471.390625 C 111.988281 471.257812 107.390625 466.589844 107.339844 461.371094 C 107.289062 455.941406 112.222656 451.074219 117.636719 451.214844 C 122.867188 451.339844 127.472656 456.007812 127.515625 461.226562 "/><path style=" stroke:none;fill-rule:nonzero;fill:#ffffff;fill-opacity:1;" d="M 458.953125 642.011719 C 453.421875 641.757812 448.917969 636.90625 449.09375 631.402344 C 449.277344 625.644531 454.4375 620.980469 460.136719 621.414062 C 465.667969 621.835938 470.039062 626.804688 469.703125 632.292969 C 469.359375 637.824219 464.449219 642.269531 458.953125 642.011719 "/><path style=" stroke:none;fill-rule:nonzero;fill:#ffffff;fill-opacity:1;" d="M 185 175.886719 C 184.925781 181.175781 180.285156 185.746094 175.003906 185.757812 C 169.527344 185.765625 164.726562 180.769531 164.992188 175.332031 C 165.253906 170.039062 170.046875 165.582031 175.273438 165.75 C 180.570312 165.925781 185.085938 170.625 185 175.886719 "/><path style=" stroke:none;fill-rule:nonzero;fill:#ffffff;fill-opacity:1;" d="M 583.484375 575.269531 C 583.492188 580.707031 578.523438 585.546875 573.121094 585.371094 C 567.890625 585.203125 563.316406 580.511719 563.308594 575.300781 C 563.300781 569.871094 568.261719 565.019531 573.664062 565.195312 C 578.894531 565.363281 583.46875 570.066406 583.484375 575.269531 "/><path style=" stroke:none;fill-rule:nonzero;fill:#ffffff;fill-opacity:1;" d="M 299.148438 631.871094 C 299.042969 637.3125 294.074219 642.0625 288.683594 641.859375 C 283.230469 641.667969 278.546875 636.621094 278.832031 631.25 C 279.109375 626.023438 283.828125 621.535156 289.011719 621.542969 C 294.449219 621.558594 299.257812 626.453125 299.148438 631.871094 "/><path style=" stroke:none;fill-rule:nonzero;fill:#ffffff;fill-opacity:1;" d="M 517.070312 129.496094 C 511.664062 129.5625 506.78125 124.703125 506.8125 119.289062 C 506.847656 113.851562 511.757812 109.0625 517.160156 109.179688 C 522.378906 109.296875 526.988281 113.871094 527.128906 119.097656 C 527.289062 124.492188 522.507812 129.429688 517.070312 129.496094 "/><path style=" stroke:none;fill-rule:nonzero;fill:#ffffff;fill-opacity:1;" d="M 641.121094 233.046875 C 641.304688 238.433594 636.539062 243.394531 631.101562 243.484375 C 625.695312 243.570312 620.804688 238.742188 620.804688 233.324219 C 620.804688 228.121094 625.308594 223.429688 630.539062 223.167969 C 635.910156 222.898438 640.945312 227.589844 641.121094 233.046875 "/><path style=" stroke:none;fill-rule:nonzero;fill:#ffffff;fill-opacity:1;" d="M 127.699219 289.472656 C 127.859375 294.960938 123.234375 299.847656 117.703125 300.015625 C 112.207031 300.175781 107.324219 295.542969 107.15625 290.011719 C 106.996094 284.523438 111.628906 279.640625 117.160156 279.472656 C 122.65625 279.3125 127.53125 283.933594 127.699219 289.472656 "/><path style=" stroke:none;fill-rule:nonzero;fill:#ffffff;fill-opacity:1;" d="M 640.515625 517.4375 C 640.660156 523 636.503906 527.273438 630.957031 527.273438 C 625.628906 527.265625 621.542969 523.296875 621.40625 518 C 621.265625 512.4375 625.425781 508.15625 630.972656 508.164062 C 636.296875 508.164062 640.390625 512.132812 640.515625 517.4375 "/><path style=" stroke:none;fill-rule:nonzero;fill:#ffffff;fill-opacity:1;" d="M 240.902344 119.316406 C 240.910156 124.6875 236.929688 128.738281 231.585938 128.816406 C 225.980469 128.890625 221.808594 124.6875 221.941406 119.074219 C 222.070312 113.726562 226.15625 109.800781 231.542969 109.859375 C 236.898438 109.917969 240.882812 113.953125 240.902344 119.316406 "/><path style=" stroke:none;fill-rule:nonzero;fill:#ffffff;fill-opacity:1;" d="M 175.191406 584.582031 C 169.871094 584.683594 165.722656 580.648438 165.699219 575.335938 C 165.671875 570.015625 169.769531 565.9375 175.089844 565.984375 C 180.183594 566.035156 184.136719 569.878906 184.304688 574.949219 C 184.472656 580.277344 180.484375 584.492188 175.191406 584.582031 "/><path style=" stroke:none;fill-rule:nonzero;fill:#ffffff;fill-opacity:1;" d="M 516.960938 622.441406 C 522.253906 622.429688 526.382812 626.667969 526.242188 631.972656 C 526.097656 637.042969 522.0625 640.960938 516.984375 640.96875 C 511.6875 640.976562 507.558594 636.730469 507.710938 631.4375 C 507.84375 626.367188 511.882812 622.449219 516.960938 622.441406 "/><path style=" stroke:none;fill-rule:nonzero;fill:#ffffff;fill-opacity:1;" d="M 394.039062 61.335938 C 394.308594 56.675781 398.679688 52.648438 403.269531 52.824219 C 408.15625 53.019531 412.335938 57.699219 411.882812 62.484375 C 411.4375 67.191406 406.988281 71.035156 402.40625 70.683594 C 397.734375 70.332031 393.78125 65.910156 394.039062 61.335938 "/><path style=" stroke:none;fill-rule:nonzero;fill:#ffffff;fill-opacity:1;" d="M 240.355469 631.703125 C 240.355469 636.335938 236.210938 640.558594 231.570312 640.640625 C 226.71875 640.734375 222.296875 636.246094 222.480469 631.417969 C 222.65625 626.769531 226.953125 622.675781 231.570312 622.765625 C 236.210938 622.851562 240.355469 627.0625 240.355469 631.703125 "/><path style=" stroke:none;fill-rule:nonzero;fill:#ffffff;fill-opacity:1;" d="M 687.554688 338.292969 C 692.394531 338.398438 696.683594 342.992188 696.398438 347.765625 C 696.121094 352.40625 691.808594 356.425781 687.21875 356.324219 C 682.367188 356.226562 678.089844 351.632812 678.363281 346.859375 C 678.640625 342.21875 682.964844 338.191406 687.554688 338.292969 "/><path style=" stroke:none;fill-rule:nonzero;fill:#ffffff;fill-opacity:1;" d="M 696.324219 403.734375 C 696.324219 408.367188 692.179688 412.578125 687.527344 412.671875 C 682.6875 412.761719 678.253906 408.273438 678.441406 403.4375 C 678.625 398.789062 682.914062 394.703125 687.527344 394.785156 C 692.179688 394.878906 696.324219 399.09375 696.324219 403.734375 "/><path style=" stroke:none;fill-rule:nonzero;fill:#ffffff;fill-opacity:1;" d="M 117.621094 224.140625 C 122.5625 224.25 126.640625 228.445312 126.609375 233.371094 C 126.574219 238.542969 122.085938 242.78125 116.949219 242.503906 C 112.015625 242.226562 108.0625 237.90625 108.246094 232.988281 C 108.441406 228.042969 112.695312 224.03125 117.621094 224.140625 "/><path style=" stroke:none;fill-rule:nonzero;fill:#ffffff;fill-opacity:1;" d="M 126.15625 517.546875 C 126.257812 522.3125 122.234375 526.425781 117.453125 526.441406 C 112.902344 526.460938 108.96875 522.734375 108.714844 518.175781 C 108.449219 513.425781 112.332031 509.179688 117.117188 508.996094 C 121.875 508.8125 126.046875 512.761719 126.15625 517.546875 "/><path style=" stroke:none;fill-rule:nonzero;fill:#ffffff;fill-opacity:1;" d="M 354.136719 61.855469 C 354.085938 66.628906 349.949219 70.625 345.179688 70.492188 C 340.40625 70.355469 336.46875 66.144531 336.6875 61.394531 C 336.898438 56.835938 340.800781 53.078125 345.347656 53.042969 C 350.125 53.007812 354.1875 57.078125 354.136719 61.855469 "/><path style=" stroke:none;fill-rule:nonzero;fill:#ffffff;fill-opacity:1;" d="M 687.359375 281.394531 C 692.121094 281.382812 695.652344 284.832031 695.738281 289.574219 C 695.820312 294.558594 692.109375 298.226562 687.117188 298.09375 C 682.394531 297.957031 678.96875 294.382812 679.035156 289.625 C 679.09375 284.867188 682.601562 281.410156 687.359375 281.394531 "/><path style=" stroke:none;fill-rule:nonzero;fill:#ffffff;fill-opacity:1;" d="M 630.957031 167.402344 C 635.714844 167.402344 639.234375 170.851562 639.316406 175.601562 C 639.390625 180.578125 635.675781 184.246094 630.6875 184.101562 C 625.964844 183.96875 622.550781 180.386719 622.617188 175.617188 C 622.683594 170.867188 626.191406 167.410156 630.957031 167.402344 "/><path style=" stroke:none;fill-rule:nonzero;fill:#ffffff;fill-opacity:1;" d="M 581.746094 119.074219 C 581.871094 123.839844 578.507812 127.488281 573.800781 127.683594 C 568.804688 127.890625 565.03125 124.285156 565.046875 119.316406 C 565.054688 114.550781 568.519531 111.050781 573.269531 110.992188 C 578.039062 110.921875 581.613281 114.347656 581.746094 119.074219 "/><path style=" stroke:none;fill-rule:nonzero;fill:#ffffff;fill-opacity:1;" d="M 467.671875 62.023438 C 467.546875 66.757812 463.914062 70.171875 459.136719 70.039062 C 454.414062 69.910156 450.996094 66.277344 451.132812 61.511719 C 451.257812 56.777344 454.890625 53.363281 459.65625 53.496094 C 464.390625 53.621094 467.796875 57.257812 467.671875 62.023438 "/><path style=" stroke:none;fill-rule:nonzero;fill:#ffffff;fill-opacity:1;" d="M 687.335938 469.402344 C 682.914062 469.375 679.328125 465.824219 679.28125 461.394531 C 679.230469 456.738281 683.0625 453.011719 687.722656 453.195312 C 692.128906 453.371094 695.585938 457.054688 695.492188 461.488281 C 695.382812 465.910156 691.765625 469.425781 687.335938 469.402344 "/><path style=" stroke:none;fill-rule:nonzero;fill:#ffffff;fill-opacity:1;" d="M 61.433594 395.9375 C 65.515625 396.207031 68.972656 400 68.796875 404.019531 C 68.609375 408.332031 64.523438 411.921875 60.292969 411.480469 C 56.183594 411.042969 52.902344 407.164062 53.246094 403.152344 C 53.589844 399.074219 57.441406 395.683594 61.433594 395.9375 "/><path style=" stroke:none;fill-rule:nonzero;fill:#ffffff;fill-opacity:1;" d="M 174.90625 127.128906 C 170.828125 127.070312 167.234375 123.445312 167.210938 119.382812 C 167.183594 115.109375 171.152344 111.300781 175.382812 111.542969 C 179.460938 111.78125 182.9375 115.546875 182.785156 119.574219 C 182.644531 123.664062 178.957031 127.1875 174.90625 127.128906 "/><path style=" stroke:none;fill-rule:nonzero;fill:#ffffff;fill-opacity:1;" d="M 630.730469 567.414062 C 634.976562 567.269531 638.871094 571.078125 638.839844 575.34375 C 638.804688 579.386719 635.253906 583.023438 631.191406 583.164062 C 626.953125 583.308594 623.050781 579.488281 623.09375 575.234375 C 623.121094 571.1875 626.679688 567.546875 630.730469 567.414062 "/><path style=" stroke:none;fill-rule:nonzero;fill:#ffffff;fill-opacity:1;" d="M 353.203125 689.300781 C 353.1875 693.371094 349.59375 696.996094 345.523438 697.0625 C 341.253906 697.136719 337.425781 693.210938 337.621094 688.957031 C 337.8125 684.878906 341.539062 681.386719 345.582031 681.488281 C 349.652344 681.585938 353.222656 685.238281 353.203125 689.300781 "/><path style=" stroke:none;fill-rule:nonzero;fill:#ffffff;fill-opacity:1;" d="M 297.003906 61.5625 C 297.109375 65.824219 293.476562 69.652344 289.199219 69.777344 C 284.933594 69.894531 281.097656 66.253906 280.980469 61.972656 C 280.871094 57.710938 284.507812 53.882812 288.785156 53.765625 C 293.050781 53.648438 296.875 57.28125 297.003906 61.5625 "/><path style=" stroke:none;fill-rule:nonzero;fill:#ffffff;fill-opacity:1;" d="M 68.796875 347.414062 C 68.738281 351.484375 65.121094 355.074219 61.050781 355.101562 C 56.777344 355.125 52.976562 351.164062 53.21875 346.925781 C 53.453125 342.847656 57.222656 339.382812 61.25 339.523438 C 65.328125 339.667969 68.855469 343.351562 68.796875 347.414062 "/><path style=" stroke:none;fill-rule:nonzero;fill:#ffffff;fill-opacity:1;" d="M 581.183594 631.863281 C 581.082031 635.941406 577.441406 639.5 573.371094 639.492188 C 569.109375 639.484375 565.324219 635.472656 565.609375 631.261719 C 565.878906 627.179688 569.671875 623.730469 573.699219 623.917969 C 577.777344 624.101562 581.277344 627.820312 581.183594 631.863281 "/><path style=" stroke:none;fill-rule:nonzero;fill:#ffffff;fill-opacity:1;" d="M 402.710938 697.144531 C 398.429688 696.96875 394.777344 692.917969 395.121094 688.710938 C 395.457031 684.652344 399.25 681.234375 403.261719 681.402344 C 407.542969 681.570312 411.195312 685.632812 410.839844 689.835938 C 410.503906 693.898438 406.710938 697.3125 402.710938 697.144531 "/><path style=" stroke:none;fill-rule:nonzero;fill:#ffffff;fill-opacity:1;" d="M 124.828125 175.820312 C 124.402344 180.316406 122.027344 182.902344 117.484375 183.085938 C 113.164062 183.261719 109.742188 179.6875 110.101562 175.382812 C 110.480469 170.859375 113.15625 168.335938 117.652344 168.460938 C 122.203125 168.578125 124.492188 171.371094 124.828125 175.820312 "/><path style=" stroke:none;fill-rule:nonzero;fill:#ffffff;fill-opacity:1;" d="M 459.632812 696.566406 C 455.152344 696.308594 452.324219 694.109375 452.214844 689.507812 C 452.097656 684.96875 454.597656 682.21875 459.171875 682.082031 C 463.710938 681.957031 466.445312 684.472656 466.597656 689.039062 C 466.742188 693.613281 464.132812 696.054688 459.632812 696.566406 "/><path style=" stroke:none;fill-rule:nonzero;fill:#ffffff;fill-opacity:1;" d="M 61.820312 296.800781 C 56.886719 296.824219 53.714844 293.671875 53.964844 289.5 C 54.234375 285.203125 56.660156 282.84375 60.964844 282.703125 C 65.136719 282.566406 68.285156 285.816406 68.046875 289.984375 C 67.8125 294.324219 65.269531 296.464844 61.820312 296.800781 "/><path style=" stroke:none;fill-rule:nonzero;fill:#ffffff;fill-opacity:1;" d="M 694.519531 233.039062 C 694.664062 237.207031 691.675781 240.390625 687.527344 240.457031 C 683.359375 240.53125 680.160156 237.484375 680.269531 233.324219 C 680.378906 229.042969 682.6875 226.566406 686.957031 226.214844 C 691.113281 225.871094 694.378906 228.917969 694.519531 233.039062 "/><path style=" stroke:none;fill-rule:nonzero;fill:#ffffff;fill-opacity:1;" d="M 516.933594 54.703125 C 521.105469 54.6875 524.269531 57.84375 524.015625 62.015625 C 523.75 66.320312 521.324219 68.667969 517.007812 68.8125 C 512.839844 68.9375 509.777344 65.699219 509.910156 61.519531 C 510.035156 57.601562 513 54.722656 516.933594 54.703125 "/><path style=" stroke:none;fill-rule:nonzero;fill:#ffffff;fill-opacity:1;" d="M 296.011719 689.132812 C 295.601562 693.304688 293.519531 695.886719 289.246094 696.179688 C 285.226562 696.464844 281.835938 693.125 282.082031 689.105469 C 282.347656 684.878906 284.773438 682.402344 289.011719 682.394531 C 293.300781 682.382812 295.449219 685.035156 296.011719 689.132812 "/><path style=" stroke:none;fill-rule:nonzero;fill:#ffffff;fill-opacity:1;" d="M 61.308594 454.347656 C 65.371094 455.058594 68.023438 457.300781 67.8125 461.5625 C 67.621094 465.765625 64.96875 468.277344 60.738281 468.101562 C 56.535156 467.925781 54.050781 465.253906 54.203125 461.035156 C 54.359375 456.789062 57.121094 454.707031 61.308594 454.347656 "/><path style=" stroke:none;fill-rule:nonzero;fill:#ffffff;fill-opacity:1;" d="M 124.324219 575.269531 C 123.746094 579.371094 121.566406 582.117188 117.320312 582.015625 C 113.113281 581.914062 110.570312 579.246094 110.695312 575.03125 C 110.816406 571.121094 113.332031 568.621094 117.257812 568.546875 C 121.515625 568.46875 123.714844 571.148438 124.324219 575.269531 "/><path style=" stroke:none;fill-rule:nonzero;fill:#ffffff;fill-opacity:1;" d="M 694.277344 517.472656 C 693.839844 521.609375 691.726562 524.394531 687.488281 524.445312 C 683.273438 524.496094 680.679688 521.886719 680.648438 517.671875 C 680.621094 513.726562 683.105469 511.203125 687 510.984375 C 691.253906 510.75 693.519531 513.394531 694.277344 517.472656 "/><path style=" stroke:none;fill-rule:nonzero;fill:#ffffff;fill-opacity:1;" d="M 182.003906 631.328125 C 181.460938 635.765625 179.335938 638.492188 175.074219 638.511719 C 170.84375 638.535156 168.242188 635.992188 168.199219 631.773438 C 168.15625 627.550781 170.710938 624.972656 174.929688 624.890625 C 179.226562 624.816406 181.28125 627.609375 182.003906 631.328125 "/><path style=" stroke:none;fill-rule:nonzero;fill:#ffffff;fill-opacity:1;" d="M 238.105469 61.871094 C 237.46875 65.816406 235.269531 68.417969 231.273438 68.316406 C 227.320312 68.207031 224.78125 65.605469 224.871094 61.628906 C 224.972656 57.667969 227.582031 55.132812 231.558594 55.214844 C 235.546875 55.300781 237.652344 57.976562 238.105469 61.871094 "/><path style=" stroke:none;fill-rule:nonzero;fill:#ffffff;fill-opacity:1;" d="M 636.941406 119.441406 C 636.597656 123.234375 634.566406 125.390625 630.648438 125.222656 C 627.011719 125.074219 625.023438 122.914062 625.074219 119.300781 C 625.132812 115.363281 627.390625 113.316406 631.285156 113.449219 C 634.945312 113.574219 636.707031 115.808594 636.941406 119.441406 "/><path style=" stroke:none;fill-rule:nonzero;fill:#ffffff;fill-opacity:1;" d="M 60.410156 227.332031 C 64.390625 227.515625 66.6875 229.203125 66.890625 232.871094 C 67.101562 236.738281 65.128906 239.078125 61.183594 239.214844 C 57.574219 239.339844 55.367188 237.417969 55.125 233.785156 C 54.855469 229.839844 57.0625 227.859375 60.410156 227.332031 "/><path style=" stroke:none;fill-rule:nonzero;fill:#ffffff;fill-opacity:1;" d="M 517.429688 683.300781 C 520.929688 683.792969 522.976562 685.75 522.867188 689.390625 C 522.75 693.328125 520.441406 695.351562 516.574219 695.15625 C 512.941406 694.972656 511 692.773438 511.078125 689.15625 C 511.167969 685.1875 513.542969 683.410156 517.429688 683.300781 "/><path style=" stroke:none;fill-rule:nonzero;fill:#ffffff;fill-opacity:1;" d="M 60.898438 523.269531 C 57.640625 522.691406 55.46875 520.871094 55.578125 517.570312 C 55.6875 514.300781 57.867188 512.191406 61.160156 512.292969 C 64.421875 512.394531 66.53125 514.574219 66.4375 517.867188 C 66.34375 521.15625 64.105469 522.875 60.898438 523.269531 "/><path style=" stroke:none;fill-rule:nonzero;fill:#ffffff;fill-opacity:1;" d="M 236.972656 689.175781 C 236.578125 692.378906 234.851562 694.621094 231.558594 694.703125 C 228.261719 694.78125 226.089844 692.671875 225.996094 689.410156 C 225.902344 686.121094 228.019531 683.945312 231.285156 683.84375 C 234.589844 683.746094 236.402344 685.917969 236.972656 689.175781 "/><path style=" stroke:none;fill-rule:nonzero;fill:#ffffff;fill-opacity:1;" d="M 687.394531 170.390625 C 690.683594 170.800781 692.773438 172.648438 692.65625 175.929688 C 692.546875 179.203125 690.347656 181.191406 687.066406 181.03125 C 684.089844 180.890625 682.117188 178.882812 682.097656 175.863281 C 682.082031 172.5625 684.15625 170.777344 687.394531 170.390625 "/><path style=" stroke:none;fill-rule:nonzero;fill:#ffffff;fill-opacity:1;" d="M 573.421875 56.398438 C 576.738281 56.835938 578.808594 58.699219 578.667969 61.980469 C 578.53125 65.246094 576.316406 67.234375 573.042969 67.042969 C 570.054688 66.875 568.101562 64.859375 568.109375 61.839844 C 568.117188 58.539062 570.207031 56.761719 573.421875 56.398438 "/><path style=" stroke:none;fill-rule:nonzero;fill:#ffffff;fill-opacity:1;" d="M 749.925781 347.21875 C 749.765625 350.382812 748.144531 352.222656 744.921875 352.222656 C 742.011719 352.230469 740.214844 350.628906 740.046875 347.707031 C 739.871094 344.550781 741.457031 342.546875 744.703125 342.402344 C 747.894531 342.269531 749.648438 343.996094 749.925781 347.21875 "/><path style=" stroke:none;fill-rule:nonzero;fill:#ffffff;fill-opacity:1;" d="M 350.257812 5.023438 C 350.023438 8.398438 348.421875 10.191406 345.222656 10.109375 C 342.328125 10.023438 340.667969 8.347656 340.648438 5.441406 C 340.632812 2.246094 342.421875 0.535156 345.601562 0.585938 C 348.546875 0.632812 349.929688 2.457031 350.257812 5.023438 "/><path style=" stroke:none;fill-rule:nonzero;fill:#ffffff;fill-opacity:1;" d="M 117.554688 124.167969 C 114.464844 123.988281 112.628906 122.4375 112.667969 119.222656 C 112.703125 116.320312 114.363281 114.632812 117.257812 114.582031 C 120.441406 114.515625 122.210938 116.261719 122.1875 119.449219 C 122.167969 122.371094 120.457031 123.871094 117.554688 124.167969 "/><path style=" stroke:none;fill-rule:nonzero;fill:#ffffff;fill-opacity:1;" d="M 403.035156 10.175781 C 399.957031 9.984375 398.152344 8.390625 398.226562 5.183594 C 398.285156 2.289062 399.964844 0.617188 402.867188 0.59375 C 406.058594 0.558594 407.792969 2.328125 407.746094 5.519531 C 407.695312 8.429688 405.964844 9.925781 403.035156 10.175781 "/><path style=" stroke:none;fill-rule:nonzero;fill:#ffffff;fill-opacity:1;" d="M 691.953125 575.351562 C 691.488281 578.078125 689.988281 579.925781 687.09375 579.75 C 684.53125 579.589844 682.855469 577.871094 682.921875 575.269531 C 682.996094 572.421875 684.808594 570.675781 687.679688 570.828125 C 690.257812 570.960938 691.625 572.742188 691.953125 575.351562 "/><path style=" stroke:none;fill-rule:nonzero;fill:#ffffff;fill-opacity:1;" d="M 635.816406 631.410156 C 635.558594 634.800781 633.929688 636.570312 630.730469 636.464844 C 627.835938 636.363281 626.199219 634.660156 626.207031 631.753906 C 626.207031 628.558594 628.019531 626.871094 631.191406 626.945312 C 634.148438 627.011719 635.496094 628.851562 635.816406 631.410156 "/><path style=" stroke:none;fill-rule:nonzero;fill:#ffffff;fill-opacity:1;" d="M 459.238281 9.90625 C 456.730469 9.472656 454.964844 8.078125 454.941406 5.476562 C 454.917969 2.613281 456.695312 0.792969 459.558594 0.902344 C 462.394531 1.003906 464.105469 2.917969 463.855469 5.777344 C 463.628906 8.3125 461.839844 9.691406 459.238281 9.90625 "/><path style=" stroke:none;fill-rule:nonzero;fill:#ffffff;fill-opacity:1;" d="M 175.140625 66.335938 C 172.378906 66.015625 170.507812 64.566406 170.542969 61.671875 C 170.566406 59.085938 172.246094 57.375 174.8125 57.304688 C 177.683594 57.238281 179.460938 59 179.460938 61.863281 C 179.460938 64.464844 177.707031 65.867188 175.140625 66.335938 "/><path style=" stroke:none;fill-rule:nonzero;fill:#ffffff;fill-opacity:1;" d="M 744.921875 294.316406 C 742.1875 293.871094 740.339844 292.378906 740.492188 289.484375 C 740.632812 286.914062 742.347656 285.234375 744.941406 285.285156 C 747.792969 285.328125 749.539062 287.132812 749.414062 290.003906 C 749.304688 292.585938 747.523438 293.957031 744.921875 294.316406 "/><path style=" stroke:none;fill-rule:nonzero;fill:#ffffff;fill-opacity:1;" d="M 744.796875 398.898438 C 747.902344 399.066406 749.75 400.609375 749.714844 403.824219 C 749.6875 406.730469 748.042969 408.414062 745.140625 408.484375 C 741.96875 408.558594 740.191406 406.828125 740.199219 403.632812 C 740.199219 400.710938 741.910156 399.210938 744.796875 398.898438 "/><path style=" stroke:none;fill-rule:nonzero;fill:#ffffff;fill-opacity:1;" d="M 749.175781 461.160156 C 748.933594 463.601562 747.617188 465.253906 745.308594 465.421875 C 742.691406 465.625 740.9375 463.988281 740.820312 461.371094 C 740.71875 459.003906 742.296875 457.351562 744.605469 457.175781 C 747.238281 456.964844 748.714844 458.652344 749.175781 461.160156 "/><path style=" stroke:none;fill-rule:nonzero;fill:#ffffff;fill-opacity:1;" d="M 3.613281 407.199219 C 1.421875 407.039062 0.0234375 405.933594 0.0390625 403.648438 C 0.0546875 401.675781 1.265625 400.410156 3.234375 400.335938 C 5.492188 400.25 6.835938 401.550781 6.835938 403.808594 C 6.835938 405.796875 5.578125 406.871094 3.613281 407.199219 "/><path style=" stroke:none;fill-rule:nonzero;fill:#ffffff;fill-opacity:1;" d="M 6.894531 347.496094 C 6.542969 349.644531 5.285156 350.945312 3.035156 350.703125 C 1.113281 350.484375 -0.0859375 349.183594 0.0390625 347.1875 C 0.179688 344.929688 1.617188 343.695312 3.847656 343.921875 C 5.769531 344.125 6.800781 345.449219 6.894531 347.496094 "/><path style=" stroke:none;fill-rule:nonzero;fill:#ffffff;fill-opacity:1;" d="M 520.484375 5.273438 C 520.054688 7.710938 518.78125 9 516.53125 8.734375 C 514.625 8.507812 513.425781 7.1875 513.578125 5.191406 C 513.738281 2.933594 515.1875 1.734375 517.414062 1.960938 C 519.375 2.160156 520.257812 3.605469 520.484375 5.273438 "/><path style=" stroke:none;fill-rule:nonzero;fill:#ffffff;fill-opacity:1;" d="M 117.34375 627.761719 C 120.128906 628.128906 121.480469 629.597656 121.28125 632.058594 C 121.078125 634.550781 119.375 635.808594 116.933594 635.558594 C 114.765625 635.332031 113.5 633.863281 113.558594 631.636719 C 113.625 629.09375 115.230469 627.96875 117.34375 627.761719 "/><path style=" stroke:none;fill-rule:nonzero;fill:#ffffff;fill-opacity:1;" d="M 60.714844 571.777344 C 63.1875 572.09375 64.539062 573.261719 64.40625 575.542969 C 64.28125 577.5 63.011719 578.707031 61.039062 578.683594 C 58.773438 578.648438 57.515625 577.289062 57.609375 575.03125 C 57.691406 573 59.144531 572.152344 60.714844 571.777344 "/><path style=" stroke:none;fill-rule:nonzero;fill:#ffffff;fill-opacity:1;" d="M 292.90625 5.25 C 292.765625 7.660156 291.523438 9.203125 289.011719 9.203125 C 286.519531 9.210938 285.09375 7.71875 285.128906 5.226562 C 285.160156 3.019531 286.488281 1.617188 288.683594 1.492188 C 291.167969 1.347656 292.585938 2.699219 292.90625 5.25 "/><path style=" stroke:none;fill-rule:nonzero;fill:#ffffff;fill-opacity:1;" d="M 60.992188 179.671875 C 58.457031 179.394531 57.019531 178.027344 57.15625 175.535156 C 57.28125 173.035156 58.910156 171.722656 61.367188 171.902344 C 63.558594 172.050781 64.867188 173.46875 64.875 175.6875 C 64.882812 178.203125 63.398438 179.46875 60.992188 179.671875 "/><path style=" stroke:none;fill-rule:nonzero;fill:#ffffff;fill-opacity:1;" d="M 744.738281 236.78125 C 742.597656 236.402344 741.304688 235.125 741.574219 232.886719 C 741.800781 230.972656 743.117188 229.78125 745.117188 229.925781 C 747.375 230.089844 748.589844 231.542969 748.339844 233.765625 C 748.128906 235.679688 746.785156 236.714844 744.738281 236.78125 "/><path style=" stroke:none;fill-rule:nonzero;fill:#ffffff;fill-opacity:1;" d="M 175.171875 692.742188 C 172.984375 692.582031 171.589844 691.472656 171.597656 689.191406 C 171.617188 687.21875 172.832031 685.960938 174.796875 685.875 C 177.054688 685.792969 178.394531 687.09375 178.394531 689.351562 C 178.394531 691.339844 177.136719 692.414062 175.171875 692.742188 "/><path style=" stroke:none;fill-rule:nonzero;fill:#ffffff;fill-opacity:1;" d="M 569.453125 689.359375 C 569.820312 686.574219 571.28125 685.222656 573.742188 685.421875 C 576.242188 685.625 577.5 687.328125 577.25 689.769531 C 577.011719 691.933594 575.554688 693.203125 573.328125 693.144531 C 570.785156 693.078125 569.660156 691.472656 569.453125 689.359375 "/><path style=" stroke:none;fill-rule:nonzero;fill:#ffffff;fill-opacity:1;" d="M 348.882812 745.660156 C 348.640625 747.835938 347.480469 749.195312 345.199219 749.085938 C 343.234375 748.992188 342.015625 747.734375 342.015625 745.761719 C 342.015625 743.503906 343.359375 742.210938 345.617188 742.296875 C 347.605469 742.371094 348.628906 743.679688 348.882812 745.660156 "/><path style=" stroke:none;fill-rule:nonzero;fill:#ffffff;fill-opacity:1;" d="M 406.695312 745.90625 C 406.425781 748.421875 404.925781 749.589844 402.5 749.355469 C 400.300781 749.144531 399.175781 747.683594 399.300781 745.484375 C 399.445312 742.933594 401.054688 741.800781 403.464844 742.027344 C 405.671875 742.238281 406.6875 743.707031 406.695312 745.90625 "/><path style=" stroke:none;fill-rule:nonzero;fill:#ffffff;fill-opacity:1;" d="M 459.214844 742.238281 C 461.226562 742.304688 462.570312 743.328125 462.789062 745.25 C 463.03125 747.472656 461.816406 748.976562 459.558594 749.078125 C 457.308594 749.175781 455.972656 747.835938 456.007812 745.570312 C 456.03125 743.578125 457.316406 742.53125 459.214844 742.238281 "/><path style=" stroke:none;fill-rule:nonzero;fill:#ffffff;fill-opacity:1;" d="M 690.082031 119.382812 C 689.894531 121.457031 688.703125 122.160156 687 122.007812 C 685.480469 121.875 684.691406 120.875 684.699219 119.367188 C 684.699219 117.5625 685.699219 116.613281 687.488281 116.65625 C 689.332031 116.707031 690.097656 117.832031 690.082031 119.382812 "/><path style=" stroke:none;fill-rule:nonzero;fill:#ffffff;fill-opacity:1;" d="M 6.148438 461.277344 C 5.972656 463.375 4.8125 464.105469 3.101562 463.972656 C 1.582031 463.863281 0.769531 462.898438 0.75 461.378906 C 0.742188 459.574219 1.699219 458.59375 3.503906 458.617188 C 5.335938 458.640625 6.140625 459.742188 6.148438 461.277344 "/><path style=" stroke:none;fill-rule:nonzero;fill:#ffffff;fill-opacity:1;" d="M 3.539062 292.410156 C 1.792969 292.417969 0.75 291.554688 0.761719 289.734375 C 0.769531 287.921875 1.800781 287.015625 3.589844 287.058594 C 5.117188 287.097656 6.054688 287.957031 6.105469 289.472656 C 6.171875 291.160156 5.542969 292.417969 3.539062 292.410156 "/><path style=" stroke:none;fill-rule:nonzero;fill:#ffffff;fill-opacity:1;" d="M 631.007812 59.070312 C 633.089844 59.253906 633.785156 60.445312 633.636719 62.148438 C 633.5 63.675781 632.511719 64.457031 630.992188 64.457031 C 629.1875 64.449219 628.238281 63.457031 628.28125 61.660156 C 628.332031 59.816406 629.457031 59.058594 631.007812 59.070312 "/><path style=" stroke:none;fill-rule:nonzero;fill:#ffffff;fill-opacity:1;" d="M 231.542969 8.042969 C 229.773438 8.019531 228.730469 7.164062 228.742188 5.34375 C 228.75 3.53125 229.78125 2.625 231.570312 2.664062 C 233.097656 2.699219 234.011719 3.5625 234.09375 5.082031 C 234.195312 6.820312 233.421875 7.925781 231.542969 8.042969 "/><path style=" stroke:none;fill-rule:nonzero;fill:#ffffff;fill-opacity:1;" d="M 744.78125 515.046875 C 746.5 515.011719 747.601562 515.800781 747.632812 517.640625 C 747.667969 519.445312 746.695312 520.410156 744.890625 520.398438 C 743.371094 520.398438 742.378906 519.585938 742.289062 518.074219 C 742.179688 516.414062 742.757812 515.097656 744.78125 515.046875 "/><path style=" stroke:none;fill-rule:nonzero;fill:#ffffff;fill-opacity:1;" d="M 291.65625 746.675781 C 291.632812 747.449219 290.699219 748.414062 288.894531 748.371094 C 287.058594 748.328125 286.226562 747.222656 286.308594 745.460938 C 286.386719 743.933594 287.285156 743.042969 288.804688 743.007812 C 290.539062 742.976562 291.65625 743.746094 291.65625 746.675781 "/></g><mask id="7db860301d"><g filter="url(#b27ff9c03c)"><rect x="0" width="750" y="0" height="749.999995" style="fill:#000000;fill-opacity:0.1;stroke:none;"/></g></mask></g></g></svg>